<?xml version="1.0" encoding="UTF-8" standalone="no"?>
<!-- Created with Inkscape (http://www.inkscape.org/) -->

<svg version="1.1" id="svg2" width="666.66669" height="666.66669" viewBox="0 0 666.66669 666.66669"
   sodipodi:docname="2392489.ai" xmlns:inkscape="http://www.inkscape.org/namespaces/inkscape"
   xmlns:sodipodi="http://sodipodi.sourceforge.net/DTD/sodipodi-0.dtd" xmlns="http://www.w3.org/2000/svg"
   xmlns:svg="http://www.w3.org/2000/svg">
   <defs id="defs6">
      <linearGradient x1="0" y1="0" x2="1" y2="0" gradientUnits="userSpaceOnUse"
         gradientTransform="matrix(0,310.13062,310.13062,0,252.61769,138.9453)" spreadMethod="pad"
         id="linearGradient32">
         <stop style="stop-opacity:1;stop-color:#d6e1f4" offset="0" id="stop22" />
         <stop style="stop-opacity:1;stop-color:#d6e1f4" offset="0.00196314" id="stop24" />
         <stop style="stop-opacity:1;stop-color:#f2f2f2" offset="0.8505734" id="stop26" />
         <stop style="stop-opacity:1;stop-color:#f2f2f2" offset="0.996755" id="stop28" />
         <stop style="stop-opacity:1;stop-color:#f2f2f2" offset="1" id="stop30" />
      </linearGradient>
      <linearGradient x1="0" y1="0" x2="1" y2="0" gradientUnits="userSpaceOnUse"
         gradientTransform="matrix(88.481491,0,0,-88.481491,318.23993,331.37115)" spreadMethod="pad"
         id="linearGradient54">
         <stop style="stop-opacity:1;stop-color:#ffae2a" offset="0" id="stop48" />
         <stop style="stop-opacity:1;stop-color:#ffec00" offset="0.72704536" id="stop50" />
         <stop style="stop-opacity:1;stop-color:#ffec00" offset="1" id="stop52" />
      </linearGradient>
      <clipPath clipPathUnits="userSpaceOnUse" id="clipPath64">
         <path d="M 0,500 H 500 V 0 H 0 Z" id="path62" />
      </clipPath>
      <linearGradient x1="0" y1="0" x2="1" y2="0" gradientUnits="userSpaceOnUse"
         gradientTransform="matrix(128.37187,0,0,-128.37187,313.11041,263.2395)" spreadMethod="pad"
         id="linearGradient90">
         <stop style="stop-opacity:1;stop-color:#008da2" offset="0" id="stop82" />
         <stop style="stop-opacity:1;stop-color:#008da2" offset="0.004527" id="stop84" />
         <stop style="stop-opacity:1;stop-color:#008da2" offset="0.09116613" id="stop86" />
         <stop style="stop-opacity:1;stop-color:#47dcf2" offset="1" id="stop88" />
      </linearGradient>
      <linearGradient x1="0" y1="0" x2="1" y2="0" gradientUnits="userSpaceOnUse"
         gradientTransform="matrix(-60.666668,109.33333,109.33333,60.666668,168.78731,297.48706)" spreadMethod="pad"
         id="linearGradient112">
         <stop style="stop-opacity:1;stop-color:#ffae2a" offset="0" id="stop106" />
         <stop style="stop-opacity:1;stop-color:#ffec00" offset="0.72704536" id="stop108" />
         <stop style="stop-opacity:1;stop-color:#ffec00" offset="1" id="stop110" />
      </linearGradient>
      <clipPath clipPathUnits="userSpaceOnUse" id="clipPath122">
         <path d="M 0,500 H 500 V 0 H 0 Z" id="path120" />
      </clipPath>
      <linearGradient x1="0" y1="0" x2="1" y2="0" gradientUnits="userSpaceOnUse"
         gradientTransform="matrix(128.37187,0,0,-128.37187,64.128029,271.81668)" spreadMethod="pad"
         id="linearGradient148">
         <stop style="stop-opacity:1;stop-color:#008da2" offset="0" id="stop140" />
         <stop style="stop-opacity:1;stop-color:#008da2" offset="0.004527" id="stop142" />
         <stop style="stop-opacity:1;stop-color:#008da2" offset="0.09116613" id="stop144" />
         <stop style="stop-opacity:1;stop-color:#47dcf2" offset="1" id="stop146" />
      </linearGradient>
      <linearGradient x1="0" y1="0" x2="1" y2="0" gradientUnits="userSpaceOnUse"
         gradientTransform="matrix(98.500008,124,124,-98.500008,185.278,145.63364)" spreadMethod="pad"
         id="linearGradient172">
         <stop style="stop-opacity:1;stop-color:#574dff" offset="0" id="stop164" />
         <stop style="stop-opacity:1;stop-color:#574dff" offset="0.00194311" id="stop166" />
         <stop style="stop-opacity:1;stop-color:#9dc5ff" offset="0.62641168" id="stop168" />
         <stop style="stop-opacity:1;stop-color:#9dc5ff" offset="1" id="stop170" />
      </linearGradient>
      <linearGradient x1="0" y1="0" x2="1" y2="0" gradientUnits="userSpaceOnUse"
         gradientTransform="matrix(129.5,182,182,-129.5,245.95589,221.42369)" spreadMethod="pad" id="linearGradient196">
         <stop style="stop-opacity:1;stop-color:#574dff" offset="0" id="stop188" />
         <stop style="stop-opacity:1;stop-color:#574dff" offset="0.00194311" id="stop190" />
         <stop style="stop-opacity:1;stop-color:#9dc5ff" offset="0.62641168" id="stop192" />
         <stop style="stop-opacity:1;stop-color:#9dc5ff" offset="1" id="stop194" />
      </linearGradient>
      <clipPath clipPathUnits="userSpaceOnUse" id="clipPath206">
         <path d="M 0,500 H 500 V 0 H 0 Z" id="path204" />
      </clipPath>
      <clipPath clipPathUnits="userSpaceOnUse" id="clipPath242">
         <path
            d="m 186.052,228.569 c 1.422,-25.059 28.396,-45.473 63.571,-45.76 v 0 h 0.757 c 1.272,0 2.533,0.021 3.783,0.084 v 0 c 0.2,0.011 0.388,0.022 0.589,0.033 v 0 c 1.418,0.052 2.826,0.16 4.225,0.287 v 0 c 2.153,0.212 4.286,0.49 6.368,0.852 v 0 c 2.733,0.448 5.391,1.033 7.965,1.735 v 0 c 0.232,0.065 0.474,0.128 0.705,0.203 v 0 c 2.323,0.64 4.572,1.385 6.737,2.227 v 0 c 1.408,0.531 2.784,1.107 4.13,1.724 v 0 c 0.914,0.405 1.818,0.831 2.701,1.278 v 0 c 1.177,0.586 2.312,1.203 3.426,1.853 v 0 c 0.199,0.117 0.388,0.223 0.578,0.351 v 0 c 0.61,0.352 1.198,0.715 1.786,1.087 v 0 c 1.009,0.639 1.975,1.31 2.922,1.992 v 0 c 11.392,8.263 15.556,19.91 18.422,32.054 v 0 c 13.577,57.509 -23.221,95.882 -58.753,95.882 v 0 c -35.522,0 -73.075,-40.119 -69.912,-95.882"
            id="path240" />
      </clipPath>
      <linearGradient x1="0" y1="0" x2="1" y2="0" gradientUnits="userSpaceOnUse"
         gradientTransform="matrix(0,84.445908,84.445908,0,263.92459,146.9453)" spreadMethod="pad"
         id="linearGradient272">
         <stop style="stop-opacity:1;stop-color:#ff2c6e" offset="0" id="stop264" />
         <stop style="stop-opacity:1;stop-color:#ff2c6e" offset="0.001302" id="stop266" />
         <stop style="stop-opacity:1;stop-color:#ff2c6e" offset="0.30102813" id="stop268" />
         <stop style="stop-opacity:1;stop-color:#850038" offset="1" id="stop270" />
      </linearGradient>
      <linearGradient x1="0" y1="0" x2="1" y2="0" gradientUnits="userSpaceOnUse"
         gradientTransform="matrix(0,70.679245,70.679245,0,283.04138,229.61197)" spreadMethod="pad"
         id="linearGradient294">
         <stop style="stop-opacity:1;stop-color:#ffae2a" offset="0" id="stop288" />
         <stop style="stop-opacity:1;stop-color:#ffec00" offset="0.72704536" id="stop290" />
         <stop style="stop-opacity:1;stop-color:#ffec00" offset="1" id="stop292" />
      </linearGradient>
      <clipPath clipPathUnits="userSpaceOnUse" id="clipPath304">
         <path
            d="m 186.052,228.569 c 1.422,-25.059 28.396,-45.473 63.571,-45.76 v 0 h 0.757 c 1.272,0 2.533,0.021 3.783,0.084 v 0 c 0.2,0.011 0.388,0.022 0.589,0.033 v 0 c 1.418,0.052 2.826,0.16 4.225,0.287 v 0 c 2.153,0.212 4.286,0.49 6.368,0.852 v 0 c 2.733,0.448 5.391,1.033 7.965,1.735 v 0 c 0.232,0.065 0.474,0.128 0.705,0.203 v 0 c 2.323,0.64 4.572,1.385 6.737,2.227 v 0 c 1.408,0.531 2.784,1.107 4.13,1.724 v 0 c 0.914,0.405 1.818,0.831 2.701,1.278 v 0 c 1.177,0.586 2.312,1.203 3.426,1.853 v 0 c 0.199,0.117 0.388,0.223 0.578,0.351 v 0 c 0.61,0.352 1.198,0.715 1.786,1.087 v 0 c 1.009,0.639 1.975,1.31 2.922,1.992 v 0 c 11.392,8.263 15.556,19.91 18.422,32.054 v 0 c 13.577,57.509 -23.221,95.882 -58.753,95.882 v 0 c -35.522,0 -73.075,-40.119 -69.912,-95.882"
            id="path302" />
      </clipPath>
      <linearGradient x1="0" y1="0" x2="1" y2="0" gradientUnits="userSpaceOnUse"
         gradientTransform="matrix(0,70.679245,70.679245,0,232.84206,229.61197)" spreadMethod="pad"
         id="linearGradient328">
         <stop style="stop-opacity:1;stop-color:#ffae2a" offset="0" id="stop322" />
         <stop style="stop-opacity:1;stop-color:#ffec00" offset="0.72704536" id="stop324" />
         <stop style="stop-opacity:1;stop-color:#ffec00" offset="1" id="stop326" />
      </linearGradient>
      <clipPath clipPathUnits="userSpaceOnUse" id="clipPath338">
         <path
            d="m 186.052,228.569 c 1.422,-25.059 28.396,-45.473 63.571,-45.76 v 0 h 0.757 c 1.272,0 2.533,0.021 3.783,0.084 v 0 c 0.2,0.011 0.388,0.022 0.589,0.033 v 0 c 1.418,0.052 2.826,0.16 4.225,0.287 v 0 c 2.153,0.212 4.286,0.49 6.368,0.852 v 0 c 2.733,0.448 5.391,1.033 7.965,1.735 v 0 c 0.232,0.065 0.474,0.128 0.705,0.203 v 0 c 2.323,0.64 4.572,1.385 6.737,2.227 v 0 c 1.408,0.531 2.784,1.107 4.13,1.724 v 0 c 0.914,0.405 1.818,0.831 2.701,1.278 v 0 c 1.177,0.586 2.312,1.203 3.426,1.853 v 0 c 0.199,0.117 0.388,0.223 0.578,0.351 v 0 c 0.61,0.352 1.198,0.715 1.786,1.087 v 0 c 1.009,0.639 1.975,1.31 2.922,1.992 v 0 c 11.392,8.263 15.556,19.91 18.422,32.054 v 0 c 13.577,57.509 -23.221,95.882 -58.753,95.882 v 0 c -35.522,0 -73.075,-40.119 -69.912,-95.882"
            id="path336" />
      </clipPath>
      <linearGradient x1="0" y1="0" x2="1" y2="0" gradientUnits="userSpaceOnUse"
         gradientTransform="matrix(0,70.679245,70.679245,0,255.97293,229.61197)" spreadMethod="pad"
         id="linearGradient362">
         <stop style="stop-opacity:1;stop-color:#ffae2a" offset="0" id="stop356" />
         <stop style="stop-opacity:1;stop-color:#ffec00" offset="0.72704536" id="stop358" />
         <stop style="stop-opacity:1;stop-color:#ffec00" offset="1" id="stop360" />
      </linearGradient>
      <clipPath clipPathUnits="userSpaceOnUse" id="clipPath372">
         <path
            d="m 186.052,228.569 c 1.422,-25.059 28.396,-45.473 63.571,-45.76 v 0 h 0.757 c 1.272,0 2.533,0.021 3.783,0.084 v 0 c 0.2,0.011 0.388,0.022 0.589,0.033 v 0 c 1.418,0.052 2.826,0.16 4.225,0.287 v 0 c 2.153,0.212 4.286,0.49 6.368,0.852 v 0 c 2.733,0.448 5.391,1.033 7.965,1.735 v 0 c 0.232,0.065 0.474,0.128 0.705,0.203 v 0 c 2.323,0.64 4.572,1.385 6.737,2.227 v 0 c 1.408,0.531 2.784,1.107 4.13,1.724 v 0 c 0.914,0.405 1.818,0.831 2.701,1.278 v 0 c 1.177,0.586 2.312,1.203 3.426,1.853 v 0 c 0.199,0.117 0.388,0.223 0.578,0.351 v 0 c 0.61,0.352 1.198,0.715 1.786,1.087 v 0 c 1.009,0.639 1.975,1.31 2.922,1.992 v 0 c 11.392,8.263 15.556,19.91 18.422,32.054 v 0 c 13.577,57.509 -23.221,95.882 -58.753,95.882 v 0 c -35.522,0 -73.075,-40.119 -69.912,-95.882"
            id="path370" />
      </clipPath>
      <linearGradient x1="0" y1="0" x2="1" y2="0" gradientUnits="userSpaceOnUse"
         gradientTransform="matrix(74.040749,129.41876,129.41876,-74.040749,373.14444,136.69078)" spreadMethod="pad"
         id="linearGradient442">
         <stop style="stop-opacity:1;stop-color:#574dff" offset="0" id="stop434" />
         <stop style="stop-opacity:1;stop-color:#574dff" offset="0.00194311" id="stop436" />
         <stop style="stop-opacity:1;stop-color:#9dc5ff" offset="0.62641168" id="stop438" />
         <stop style="stop-opacity:1;stop-color:#9dc5ff" offset="1" id="stop440" />
      </linearGradient>
      <linearGradient x1="0" y1="0" x2="1" y2="0" gradientUnits="userSpaceOnUse"
         gradientTransform="matrix(147.0648,253.22803,253.22803,-147.0648,446.73294,252.4637)" spreadMethod="pad"
         id="linearGradient466">
         <stop style="stop-opacity:1;stop-color:#574dff" offset="0" id="stop458" />
         <stop style="stop-opacity:1;stop-color:#574dff" offset="0.00194311" id="stop460" />
         <stop style="stop-opacity:1;stop-color:#9dc5ff" offset="0.62641168" id="stop462" />
         <stop style="stop-opacity:1;stop-color:#9dc5ff" offset="1" id="stop464" />
      </linearGradient>
      <linearGradient x1="0" y1="0" x2="1" y2="0" gradientUnits="userSpaceOnUse"
         gradientTransform="matrix(62,97.5,97.5,-62,62.524128,154.05)" spreadMethod="pad" id="linearGradient490">
         <stop style="stop-opacity:1;stop-color:#574dff" offset="0" id="stop482" />
         <stop style="stop-opacity:1;stop-color:#574dff" offset="0.00194311" id="stop484" />
         <stop style="stop-opacity:1;stop-color:#9dc5ff" offset="0.62641168" id="stop486" />
         <stop style="stop-opacity:1;stop-color:#9dc5ff" offset="1" id="stop488" />
      </linearGradient>
      <linearGradient x1="0" y1="0" x2="1" y2="0" gradientUnits="userSpaceOnUse"
         gradientTransform="matrix(168.5,239.5,239.5,-168.5,241.93771,398.41452)" spreadMethod="pad"
         id="linearGradient514">
         <stop style="stop-opacity:1;stop-color:#574dff" offset="0" id="stop506" />
         <stop style="stop-opacity:1;stop-color:#574dff" offset="0.00194311" id="stop508" />
         <stop style="stop-opacity:1;stop-color:#9dc5ff" offset="0.62641168" id="stop510" />
         <stop style="stop-opacity:1;stop-color:#9dc5ff" offset="1" id="stop512" />
      </linearGradient>
      <clipPath clipPathUnits="userSpaceOnUse" id="clipPath524">
         <path d="M 0,500 H 500 V 0 H 0 Z" id="path522" />
      </clipPath>
   </defs>
   <sodipodi:namedview id="namedview4" pagecolor="#ffffff" bordercolor="#000000" borderopacity="0.25"
      inkscape:showpageshadow="2" inkscape:pageopacity="0.0" inkscape:pagecheckerboard="0"
      inkscape:deskcolor="#d1d1d1" />
   <g id="g8" inkscape:groupmode="layer" inkscape:label="2392489"
      transform="matrix(1.3333333,0,0,-1.3333333,0,666.66667)">
      <g id="g10">
         <g id="g12">
            <g id="g18">
               <g id="g20">
                  <path
                     d="m 173.406,409.643 c -16.342,-6.816 -33.068,-19.117 -35.456,-37.732 v 0 c -1.83,-14.269 5.346,-29.115 1.841,-42.994 v 0 c -2.635,-10.434 -10.932,-18.183 -19.967,-22.997 v 0 c -9.036,-4.814 -19.012,-7.28 -28.483,-11.056 v 0 c -20.295,-8.091 -38.814,-23.076 -47.94,-44.03 v 0 c -9.127,-20.955 -7.23,-48.137 7.685,-65.322 v 0 c 7.122,-8.207 16.537,-13.682 24.437,-21.032 v 0 c 10.263,-9.55 10.05,-25.012 16.109,-37.061 v 0 c 6.244,-12.419 17.49,-20.59 28.803,-27.155 v 0 c 14.142,-8.207 30.548,-12.07 46.456,-10.056 v 0 c 22.736,2.88 43.314,16.385 66.121,18.651 v 0 c 23.118,2.295 45.794,-7.126 68.386,-13.375 v 0 c 24.981,-6.911 51.405,-10.006 76.334,-3.701 v 0 c 24.927,6.305 48.217,23.038 58.95,47.801 v 0 c 8.01,18.478 8.668,39.98 16.977,58.304 v 0 c 4.984,10.994 12.766,21.087 13.627,33.325 v 0 c 0.473,6.728 -1.136,12.934 -3.799,18.904 v 0 c -6.109,13.7 -17.763,26.166 -22.518,40.893 v 0 c -8.075,25.012 4.838,52.56 -0.375,78.381 v 0 c -4.565,22.613 -24.3,40.933 -45.866,42.58 v 0 c -17.928,1.368 -34.925,-7.561 -52.715,-9.868 v 0 c -29.843,-3.874 -59.007,10.939 -88.787,16.27 v 0 c -8.261,1.479 -16.63,2.212 -24.984,2.213 v 0 c -18.755,0 -37.456,-3.694 -54.836,-10.943"
                     style="fill:url(#linearGradient32);stroke:none" id="path34" />
               </g>
            </g>
         </g>
      </g>
      <g id="g36">
         <g id="g38">
            <g id="g44">
               <g id="g46">
                  <path
                     d="m 373.727,372.803 c -2.353,-3.938 -8.137,-22.384 -14.159,-18.295 v 0 c -4.559,3.096 0.157,21.566 -10.724,8.365 v 0 c -4.424,-5.368 -3.711,-13.993 -5.706,-20.133 v 0 c -2.921,-8.993 -4.153,-12.721 -12.136,-10.412 v 0 c -4.136,1.197 -4.27,6.389 -9.376,2.882 v 0 c -2.629,-1.805 -3.409,-10.116 -3.386,-13.001 v 0 c 0.205,-26.51 10.805,-44.264 15.805,-46.553 v 0 c 6.769,-3.098 19.347,1.377 25.136,4.702 v 0 c 2.877,1.653 8.127,4.386 7.757,8.576 v 0 c -0.415,4.702 -7.675,4.027 -7.945,6.788 v 0 c -0.489,5.016 5.244,3.75 10.48,2.486 v 0 c 2.939,-0.71 5.721,-1.421 7.156,-1.019 v 0 c 5.167,1.445 13.726,10.678 8.306,15.562 v 0 c -0.557,0.501 -23.079,2.132 -10.196,9.302 v 0 c 3.16,1.759 6.422,0.576 9.674,-0.607 v 0 c 4.087,-1.486 8.158,-2.973 11.991,1.382 v 0 c 9.904,11.255 -7.495,9.785 -11.837,11.436 v 0 c -11.577,4.405 -1.139,9.558 6.128,11.613 v 0 c 5.879,1.663 20.601,4.375 14.626,14.41 v 0 c -6.258,10.511 -12.253,-2.471 -17.232,-3.937 v 0 c -11.128,-3.276 0.452,10.683 3.216,14.404 v 0 c 3.786,5.099 11.752,15.518 1.916,17.253 v 0 c -0.467,0.082 -0.936,0.122 -1.403,0.122 v 0 c -7.503,10e-4 -14.985,-10.125 -18.091,-15.326"
                     style="fill:url(#linearGradient54);stroke:none" id="path56" />
               </g>
            </g>
         </g>
      </g>
      <g id="g58">
         <g id="g60" clip-path="url(#clipPath64)">
            <g id="g66" transform="translate(382.6465,330.0942)">
               <path
                  d="m 0,0 c -4.975,2.101 -10.116,3.996 -15.533,4.457 3.81,4.761 7.804,9.477 10.703,14.763 0.818,1.491 -1.618,2.521 -2.431,1.04 -0.353,-0.644 -0.747,-1.27 -1.13,-1.902 -0.417,1.617 0.083,4.03 0.236,5.319 0.39,3.328 1.644,6.32 2.953,9.373 0.671,1.564 -1.759,2.606 -2.431,1.04 -1.698,-3.961 -3.039,-7.745 -3.338,-12.074 -0.147,-2.128 -0.274,-4.434 0.961,-6.195 -4.096,-6.079 -9.199,-11.678 -13.471,-17.577 -1.827,2.895 -3.167,5.907 -3.786,9.336 -0.672,3.733 -0.216,7.528 -0.603,11.287 -0.175,1.693 -2.799,1.367 -2.624,-0.329 0.465,-4.519 -0.065,-8.958 1.072,-13.415 0.856,-3.358 2.392,-6.327 4.299,-9.195 -4.911,-7.099 -9.445,-14.48 -13.173,-22.273 -1.237,-2.588 -2.368,-5.227 -3.463,-7.882 -2.465,3.686 -4.509,7.531 -5.929,11.768 -0.79,2.356 -1.666,4.853 -1.982,7.319 -0.239,1.869 -0.042,3.634 -0.777,5.406 -0.653,1.572 -3.109,0.591 -2.454,-0.984 0.901,-2.171 0.596,-5.002 1.168,-7.324 0.551,-2.241 1.235,-4.467 2.013,-6.64 1.592,-4.446 3.935,-8.481 6.638,-12.334 0.04,-0.057 0.091,-0.079 0.133,-0.127 -1.847,-4.586 -3.652,-9.192 -5.705,-13.68 -0.164,-0.127 -0.311,-0.29 -0.408,-0.533 -0.197,-0.503 -0.586,-1.198 -0.715,-1.809 -3.672,-9.267 -7.369,-18.528 -10.922,-27.841 -0.606,-1.585 1.822,-2.633 2.43,-1.039 3.54,9.279 7.225,18.509 10.884,27.744 0.024,0.039 0.054,0.063 0.075,0.107 1.174,2.419 2.251,4.884 3.29,7.367 4.81,-1.223 10.157,0.183 14.643,1.985 1.581,0.635 0.599,3.09 -0.983,2.454 -3.901,-1.567 -8.416,-2.785 -12.631,-1.953 2.312,5.68 4.492,11.424 7.127,16.956 1.048,2.202 2.17,4.364 3.342,6.498 0.086,-0.062 0.158,-0.134 0.27,-0.179 6.559,-2.663 13.635,-3.728 20.655,-2.626 1.677,0.263 1.359,2.889 -0.329,2.624 -6.578,-1.033 -13.136,-0.064 -19.286,2.432 -0.013,0.005 -0.023,0.002 -0.036,0.007 3.612,6.301 7.682,12.341 11.957,18.212 0.728,0.999 1.486,1.986 2.255,2.969 0.151,-0.364 0.458,-0.656 0.987,-0.698 C -10.793,1.435 -5.86,-0.396 -1.04,-2.431 0.527,-3.092 1.57,-0.663 0,0"
                  style="fill:#f46d6d;fill-opacity:1;fill-rule:nonzero;stroke:none" id="path68" />
            </g>
         </g>
      </g>
      <g id="g70">
         <g id="g72">
            <g id="g78">
               <g id="g80">
                  <path
                     d="m 409.845,309.637 c -5.175,-4.459 -6.353,-12.169 -7.304,-18.525 v 0 c -1.421,-0.691 -2.826,-1.426 -4.212,-2.221 v 0 c -0.591,-0.338 -1.175,-0.689 -1.765,-1.033 v 0 c 2.21,2.522 4.013,5.335 5.014,8.345 v 0 c 1.014,3.049 0.093,8.399 -4.178,5.662 v 0 c -6.711,-4.3 -9.214,-13.259 -11.319,-20.467 v 0 c -1.24,-0.809 -2.472,-1.628 -3.699,-2.457 v 0 c 2.414,3.917 4.232,8.406 4.277,12.734 v 0 c 0.029,2.791 -2.164,6.923 -4.983,3.467 v 0 c -4.294,-5.268 -4.13,-13.018 -3.957,-19.424 v 0 c -2.778,-1.963 -5.512,-3.978 -8.202,-6.037 v 0 c 0.079,0.693 0.158,1.37 0.288,1.857 v 0 c 0.505,1.887 0.89,3.738 1.233,5.722 v 0 c 0.623,3.596 1.455,7.24 2.469,10.761 v 0 c 0.477,1.655 1.542,4.368 -0.996,4.072 v 0 c -1.808,-0.21 -2.947,-1.875 -4.028,-3.124 v 0 c -2.45,-2.831 -4.113,-6.302 -3.979,-10.115 v 0 c 0.135,-3.871 1.847,-7.068 3.242,-10.539 v 0 c -0.337,-0.261 -0.678,-0.517 -1.012,-0.781 v 0 c -1.876,-1.472 -3.742,-2.965 -5.607,-4.455 v 0 c 2.034,5.829 3.152,12.525 1.64,18.238 v 0 c -0.844,3.188 -4.642,7.209 -6.767,2.385 v 0 c -3.249,-7.375 -0.603,-16.183 1.611,-23.441 v 0 c -3.942,-3.178 -7.873,-6.378 -11.798,-9.579 v 0 c -0.143,5.638 0.231,17.755 0.097,21.285 v 0 c -0.078,2.059 -0.293,5.312 -3.195,4.256 v 0 c -2.09,-0.759 -2.798,-3.332 -3.197,-5.293 v 0 c -2.374,-11.697 1.889,-18.883 3.716,-22.351 v 0 c -1.961,-1.598 -3.922,-3.199 -5.883,-4.789 v 0 c -0.895,-0.725 -1.757,-1.471 -2.607,-2.228 v 0 c 1.032,4.688 1.889,17.069 0.298,22.988 v 0 c -0.88,3.27 -5.336,9.992 -8.866,5.678 v 0 c -1.572,-1.921 0.847,-20.289 7.026,-30.077 v 0 c -7.149,-6.712 -12.917,-14.421 -19.668,-21.659 v 0 c -1.42,-1.525 1.071,-3.587 2.487,-2.068 v 0 c 4.684,5.021 8.935,10.127 13.435,15.017 v 0 c 10.882,-5.041 26.606,-10.226 31.392,-10.209 v 0 c 2.261,0.006 7.149,0.822 8.432,2.836 v 0 c 2.315,3.635 -3.319,5.573 -5.786,6.123 v 0 c -5.425,1.205 -22.767,3.568 -30.35,5.132 v 0 c 1.461,1.481 2.966,2.933 4.532,4.347 v 0 c 2.365,-0.905 4.741,-2.254 7.191,-3.041 v 0 c 3.167,-1.018 20.73,-4.002 26.277,-2.862 v 0 c 2.406,0.494 7.1,0.316 7.697,3.381 v 0 c 0.576,2.959 -3.025,4.803 -5.348,5.567 v 0 c -4.565,1.504 -23.528,0.447 -33.17,-0.74 v 0 c 0.705,0.588 1.42,1.171 2.155,1.743 v 0 c 1.983,1.544 3.94,3.116 5.891,4.695 v 0 c 9.588,-2.157 24.256,-3.518 28.243,-2.567 v 0 c 1.79,0.425 5.508,1.98 6.151,3.813 v 0 c 1.156,3.308 -3.664,3.796 -5.72,3.773 v 0 c -4.394,-0.053 -17.914,-1.336 -24.445,-1.563 v 0 c 2.736,2.248 5.469,4.5 8.207,6.744 v 0 c 8.411,-2.103 18.905,-4.982 27.794,-0.775 v 0 c 5.562,2.633 1.089,6.636 -2.522,7.398 v 0 c -6.309,1.332 -13.759,-0.169 -20.343,-2.644 v 0 c 0.957,0.768 1.906,1.546 2.871,2.304 v 0 c 1.994,1.567 4.023,3.104 6.07,4.62 v 0 l 0.084,-0.166 c 6.316,-1.838 14.224,-4.351 20.728,-1.394 v 0 c 4.055,1.843 0.621,5.012 -2.082,5.694 v 0 c -4.714,1.188 -10.192,0.263 -15.005,-1.425 v 0 c 4.411,3.151 8.925,6.176 13.516,9.05 v 0 c 5.101,-1.39 10.794,-2.454 15.651,-0.246 v 0 c 3.782,1.719 0.579,4.674 -1.943,5.31 v 0 c -1.383,0.349 -2.836,0.499 -4.319,0.497 v 0 c 4.415,2.342 8.975,4.171 13.601,5.827 v 0 l 0.052,-0.282 c 4.537,-2.912 10.17,-6.726 15.971,-5.913 v 0 c 3.616,0.507 1.652,3.795 -0.314,4.96 v 0 c -3.547,2.099 -8.261,2.611 -12.554,2.342 v 0 c 1.644,0.564 3.296,1.119 4.949,1.675 v 0 c 2.075,-0.19 4.265,0.013 6.337,-0.392 v 0 c 2.795,-0.547 5.765,-1.634 8.648,-1.082 v 0 c 2.59,0.495 4.776,2.653 2.391,4.882 v 0 c -0.872,0.815 -2.183,1.353 -3.594,1.616 v 0 c 1.398,0.615 2.639,1.471 3.568,2.763 v 0 c 2.035,2.829 1.324,5.395 -2.304,5.705 v 0 c -2.752,0.235 -4.991,-1.586 -6.745,-3.467 v 0 c -1.483,-1.59 -3.146,-3.457 -4.589,-5.333 v 0 c -2.49,-0.868 -4.987,-1.696 -7.478,-2.532 v 0 c 2.68,2.31 5.028,5.132 6.134,8.258 v 0 c 0.764,2.154 0.161,5.937 -2.939,4.008 v 0 c -4.723,-2.94 -6.653,-8.984 -8.219,-13.992 v 0 c -2.262,-0.8 -4.508,-1.641 -6.728,-2.557 v 0 c 3.156,3.482 5.833,7.677 6.653,12.031 v 0 c 0.397,2.111 -0.364,5.234 -2.275,5.234 v 0 c -0.572,0 -1.247,-0.28 -2.025,-0.95"
                     style="fill:url(#linearGradient90);stroke:none" id="path92" />
               </g>
            </g>
         </g>
      </g>
      <g id="g94">
         <g id="g96">
            <g id="g102">
               <g id="g104">
                  <path
                     d="m 112.389,396.584 c -9.835,-1.735 -1.871,-12.154 1.916,-17.252 v 0 c 2.764,-3.722 14.345,-17.681 3.216,-14.405 v 0 c -4.978,1.466 -10.974,14.448 -17.232,3.937 v 0 c -5.975,-10.034 8.747,-12.747 14.626,-14.41 v 0 c 7.268,-2.055 17.706,-7.207 6.128,-11.613 v 0 c -4.342,-1.651 -21.741,-0.181 -11.837,-11.435 v 0 c 3.832,-4.356 7.904,-2.869 11.991,-1.382 v 0 c 3.251,1.182 6.513,2.365 9.674,0.606 v 0 c 12.884,-7.17 -9.638,-8.801 -10.195,-9.302 v 0 c -5.421,-4.884 3.139,-14.116 8.306,-15.562 v 0 c 1.434,-0.402 4.216,0.309 7.156,1.019 v 0 c 5.234,1.264 10.968,2.53 10.479,-2.486 v 0 c -0.269,-2.761 -7.53,-2.085 -7.945,-6.788 v 0 c -0.37,-4.19 4.88,-6.922 7.758,-8.576 v 0 c 5.788,-3.324 18.367,-7.8 25.135,-4.702 v 0 c 5.001,2.289 15.6,20.043 15.805,46.553 v 0 c 0.023,2.886 -0.757,11.196 -3.386,13.001 v 0 c -5.105,3.507 -5.239,-1.685 -9.377,-2.881 v 0 c -7.982,-2.31 -9.213,1.418 -12.135,10.412 v 0 c -1.996,6.139 -1.281,14.764 -5.706,20.132 v 0 c -10.881,13.201 -6.165,-5.269 -10.724,-8.365 v 0 c -6.022,-4.089 -11.805,14.357 -14.158,18.295 v 0 c -3.107,5.201 -10.589,15.327 -18.092,15.326 v 0 c -0.467,0 -0.936,-0.04 -1.403,-0.122"
                     style="fill:url(#linearGradient112);stroke:none" id="path114" />
               </g>
            </g>
         </g>
      </g>
      <g id="g116">
         <g id="g118" clip-path="url(#clipPath122)">
            <g id="g124" transform="translate(122.9639,338.6714)">
               <path
                  d="m 0,0 c 4.974,2.101 10.116,3.996 15.533,4.457 -3.81,4.761 -7.804,9.477 -10.704,14.763 -0.817,1.491 1.619,2.521 2.432,1.04 0.353,-0.644 0.747,-1.27 1.129,-1.901 0.418,1.616 -0.082,4.029 -0.235,5.318 -0.39,3.328 -1.644,6.32 -2.953,9.373 -0.671,1.564 1.759,2.606 2.431,1.04 1.698,-3.961 3.038,-7.745 3.338,-12.074 0.147,-2.128 0.274,-4.434 -0.961,-6.195 4.096,-6.079 9.199,-11.678 13.471,-17.577 1.827,2.895 3.167,5.907 3.785,9.336 0.672,3.733 0.217,7.528 0.604,11.287 0.175,1.693 2.799,1.367 2.624,-0.329 C 30.028,14.019 30.559,9.58 29.422,5.124 28.566,1.765 27.03,-1.204 25.123,-4.072 c 4.911,-7.099 9.445,-14.48 13.172,-22.273 1.238,-2.588 2.369,-5.227 3.463,-7.882 2.466,3.686 4.51,7.532 5.93,11.768 0.79,2.356 1.666,4.853 1.981,7.319 0.24,1.869 0.042,3.634 0.778,5.406 0.653,1.572 3.108,0.591 2.454,-0.984 -0.901,-2.171 -0.596,-5.002 -1.168,-7.324 -0.551,-2.241 -1.235,-4.467 -2.013,-6.64 -1.592,-4.446 -3.935,-8.481 -6.638,-12.334 -0.04,-0.057 -0.091,-0.079 -0.134,-0.127 1.848,-4.586 3.653,-9.192 5.706,-13.68 0.164,-0.127 0.311,-0.289 0.407,-0.533 0.198,-0.503 0.587,-1.198 0.716,-1.809 3.672,-9.267 7.369,-18.528 10.922,-27.841 0.606,-1.585 -1.823,-2.633 -2.43,-1.039 -3.54,9.279 -7.225,18.509 -10.884,27.744 -0.024,0.039 -0.055,0.063 -0.075,0.107 -1.174,2.419 -2.251,4.884 -3.29,7.367 -4.81,-1.223 -10.157,0.183 -14.643,1.985 -1.581,0.635 -0.599,3.09 0.983,2.454 3.901,-1.567 8.416,-2.785 12.631,-1.953 -2.312,5.68 -4.492,11.424 -7.127,16.956 -1.049,2.202 -2.171,4.364 -3.342,6.498 -0.086,-0.062 -0.158,-0.134 -0.27,-0.179 -6.559,-2.663 -13.636,-3.728 -20.655,-2.626 -1.677,0.264 -1.359,2.889 0.329,2.624 6.578,-1.033 13.136,-0.064 19.286,2.432 0.013,0.005 0.023,0.002 0.036,0.007 -3.612,6.302 -7.683,12.341 -11.957,18.212 C 18.563,0.582 17.805,1.569 17.036,2.552 16.885,2.188 16.577,1.896 16.049,1.854 10.793,1.435 5.86,-0.396 1.039,-2.431 -0.527,-3.092 -1.57,-0.663 0,0"
                  style="fill:#f46d6d;fill-opacity:1;fill-rule:nonzero;stroke:none" id="path126" />
            </g>
         </g>
      </g>
      <g id="g128">
         <g id="g130">
            <g id="g136">
               <g id="g138">
                  <path
                     d="m 91.466,313.931 c 0.819,-4.354 3.496,-8.549 6.652,-12.032 v 0 c -2.219,0.917 -4.466,1.757 -6.728,2.557 v 0 c -1.565,5.008 -3.495,11.052 -8.219,13.992 v 0 c -3.1,1.929 -3.702,-1.854 -2.94,-4.008 v 0 c 1.108,-3.126 3.455,-5.947 6.136,-8.258 v 0 c -2.491,0.836 -4.989,1.664 -7.48,2.532 v 0 c -1.442,1.876 -3.104,3.743 -4.588,5.334 v 0 c -1.753,1.88 -3.992,3.701 -6.744,3.467 v 0 c -3.628,-0.311 -4.339,-2.876 -2.306,-5.706 v 0 c 0.93,-1.292 2.171,-2.148 3.569,-2.763 v 0 c -1.411,-0.263 -2.721,-0.801 -3.593,-1.615 v 0 c -2.386,-2.23 -0.201,-4.388 2.39,-4.883 v 0 c 2.883,-0.552 5.853,0.535 8.648,1.082 v 0 c 2.072,0.405 4.263,0.202 6.337,0.392 v 0 c 1.654,-0.556 3.305,-1.111 4.95,-1.675 v 0 c -4.293,0.269 -9.008,-0.242 -12.555,-2.342 v 0 c -1.966,-1.165 -3.929,-4.453 -0.313,-4.96 v 0 c 5.8,-0.813 11.433,3.001 15.97,5.913 v 0 l 0.052,0.282 c 4.626,-1.656 9.187,-3.485 13.601,-5.827 v 0 c -1.483,0.002 -2.937,-0.148 -4.319,-0.496 v 0 c -2.521,-0.636 -5.724,-3.591 -1.942,-5.311 v 0 c 4.857,-2.208 10.55,-1.144 15.65,0.246 v 0 c 4.591,-2.874 9.105,-5.899 13.517,-9.05 v 0 c -4.814,1.689 -10.292,2.613 -15.006,1.425 v 0 c -2.703,-0.682 -6.137,-3.851 -2.083,-5.694 v 0 c 6.506,-2.956 14.413,-0.444 20.73,1.395 v 0 l 0.083,0.166 c 2.047,-1.517 4.076,-3.053 6.071,-4.62 v 0 c 0.965,-0.759 1.913,-1.537 2.871,-2.305 v 0 c -6.586,2.475 -14.035,3.976 -20.343,2.644 v 0 c -3.612,-0.762 -8.084,-4.765 -2.524,-7.398 v 0 c 8.89,-4.207 19.383,-1.328 27.795,0.775 v 0 c 2.739,-2.244 5.472,-4.496 8.207,-6.744 v 0 c -6.532,0.228 -20.05,1.51 -24.444,1.563 v 0 c -2.056,0.023 -6.876,-0.465 -5.721,-3.773 v 0 c 0.643,-1.832 4.361,-3.388 6.15,-3.813 v 0 c 3.989,-0.951 18.656,0.41 28.245,2.567 v 0 c 1.95,-1.579 3.907,-3.151 5.891,-4.696 v 0 c 0.734,-0.571 1.449,-1.153 2.154,-1.742 v 0 c -9.641,1.187 -28.604,2.244 -33.171,0.74 v 0 c -2.322,-0.765 -5.923,-2.608 -5.346,-5.567 v 0 c 0.596,-3.065 5.29,-2.887 7.697,-3.381 v 0 c 5.547,-1.14 23.11,1.845 26.277,2.862 v 0 c 2.449,0.787 4.824,2.136 7.191,3.041 v 0 c 1.565,-1.414 3.071,-2.866 4.532,-4.347 v 0 c -7.583,-1.564 -24.925,-3.927 -30.351,-5.132 v 0 c -2.467,-0.55 -8.101,-2.487 -5.787,-6.123 v 0 c 1.285,-2.013 6.173,-2.83 8.434,-2.836 v 0 c 4.785,-0.016 20.509,5.168 31.391,10.209 v 0 c 4.5,-4.89 8.751,-9.995 13.435,-15.017 v 0 c 1.417,-1.519 3.908,0.543 2.487,2.068 v 0 c -6.751,7.238 -12.518,14.947 -19.668,21.659 v 0 c 6.179,9.789 8.599,28.156 7.027,30.078 v 0 c -3.532,4.313 -7.988,-2.409 -8.867,-5.679 v 0 c -1.59,-5.919 -0.734,-18.3 0.298,-22.989 v 0 c -0.85,0.757 -1.712,1.504 -2.607,2.229 v 0 c -1.961,1.591 -3.921,3.191 -5.882,4.79 v 0 c 1.826,3.467 6.089,10.653 3.716,22.35 v 0 c -0.398,1.961 -1.108,4.534 -3.198,5.294 v 0 c -2.903,1.055 -3.116,-2.198 -3.194,-4.257 v 0 c -0.135,-3.529 0.24,-15.646 0.096,-21.286 v 0 c -3.925,3.202 -7.855,6.402 -11.799,9.58 v 0 c 2.214,7.259 4.862,16.066 1.612,23.441 v 0 c -2.124,4.824 -5.922,0.803 -6.767,-2.385 v 0 c -1.511,-5.713 -0.394,-12.409 1.64,-18.238 v 0 c -1.865,1.491 -3.731,2.983 -5.606,4.455 v 0 c -0.334,0.264 -0.676,0.52 -1.012,0.781 v 0 c 1.394,3.471 3.106,6.668 3.241,10.539 v 0 c 0.135,3.813 -1.528,7.284 -3.979,10.115 v 0 c -1.081,1.249 -2.22,2.914 -4.027,3.124 v 0 c -2.539,0.296 -1.474,-2.417 -0.996,-4.072 v 0 c 1.013,-3.521 1.846,-7.165 2.468,-10.76 v 0 c 0.344,-1.985 0.728,-3.836 1.233,-5.723 v 0 c 0.131,-0.487 0.209,-1.164 0.288,-1.857 v 0 c -2.69,2.059 -5.424,4.074 -8.201,6.037 v 0 c 0.173,6.406 0.336,14.156 -3.959,19.424 v 0 c -2.817,3.455 -5.01,-0.676 -4.982,-3.467 v 0 c 0.045,-4.328 1.863,-8.817 4.278,-12.733 v 0 c -1.227,0.828 -2.46,1.648 -3.7,2.456 v 0 c -2.105,7.208 -4.608,16.167 -11.32,20.468 v 0 c -4.27,2.736 -5.191,-2.614 -4.177,-5.663 v 0 c 1.002,-3.01 2.805,-5.823 5.014,-8.345 v 0 c -0.589,0.344 -1.174,0.695 -1.765,1.033 v 0 c -1.385,0.795 -2.792,1.53 -4.211,2.221 v 0 c -0.952,6.356 -2.13,14.067 -7.305,18.525 v 0 c -0.778,0.671 -1.453,0.95 -2.025,0.951 v 0 c -1.911,0 -2.671,-3.124 -2.274,-5.234"
                     style="fill:url(#linearGradient148);stroke:none" id="path150" />
               </g>
            </g>
         </g>
      </g>
      <g id="g152">
         <g id="g154">
            <g id="g160">
               <g id="g162">
                  <path
                     d="m 154.288,227.114 c 0,-36.852 42.247,-66.763 94.578,-67.184 v 0 h 1.126 c 1.892,0 3.767,0.031 5.629,0.125 v 0 c 0.297,0.015 0.578,0.031 0.875,0.047 v 0 c 2.112,0.077 4.206,0.234 6.286,0.421 v 0 c 3.206,0.313 6.379,0.72 9.475,1.251 v 0 c 4.065,0.657 8.02,1.517 11.851,2.549 v 0 c 0.344,0.094 0.703,0.188 1.048,0.297 v 0 c 3.455,0.938 6.801,2.032 10.021,3.268 v 0 c 2.097,0.782 4.144,1.626 6.147,2.533 v 0 c 1.36,0.593 2.704,1.22 4.017,1.876 v 0 c 1.752,0.86 3.44,1.767 5.098,2.721 v 0 c 0.297,0.171 0.578,0.328 0.859,0.515 v 0 c 0.908,0.517 1.783,1.048 2.658,1.595 v 0 c 1.501,0.939 2.939,1.923 4.347,2.924 v 0 c 16.949,12.133 27.409,28.738 27.409,47.062 v 0 c 0,37.087 -42.857,67.154 -95.72,67.154 v 0 c -52.847,0 -95.704,-30.067 -95.704,-67.154"
                     style="fill:url(#linearGradient172);stroke:none" id="path174" />
               </g>
            </g>
         </g>
      </g>
      <g id="g176">
         <g id="g178">
            <g id="g184">
               <g id="g186">
                  <path
                     d="m 186.889,227.11 c 0,-24.3 27.857,-44.023 62.364,-44.301 v 0 h 0.742 c 1.247,0 2.485,0.02 3.711,0.082 v 0 c 0.197,0.011 0.382,0.021 0.577,0.031 v 0 c 1.393,0.052 2.774,0.154 4.145,0.278 v 0 c 2.114,0.206 4.206,0.475 6.248,0.826 v 0 c 2.681,0.432 5.289,1 7.814,1.679 v 0 c 0.227,0.062 0.464,0.124 0.691,0.196 v 0 c 2.279,0.619 4.485,1.34 6.609,2.155 v 0 c 1.381,0.516 2.732,1.072 4.051,1.67 v 0 c 0.897,0.392 1.784,0.804 2.651,1.238 v 0 c 1.153,0.566 2.267,1.165 3.359,1.793 v 0 c 0.196,0.114 0.383,0.216 0.568,0.341 v 0 c 0.598,0.34 1.175,0.69 1.752,1.052 v 0 c 0.99,0.617 1.938,1.267 2.866,1.927 v 0 c 11.176,8 18.073,18.949 18.073,31.033 v 0 c 0,24.453 -28.258,44.279 -63.115,44.279 v 0 c -34.846,0 -63.106,-19.826 -63.106,-44.279"
                     style="fill:url(#linearGradient196);stroke:none" id="path198" />
               </g>
            </g>
         </g>
      </g>
      <g id="g200">
         <g id="g202" clip-path="url(#clipPath206)">
            <g id="g208" transform="translate(266.3223,239.6894)">
               <path d="M 0,0 27.192,-19.112 30.986,-18.62 4.495,0 Z"
                  style="fill:#e0e7ee;fill-opacity:1;fill-rule:nonzero;stroke:none" id="path210" />
            </g>
            <g id="g212" transform="translate(263.8399,216.8711)">
               <path d="m 0,0 27.192,-19.113 3.795,0.492 L 4.495,0 Z"
                  style="fill:#e0e7ee;fill-opacity:1;fill-rule:nonzero;stroke:none" id="path214" />
            </g>
            <g id="g216" transform="translate(286.3057,201.2422)">
               <path
                  d="m 0,0 -24.104,16.949 3.34,14.97 L 3.072,14.413 Z M 7.948,37.3 5.123,24.062 4.608,21.64 -19.3,38.444 l 3.382,15.042 -4.929,4.124 -16.206,-76.044 h 0.742 c 1.248,0 2.485,0.021 3.711,0.082 0.197,0.011 0.382,0.022 0.578,0.032 l 1.68,7.506 8.712,-6.403 c 2.681,0.433 5.289,1 7.815,1.68 0.226,0.062 0.463,0.124 0.691,0.196 l -15.754,11.072 3.3,14.671 24.031,-17.639 -0.918,-4.279 c 0.898,0.392 1.784,0.804 2.651,1.238 1.154,0.566 2.835,1.505 3.927,2.133 l 8.763,41.322 z"
                  style="fill:#ffffff;fill-opacity:1;fill-rule:nonzero;stroke:none" id="path218" />
            </g>
            <g id="g220" transform="translate(303.1309,234.4189)">
               <path
                  d="m 0,0 -8.094,-38.342 c -0.927,-0.66 -1.876,-1.309 -2.865,-1.928 -0.578,-0.361 -1.155,-0.711 -1.753,-1.051 L -3.949,0 Z"
                  style="fill:#e0e7ee;fill-opacity:1;fill-rule:nonzero;stroke:none" id="path222" />
            </g>
            <g id="g224" transform="translate(299.1778,234.4209)">
               <path d="m 0,0 -4.924,4.124 h 3.951 L 3.952,0 Z"
                  style="fill:#e0e7ee;fill-opacity:1;fill-rule:nonzero;stroke:none" id="path226" />
            </g>
            <g id="g228" transform="translate(270.3839,254.7334)">
               <path d="M 0,0 H 3.951 L -0.973,4.124 H -4.925 Z"
                  style="fill:#e0e7ee;fill-opacity:1;fill-rule:nonzero;stroke:none" id="path230" />
            </g>
            <g id="g232" transform="translate(270.3839,254.7334)">
               <path d="M 0,0 H 3.951 L 0.578,-15.044 h -3.951 z"
                  style="fill:#e0e7ee;fill-opacity:1;fill-rule:nonzero;stroke:none" id="path234" />
            </g>
         </g>
      </g>
      <g id="g236">
         <g id="g238" clip-path="url(#clipPath242)">
            <g id="g244" transform="translate(269.9737,291.8369)">
               <path
                  d="m 0,0 c -1.638,5.317 -5,9.597 -7.613,14.423 -0.673,1.243 -1.494,2.429 -2.103,3.712 -0.241,0.509 -1.51,2.991 -2.816,5.537 -1.818,3.541 -5.706,5.081 -9.182,3.633 -2.089,-0.871 -3.733,-2.706 -4.487,-5.027 -1.22,-3.754 -3.673,-8.7 -5.042,-10.286 -2.545,-2.946 -5.638,-5.766 -7.528,-9.276 -1.095,-2.031 -1.105,-4.302 -1.722,-6.487 0.633,1.894 2.817,3.375 4.306,4.475 0.224,-1.65 -0.639,-4.111 -0.81,-5.809 -0.282,-2.812 0.133,-5.417 1.053,-8.049 2.056,-5.88 6.262,-9.896 9.645,-14.88 0.795,-1.172 1.329,-2.443 2.213,-3.561 0.308,-0.389 0.86,-1.397 1.315,-1.384 0.638,0.016 2.251,2.116 2.687,2.537 4.244,4.1 9.638,6.546 12.744,11.87 2.085,3.573 2.678,7.568 4.069,11.375 0.741,-2.141 0.428,-4.567 0.997,-6.737 C -0.377,-9.373 1.504,-4.883 0,0"
                  style="fill:#323bb4;fill-opacity:1;fill-rule:nonzero;stroke:none" id="path246" />
            </g>
            <g id="g248" transform="translate(261.4874,137.9658)">
               <path
                  d="m 0,0 c 0,0 -6.664,-2.917 -4.059,-6.113 3.552,-2.13 8.038,-4.542 9.66,-7.217 1.167,-1.923 3.493,-2.826 5.718,-2.501 0.253,0.037 0.404,0.065 0.404,0.065 1.015,-0.735 2.507,-0.074 2.534,1.18 0.042,1.994 -1.345,5.366 -7.809,10.435 z"
                  style="fill:#f9a101;fill-opacity:1;fill-rule:nonzero;stroke:none" id="path250" />
            </g>
         </g>
      </g>
      <g id="g252">
         <g id="g254">
            <g id="g260">
               <g id="g262">
                  <path
                     d="m 240.1,222.883 h -0.013 c 0,0 -0.866,-5.915 4.484,-18.946 v 0 c 1.384,-6.988 2.49,-14.016 3.333,-21.098 v 0 c 0.571,-0.015 1.144,-0.025 1.719,-0.03 v 0 h 0.757 c 1.272,0 2.533,0.021 3.783,0.084 v 0 c 0.2,0.011 0.388,0.022 0.589,0.033 v 0 c 1.418,0.052 2.826,0.16 4.225,0.287 v 0 c 1.086,0.107 2.167,0.231 3.239,0.374 v 0 c -0.288,8.12 -0.822,16.105 -1.542,23.984 v 0 l 0.441,0.1 c 6.87,-7.252 10.671,-14.508 12.236,-21.859 v 0 c 0.219,0.061 0.447,0.121 0.664,0.191 v 0 c 2.323,0.64 4.572,1.385 6.737,2.227 v 0 c 1.408,0.531 2.784,1.107 4.13,1.724 v 0 c 0.825,0.366 1.643,0.748 2.444,1.149 v 0 c -1.631,8.962 -5.382,15.898 -8.672,20.549 v 0 h 10e-4 c -10e-4,0.002 -0.002,0.005 -0.004,0.006 v 0 c -0.838,1.185 -1.644,2.218 -2.379,3.101 v 0 c -1.704,2.621 -2.568,5.259 -2.108,7.927 v 0 l -23.349,0.135 -11.122,1.563 c 0.139,-0.499 0.271,-1 0.407,-1.501"
                     style="fill:url(#linearGradient272);stroke:none" id="path274" />
               </g>
            </g>
         </g>
      </g>
      <g id="g276">
         <g id="g278">
            <g id="g284">
               <g id="g286">
                  <path
                     d="m 265.764,283.744 c -1.498,-1.1 -1.549,-3.064 -1.298,-4.593 v 0 c 0.172,-1.046 0.528,-2.044 1,-2.993 v 0 c 1.572,-3.166 7.404,-14.577 11.972,-19.1 v 0 c 2.009,-1.989 5.09,-2.365 7.518,-0.918 v 0 c 5.373,3.204 14.359,8.8 16.775,11.77 v 0 c -0.326,0.429 -0.209,0.294 -0.65,0.848 v 0 c -0.44,0.553 -1.357,1.837 -1.959,2.491 v 0 c -3.39,-2.722 -16.534,-5.123 -16.534,-5.123 v 0 c 0,0 -7.71,11.545 -9.329,16.115 v 0 c -0.615,1.631 -1.948,2.93 -3.821,2.93 v 0 c -1.062,0 -2.297,-0.417 -3.674,-1.427"
                     style="fill:url(#linearGradient294);stroke:none" id="path296" />
               </g>
            </g>
         </g>
      </g>
      <g id="g298">
         <g id="g300" clip-path="url(#clipPath304)">
            <g id="g306" transform="translate(301.7305,267.9233)">
               <path
                  d="M 0,0 C 4.428,2.374 8.039,5.277 9.05,10.496 9.228,11.412 7.515,12.456 6.134,11.513 4.753,10.57 2.727,8.276 1.981,6.444 1.79,7.124 2.119,8.333 1.894,8.942 1.669,9.551 1.523,10.437 0.402,9.458 -0.718,8.48 -2.14,5.202 -2.56,3.382 -1.747,2.201 -0.836,1.166 0,0"
                  style="fill:#fab9b5;fill-opacity:1;fill-rule:nonzero;stroke:none" id="path308" />
            </g>
         </g>
      </g>
      <g id="g310">
         <g id="g312">
            <g id="g318">
               <g id="g320">
                  <path
                     d="m 243.353,283.713 c -2.061,-4.389 -10.868,-15.12 -10.868,-15.12 v 0 c 0,0 -12.844,3.679 -15.95,6.723 v 0 c -0.664,-0.592 -1.703,-1.779 -2.196,-2.287 v 0 c -0.491,-0.508 -0.362,-0.385 -0.729,-0.78 v 0 c 2.113,-3.193 10.505,-9.645 15.537,-13.36 v 0 c 2.274,-1.68 5.378,-1.608 7.572,0.173 v 0 c 4.99,4.054 11.915,14.836 13.791,17.833 v 0 c 0.562,0.898 1.016,1.856 1.29,2.881 v 0 c 0.399,1.496 0.542,3.456 -0.841,4.697 v 0 c -1.428,1.282 -2.752,1.8 -3.902,1.8 v 0 c -1.679,0 -2.987,-1.107 -3.704,-2.56"
                     style="fill:url(#linearGradient328);stroke:none" id="path330" />
               </g>
            </g>
         </g>
      </g>
      <g id="g332">
         <g id="g334" clip-path="url(#clipPath338)">
            <g id="g340" transform="translate(213.6124,272.2622)">
               <path
                  d="m 0,0 c -4.174,2.797 -7.482,6.041 -7.976,11.334 -0.087,0.93 1.721,1.799 3.002,0.726 1.282,-1.074 3.074,-3.556 3.635,-5.452 0.257,0.658 0.048,1.892 0.332,2.476 0.283,0.584 0.516,1.452 1.535,0.369 C 1.547,8.369 2.64,4.966 2.879,3.114 1.954,2.018 0.946,1.078 0,0"
                  style="fill:#fab9b5;fill-opacity:1;fill-rule:nonzero;stroke:none" id="path342" />
            </g>
         </g>
      </g>
      <g id="g344">
         <g id="g346">
            <g id="g352">
               <g id="g354">
                  <path
                     d="m 255.17,284.706 c -0.004,-0.075 -0.022,-0.133 -0.053,-0.191 v 0 c -0.215,-0.434 -1.193,-0.741 -1.64,-0.794 v 0 l -2.247,1.06 -2.114,1.008 c 0,0 -3.844,-9.431 -4.429,-12.56 v 0 c -0.371,-1.849 -0.951,-3.674 -1.251,-5.541 v 0 c -0.405,-2.516 -0.062,-4.904 0.904,-7.25 v 0 c 1.176,-2.889 2.185,-6.184 2.341,-9.35 v 0 c 0.333,-6.79 -2.921,-12.664 -5.649,-18.696 v 0 c -2.41,-5.277 -3.999,-11.054 -3.999,-11.054 v 0 c 9.265,-3.629 19.634,-6.17 28.625,-4.523 v 0 c 3.32,0.608 6.432,1.789 9.254,3.71 v 0 c 0,0 -2.926,12.833 -6.153,22.539 v 0 c -0.531,1.552 -0.847,4.192 -0.677,5.828 v 0 c 0.529,5.341 3.147,9.125 4.081,14.238 v 0 c 0.809,4.392 -4.074,21.725 -4.118,21.727 v 0 c -0.163,0.008 -1.365,-0.615 -2.676,-1.069 v 0 c -0.8,-0.272 -1.64,-0.482 -2.322,-0.449 v 0 c -0.872,0.043 -0.737,0.674 -0.829,1.494 v 0 l -0.109,1.102 -7.008,0.093 z"
                     style="fill:url(#linearGradient362);stroke:none" id="path364" />
               </g>
            </g>
         </g>
      </g>
      <g id="g366">
         <g id="g368" clip-path="url(#clipPath372)">
            <g id="g374" transform="translate(258.4307,271.4556)">
               <path
                  d="m 0,0 c 0,0 -7.72,-0.243 -7.2,13.325 l 2.246,-1.059 c 0.447,0.052 1.426,0.359 1.64,0.794 0.032,0.058 0.049,0.116 0.053,0.19 l -0.068,1.322 7.007,-0.093 0.109,-1.102 c 0.093,-0.82 -0.042,-1.451 0.83,-1.494 0.681,-0.033 1.522,0.178 2.32,0.45 C 7.738,6.319 4.886,0.16 0,0"
                  style="fill:#fab9b5;fill-opacity:1;fill-rule:nonzero;stroke:none" id="path376" />
            </g>
            <g id="g378" transform="translate(255.17,284.7056)">
               <path d="M 0,0 C 3.127,-0.756 5.322,-0.18 6.931,1.236 L 6.552,6.54 -0.466,4.92 Z"
                  style="fill:#f7adab;fill-opacity:1;fill-rule:nonzero;stroke:none" id="path380" />
            </g>
            <g id="g382" transform="translate(270.1212,303.9976)">
               <path
                  d="m 0,0 c -0.474,0.043 -1.013,-0.126 -1.542,-0.432 -0.679,3.156 -2.336,6.52 -4.39,8.84 -0.861,1.151 -1.853,1.904 -2.935,2.36 -0.586,0.287 -1.179,0.481 -1.773,0.536 -0.408,0.037 -0.81,0.054 -1.209,0.051 -0.397,0.009 -0.8,-0.002 -1.209,-0.035 -0.594,-0.047 -1.19,-0.234 -1.778,-0.513 -1.088,-0.441 -2.088,-1.181 -2.962,-2.32 -2.08,-2.292 -3.776,-5.634 -4.49,-8.78 -0.526,0.313 -1.065,0.489 -1.538,0.452 -1.587,-0.126 -2.119,-2.609 -1.694,-4.496 0.541,-2.393 2.36,-3.154 4.048,-3.642 0.766,-1.585 1.854,-3.142 3.111,-4.445 1.315,-1.552 3.017,-2.707 4.964,-3.188 0.056,-0.015 0.114,-0.028 0.171,-0.041 0.114,-0.026 0.223,-0.06 0.338,-0.081 0.077,-0.015 0.157,-0.015 0.234,-0.025 0.065,-0.008 0.131,-0.013 0.197,-0.02 0.15,-0.013 0.301,-0.024 0.453,-0.024 0.152,-0.002 0.303,0.007 0.454,0.018 0.066,0.006 0.131,0.01 0.196,0.017 0.079,0.01 0.158,0.009 0.235,0.022 0.115,0.019 0.225,0.053 0.339,0.077 0.057,0.012 0.115,0.024 0.173,0.039 1.951,0.454 3.667,1.588 5,3.123 1.272,1.286 2.377,2.826 3.16,4.402 1.694,0.464 3.522,1.201 4.089,3.587 C 2.089,-2.637 1.585,-0.146 0,0"
                  style="fill:#fab9b5;fill-opacity:1;fill-rule:nonzero;stroke:none" id="path384" />
            </g>
            <g id="g386" transform="translate(253.5196,300.2466)">
               <path
                  d="m 0,0 c 0.033,-0.531 0.493,-0.936 1.027,-0.904 0.534,0.032 0.94,0.489 0.907,1.021 C 1.9,0.648 1.44,1.053 0.906,1.021 0.372,0.988 -0.034,0.531 0,0"
                  style="fill:#323bb4;fill-opacity:1;fill-rule:nonzero;stroke:none" id="path388" />
            </g>
            <g id="g390" transform="translate(261.3751,300.1943)">
               <path
                  d="M 0,0 C 0.034,-0.532 0.493,-0.936 1.027,-0.904 1.562,-0.872 1.968,-0.415 1.935,0.117 1.901,0.648 1.44,1.053 0.906,1.021 0.373,0.988 -0.033,0.531 0,0"
                  style="fill:#323bb4;fill-opacity:1;fill-rule:nonzero;stroke:none" id="path392" />
            </g>
            <g id="g394" transform="translate(252.5577,302.0684)">
               <path
                  d="M 0,0 C -0.01,0.003 -0.02,0.007 -0.029,0.011 -0.174,0.074 -0.239,0.242 -0.176,0.384 0.588,2.088 2.149,2.017 2.875,1.749 3.021,1.693 3.095,1.531 3.04,1.385 2.984,1.238 2.836,1.162 2.672,1.22 2.621,1.239 1.081,1.789 0.349,0.155 0.289,0.021 0.138,-0.043 0,0"
                  style="fill:#323bb4;fill-opacity:1;fill-rule:nonzero;stroke:none" id="path396" />
            </g>
            <g id="g398" transform="translate(260.8663,304.3848)">
               <path
                  d="M 0,0 C -0.006,0.008 -0.011,0.018 -0.016,0.026 -0.087,0.167 -0.03,0.336 0.111,0.406 1.795,1.243 2.957,0.207 3.346,-0.455 3.424,-0.59 3.376,-0.762 3.24,-0.839 3.104,-0.918 2.939,-0.884 2.85,-0.736 2.822,-0.689 1.984,0.702 0.369,-0.1 0.237,-0.165 0.079,-0.121 0,0"
                  style="fill:#323bb4;fill-opacity:1;fill-rule:nonzero;stroke:none" id="path400" />
            </g>
            <g id="g402" transform="translate(255.045,294.9404)">
               <path
                  d="M 0,0 C -0.007,0.011 -0.013,0.022 -0.019,0.033 -0.106,0.205 -0.037,0.413 0.137,0.499 2.203,1.526 3.63,0.254 4.107,-0.559 4.203,-0.724 4.145,-0.935 3.978,-1.03 3.81,-1.126 3.608,-1.084 3.498,-0.903 3.466,-0.846 2.436,0.863 0.453,-0.122 0.292,-0.202 0.097,-0.147 0,0"
                  style="fill:#323bb4;fill-opacity:1;fill-rule:nonzero;stroke:none" id="path404" />
            </g>
            <g id="g406" transform="translate(259.1944,296.2559)">
               <path
                  d="m 0,0 c -0.152,0.001 -0.275,0.124 -0.275,0.274 0.001,0.152 0.124,0.274 0.276,0.275 0.006,0 0.534,0.01 0.672,0.291 C 0.736,0.97 0.799,1.374 0.035,2.327 -0.06,2.446 -0.039,2.618 0.081,2.712 0.2,2.806 0.375,2.785 0.471,2.667 1.186,1.774 1.416,1.097 1.172,0.599 0.879,0.004 0.037,0 0.001,0 Z"
                  style="fill:#323bb4;fill-opacity:1;fill-rule:nonzero;stroke:none" id="path408" />
            </g>
            <g id="g410" transform="translate(269.4503,309.9414)">
               <path
                  d="m 0,0 c -0.735,3.247 -3.25,6.228 -6.691,7.397 -3.376,1.147 -7.723,0.909 -10.8,-0.86 -3.891,-2.236 -6.748,-7.809 -4.749,-12.29 0.64,-1.434 1.115,-3.545 2.252,-4.665 0.534,1.643 0.229,3.428 0.905,4.984 1.206,0.185 2.438,0.594 3.556,0.984 1.701,0.593 3.458,1.699 4.833,2.865 1.107,0.938 1.84,1.936 2.665,3.085 -0.652,-1.4 0.356,-4.024 1.326,-5.067 0.847,-0.911 2.142,-1.232 2.998,-2.188 0.733,-0.82 0.936,-1.826 0.978,-2.905 0.036,-0.887 -0.079,-1.77 -0.326,-2.596 0.085,0.283 0.657,0.714 0.843,0.979 0.288,0.408 0.532,0.848 0.747,1.298 0.438,0.92 0.767,1.913 0.984,2.906 C -0.079,-4.254 0.397,-1.755 0,0"
                  style="fill:#323bb4;fill-opacity:1;fill-rule:nonzero;stroke:none" id="path412" />
            </g>
         </g>
      </g>
      <g aria-label="OOPS!" transform="matrix(1,0,0,-1,197.8975,334.3359)" id="text416"
         style="font-weight:600;font-size:33.5607px;font-family:'Josefin Sans SemiBold';-inkscape-font-specification:JosefinSans-SemiBold;fill:#008da2">
         <path
            d="m 14.256742,-20.336342 q -2.884122,0 -4.473667,2.130318 -1.5895449,2.130318 -1.5895449,5.997664 0,3.8509593 1.5895449,5.9812771 1.589545,2.1303178 4.473667,2.1303178 2.90051,0 4.490055,-2.1303178 1.589545,-2.1303178 1.589545,-5.9812771 0,-3.867346 -1.589545,-5.997664 -1.589545,-2.130318 -4.490055,-2.130318 z m 0,-4.57199 q 5.899342,0 9.242302,3.375735 3.342961,3.375734 3.342961,9.324237 0,5.9321159 -3.342961,9.3078503 -3.34296,3.37573445 -9.242302,3.37573445 -5.8829542,0 -9.2423016,-3.37573445 -3.3429603,-3.3757344 -3.3429603,-9.3078503 0,-5.948503 3.3429603,-9.324237 3.3593474,-3.375735 9.2423016,-3.375735 z"
            id="path610" />
         <path
            d="m 42.951141,-20.336342 q -2.884122,0 -4.473667,2.130318 -1.589545,2.130318 -1.589545,5.997664 0,3.8509593 1.589545,5.9812771 1.589545,2.1303178 4.473667,2.1303178 2.90051,0 4.490055,-2.1303178 1.589545,-2.1303178 1.589545,-5.9812771 0,-3.867346 -1.589545,-5.997664 -1.589545,-2.130318 -4.490055,-2.130318 z m 0,-4.57199 q 5.899342,0 9.242302,3.375735 3.342961,3.375734 3.342961,9.324237 0,5.9321159 -3.342961,9.3078503 -3.34296,3.37573445 -9.242302,3.37573445 -5.882954,0 -9.242302,-3.37573445 -3.34296,-3.3757344 -3.34296,-9.3078503 0,-5.948503 3.34296,-9.324237 3.359348,-3.375735 9.242302,-3.375735 z"
            id="path612" />
         <path
            d="m 60.469565,-24.465881 h 10.471332 q 4.670312,0 7.161145,2.081157 2.50722,2.064769 2.50722,5.899341 0,3.85096 -2.50722,5.932116 -2.490833,2.0647698 -7.161145,2.0647698 H 66.778583 V 0 h -6.309018 z m 6.309018,4.57199 v 6.833404 h 3.490444 q 1.835351,0 2.834962,-0.884901 0.99961,-0.901289 0.99961,-2.539995 0,-1.638706 -0.99961,-2.523607 -0.999611,-0.884901 -2.834962,-0.884901 z"
            id="path614" />
         <path
            d="m 98.001309,-23.695689 v 5.178311 q -2.015608,-0.901288 -3.932894,-1.360126 -1.917286,-0.458838 -3.621541,-0.458838 -2.261414,0 -3.34296,0.622708 -1.081546,0.622709 -1.081546,1.933674 0,0.983223 0.721031,1.540383 0.737418,0.540773 2.654704,0.934063 l 2.687477,0.540773 q 4.080379,0.819353 5.80102,2.490833 1.720641,1.67148 1.720641,4.7522473 0,4.0476039 -2.408898,6.0304382 -2.39251,1.96644725 -7.325016,1.96644725 -2.326962,0 -4.670312,-0.44245063 -2.343349,-0.44245063 -4.686699,-1.31096482 v -5.3257946 q 2.34335,1.2454166 4.522829,1.8845119 2.195866,0.6227083 4.227861,0.6227083 2.06477,0 3.162703,-0.6882565 1.097933,-0.6882565 1.097933,-1.9664472 0,-1.1470943 -0.753805,-1.7698025 -0.737418,-0.6227083 -2.966058,-1.1143201 l -2.441672,-0.5407726 q -3.670701,-0.786579 -5.374956,-2.507221 -1.687867,-1.720641 -1.687867,-4.637538 0,-3.654314 2.359737,-5.620761 2.359737,-1.966448 6.784243,-1.966448 2.015608,0 4.145926,0.311355 2.130318,0.294967 4.408119,0.901288 z"
            id="path616" />
         <path
            d="m 102.1298,-24.465881 h 5.89934 v 9.389786 l -0.83574,6.8497907 h -4.22786 l -0.83574,-6.8497907 z m 0,18.6320875 h 5.89934 V 0 h -5.89934 z"
            id="path618" />
      </g>
      <g aria-label="We cant nd the page :(" transform="matrix(1,0,0,-1,159.4941,135.0186)" id="text420"
         style="font-size:16.0402px;font-family:'Josefin Sans';-inkscape-font-specification:JosefinSans-Regular;fill:#008da2">
         <path
            d="M 0.53258474,-11.693368 H 2.130339 l 2.4592883,9.8841463 2.4514563,-9.8841463 h 1.7778932 l 2.4592882,9.8841463 2.451456,-9.8841463 h 1.605587 L 12.39826,0 H 10.408899 L 7.9417784,-10.150439 5.4511615,0 H 3.4618008 Z"
            id="path621" />
         <path
            d="m 23.675523,-4.7462699 v 0.7048916 h -6.625981 q 0.09399,1.4881044 0.892863,2.2713172 0.806709,0.77538077 2.239988,0.77538077 0.830206,0 1.605587,-0.20363537 0.783213,-0.2036353 1.550761,-0.610906 v 1.36279037 q -0.775381,0.3289494 -1.589922,0.50125623 -0.814541,0.17230683 -1.652579,0.17230683 -2.09901,0 -3.328655,-1.22181206 -1.221812,-1.22181207 -1.221812,-3.30515827 0,-2.1538353 1.159155,-3.414808 1.166987,-1.2688049 3.140684,-1.2688049 1.770061,0 2.79607,1.1434908 1.033841,1.1356587 1.033841,3.0936908 z m -1.441112,-0.4229349 q -0.01566,-1.1826515 -0.665731,-1.887543 -0.642234,-0.7048916 -1.707404,-0.7048916 -1.206148,0 -1.934536,0.6813952 -0.720555,0.6813952 -0.830205,1.9188715 z"
            id="path623" />
         <path
            d="m 35.894647,-8.4352025 v 1.3471262 q -0.610906,-0.3367816 -1.229644,-0.5012563 -0.610906,-0.1723068 -1.237476,-0.1723068 -1.401951,0 -2.177332,0.8928627 -0.775381,0.8850305 -0.775381,2.4906168 0,1.6055864 0.775381,2.498449 0.775381,0.88503057 2.177332,0.88503057 0.62657,0 1.237476,-0.16447467 0.618738,-0.1723069 1.229644,-0.5090884 v 1.33146187 q -0.603074,0.28195663 -1.25314,0.42293494 -0.642235,0.14097832 -1.370623,0.14097832 -1.981529,0 -3.148516,-1.24530843 -1.166987,-1.2453085 -1.166987,-3.3599832 0,-2.1460032 1.174819,-3.3756474 1.182652,-1.2296442 3.23467,-1.2296442 0.66573,0 1.300133,0.1409784 0.634402,0.1331461 1.229644,0.4072706 z"
            id="path625" />
         <path
            d="m 40.882836,-4.4094884 q -1.746565,0 -2.420128,0.3994386 -0.673563,0.3994385 -0.673563,1.3627903 0,0.7675486 0.501256,1.2218121 0.509089,0.44643133 1.378455,0.44643133 1.198316,0 1.918872,-0.84586993 0.728387,-0.853702 0.728387,-2.2634851 v -0.3211173 z m 2.874391,-0.5952417 V 0 h -1.441112 v -1.3314619 q -0.493424,0.79887716 -1.229644,1.18265146 -0.73622,0.37594217 -1.801389,0.37594217 -1.347126,0 -2.146004,-0.75188434 -0.791044,-0.75971649 -0.791044,-2.02852129 0,-1.4802723 0.986848,-2.2321566 0.99468,-0.7518844 2.960544,-0.7518844 h 2.020689 v -0.1409783 q 0,-0.9946803 -0.657898,-1.5350972 -0.650067,-0.548249 -1.832718,-0.548249 -0.751885,0 -1.464608,0.180139 -0.712724,0.1801389 -1.370623,0.5404168 v -1.3314618 q 0.791045,-0.305453 1.535097,-0.4542635 0.744052,-0.1566426 1.448944,-0.1566426 1.903207,0 2.843063,0.9868482 0.939855,0.9868482 0.939855,2.9918732 z"
            id="path627" />
         <path
            d="M 53.60359,-5.2945189 V 0 h -1.441111 v -5.2475261 q 0,-1.2453085 -0.485592,-1.8640466 -0.485592,-0.6187382 -1.456776,-0.6187382 -1.166987,0 -1.840551,0.7440522 -0.673563,0.7440522 -0.673563,2.0285213 V 0 h -1.448943 v -8.771984 h 1.448943 v 1.3627904 q 0.516921,-0.791045 1.21398,-1.1826514 0.704892,-0.3916065 1.621251,-0.3916065 1.511601,0 2.286981,0.9398555 0.775381,0.9320233 0.775381,2.7490771 z"
            id="path629" />
         <path d="m 58.769225,-12.829027 h 1.558594 l -2.553274,2.9448808 h -1.198316 z" id="path631" />
         <path
            d="m 61.034651,-11.262601 v 2.490617 h 2.968377 v 1.1199944 h -2.968377 v 4.7619342 q 0,1.0730016 0.289789,1.3784546 0.297621,0.305453 1.198315,0.305453 h 1.480273 V 0 H 62.522755 Q 60.854512,0 60.22011,-0.61873816 59.585707,-1.2453084 59.585707,-2.8900554 V -7.6519896 H 58.52837 V -8.771984 h 1.057337 v -2.490617 z"
            id="path633" />
         <path
            d="M 77.540458,-8.771984 V 0 H 76.091514 V -7.6519896 H 72.136289 V 0 H 70.687345 V -7.6519896 H 69.308891 V -8.771984 h 1.378454 V -9.38289 q 0,-1.43328 0.673563,-2.114675 0.681396,-0.689227 2.083347,-0.689227 h 1.448943 v 1.198316 h -1.378454 q -0.775381,0 -1.080834,0.313285 -0.297621,0.313285 -0.297621,1.1278263 v 0.7753807 z m -1.448944,-3.399144 h 1.448944 v 1.824886 h -1.448944 z"
            id="path635" />
         <path
            d="M 87.047407,-5.2945189 V 0 h -1.441111 v -5.2475261 q 0,-1.2453085 -0.485592,-1.8640466 -0.485592,-0.6187382 -1.456776,-0.6187382 -1.166987,0 -1.84055,0.7440522 -0.673563,0.7440522 -0.673563,2.0285213 V 0 h -1.448944 v -8.771984 h 1.448944 v 1.3627904 q 0.51692,-0.791045 1.213979,-1.1826514 0.704892,-0.3916065 1.621251,-0.3916065 1.511601,0 2.286982,0.9398555 0.77538,0.9320233 0.77538,2.7490771 z"
            id="path637" />
         <path
            d="m 94.398206,-7.4405221 v -4.7462699 h 1.441112 V 0 h -1.441112 v -1.3157976 q -0.454263,0.78321286 -1.151323,1.16698716 -0.689227,0.37594217 -1.660411,0.37594217 -1.589922,0 -2.592435,-1.26880483 -0.99468,-1.2688048 -0.99468,-3.3364868 0,-2.0676819 0.99468,-3.3364867 1.002513,-1.2688049 2.592435,-1.2688049 0.971184,0 1.660411,0.3837743 0.69706,0.3759422 1.151323,1.1591551 z m -4.910745,3.0623622 q 0,1.5899221 0.650067,2.498449 0.657899,0.90069483 1.80139,0.90069483 1.14349,0 1.801389,-0.90069483 0.657899,-0.9085269 0.657899,-2.498449 0,-1.5899221 -0.657899,-2.4906168 -0.657899,-0.908527 -1.801389,-0.908527 -1.143491,0 -1.80139,0.908527 -0.650067,0.9006947 -0.650067,2.4906168 z"
            id="path639" />
         <path
            d="m 104.63192,-11.262601 v 2.490617 h 2.96837 v 1.1199944 h -2.96837 v 4.7619342 q 0,1.0730016 0.28979,1.3784546 0.29762,0.305453 1.19831,0.305453 h 1.48027 V 0 h -1.48027 q -1.66824,0 -2.30264,-0.61873816 -0.63441,-0.62657024 -0.63441,-2.27131724 v -4.7619342 h -1.05733 V -8.771984 h 1.05733 v -2.490617 z"
            id="path641" />
         <path
            d="M 116.27265,-5.2945189 V 0 h -1.44111 v -5.2475261 q 0,-1.2453085 -0.48559,-1.8640466 -0.4856,-0.6187382 -1.45678,-0.6187382 -1.16699,0 -1.84055,0.7440522 -0.67356,0.7440522 -0.67356,2.0285213 V 0 h -1.44895 v -12.186792 h 1.44895 v 4.7775984 q 0.51692,-0.791045 1.21398,-1.1826514 0.70489,-0.3916065 1.62125,-0.3916065 1.5116,0 2.28698,0.9398555 0.77538,0.9320233 0.77538,2.7490771 z"
            id="path643" />
         <path
            d="m 125.35435,-4.7462699 v 0.7048916 h -6.62598 q 0.094,1.4881044 0.89286,2.2713172 0.80671,0.77538077 2.23999,0.77538077 0.83021,0 1.60559,-0.20363537 0.78321,-0.2036353 1.55076,-0.610906 v 1.36279037 q -0.77538,0.3289494 -1.58992,0.50125623 -0.81455,0.17230683 -1.65258,0.17230683 -2.09901,0 -3.32866,-1.22181206 -1.22181,-1.22181207 -1.22181,-3.30515827 0,-2.1538353 1.15915,-3.414808 1.16699,-1.2688049 3.14069,-1.2688049 1.77006,0 2.79607,1.1434908 1.03384,1.1356587 1.03384,3.0936908 z m -1.44111,-0.4229349 q -0.0157,-1.1826515 -0.66573,-1.887543 -0.64224,-0.7048916 -1.70741,-0.7048916 -1.20615,0 -1.93453,0.6813952 -0.72056,0.6813952 -0.83021,1.9188715 z"
            id="path645" />
         <path
            d="m 132.6549,-1.3157976 v 4.6522844 h -1.44895 V -8.771984 h 1.44895 v 1.3314619 q 0.45426,-0.7832129 1.14349,-1.1591551 0.69706,-0.3837743 1.66041,-0.3837743 1.59775,0 2.59243,1.2688049 1.00251,1.2688048 1.00251,3.3364867 0,2.067682 -1.00251,3.3364868 -0.99468,1.26880483 -2.59243,1.26880483 -0.96335,0 -1.66041,-0.37594217 -0.68923,-0.3837743 -1.14349,-1.16698716 z m 4.90291,-3.0623623 q 0,-1.5899221 -0.6579,-2.4906168 -0.65007,-0.908527 -1.79356,-0.908527 -1.14349,0 -1.80139,0.908527 -0.65006,0.9006947 -0.65006,2.4906168 0,1.5899221 0.65006,2.498449 0.6579,0.90069483 1.80139,0.90069483 1.14349,0 1.79356,-0.90069483 0.6579,-0.9085269 0.6579,-2.498449 z"
            id="path647" />
         <path
            d="m 144.75917,-4.4094884 q -1.74656,0 -2.42013,0.3994386 -0.67356,0.3994385 -0.67356,1.3627903 0,0.7675486 0.50126,1.2218121 0.50908,0.44643133 1.37845,0.44643133 1.19832,0 1.91887,-0.84586993 0.72839,-0.853702 0.72839,-2.2634851 v -0.3211173 z m 2.87439,-0.5952417 V 0 h -1.44111 v -1.3314619 q -0.49342,0.79887716 -1.22964,1.18265146 -0.73622,0.37594217 -1.80139,0.37594217 -1.34713,0 -2.14601,-0.75188434 -0.79104,-0.75971649 -0.79104,-2.02852129 0,-1.4802723 0.98685,-2.2321566 0.99468,-0.7518844 2.96054,-0.7518844 h 2.02069 v -0.1409783 q 0,-0.9946803 -0.6579,-1.5350972 -0.65006,-0.548249 -1.83272,-0.548249 -0.75188,0 -1.4646,0.180139 -0.71273,0.1801389 -1.37063,0.5404168 v -1.3314618 q 0.79105,-0.305453 1.5351,-0.4542635 0.74405,-0.1566426 1.44894,-0.1566426 1.90321,0 2.84307,0.9868482 0.93985,0.9868482 0.93985,2.9918732 z"
            id="path649" />
         <path
            d="m 155.9605,-4.4878097 q 0,-1.5664257 -0.65007,-2.4279598 -0.64223,-0.8615342 -1.80922,-0.8615342 -1.15915,0 -1.80922,0.8615342 -0.64223,0.8615341 -0.64223,2.4279598 0,1.5585936 0.64223,2.4201278 0.65007,0.8615341 1.80922,0.8615341 1.16699,0 1.80922,-0.8615341 0.65007,-0.8615342 0.65007,-2.4201278 z m 1.44111,3.3991438 q 0,2.2399888 -0.99468,3.3286547 -0.99468,1.096498 -3.0467,1.096498 -0.75971,0 -1.43328,-0.117482 -0.67356,-0.1096498 -1.30796,-0.3446136 v -1.401951 q 0.6344,0.3446136 1.25314,0.5090883 0.61874,0.1644747 1.26097,0.1644747 1.41762,0 2.12251,-0.7440522 0.70489,-0.73622007 0.70489,-2.23215663 V -1.5429293 q -0.44643,0.7753807 -1.14349,1.159155 Q 154.11995,0 153.14877,0 q -1.61342,0 -2.60027,-1.2296442 -0.98685,-1.2296442 -0.98685,-3.2581655 0,-2.0363534 0.98685,-3.2659976 0.98685,-1.2296442 2.60027,-1.2296442 0.97118,0 1.66824,0.3837743 0.69706,0.3837743 1.14349,1.1591551 V -8.771984 h 1.44111 z"
            id="path651" />
         <path
            d="m 167.29948,-4.7462699 v 0.7048916 h -6.62598 q 0.094,1.4881044 0.89286,2.2713172 0.80671,0.77538077 2.23999,0.77538077 0.8302,0 1.60559,-0.20363537 0.78321,-0.2036353 1.55076,-0.610906 v 1.36279037 q -0.77538,0.3289494 -1.58993,0.50125623 -0.81454,0.17230683 -1.65257,0.17230683 -2.09901,0 -3.32866,-1.22181206 -1.22181,-1.22181207 -1.22181,-3.30515827 0,-2.1538353 1.15915,-3.414808 1.16699,-1.2688049 3.14069,-1.2688049 1.77006,0 2.79607,1.1434908 1.03384,1.1356587 1.03384,3.0936908 z m -1.44111,-0.4229349 q -0.0157,-1.1826515 -0.66573,-1.887543 -0.64224,-0.7048916 -1.70741,-0.7048916 -1.20615,0 -1.93453,0.6813952 -0.72056,0.6813952 -0.83021,1.9188715 z"
            id="path653" />
         <path d="m 173.57402,-1.9893607 h 1.65258 V 0 h -1.65258 z m 0,-6.3048634 h 1.65258 v 1.9893606 h -1.65258 z"
            id="path655" />
         <path
            d="m 179.52286,-12.171128 q -1.04951,1.80139 -1.5586,3.5636187 -0.50909,1.7622289 -0.50909,3.5714506 0,1.8092217 0.50909,3.5871149 0.51692,1.77006107 1.5586,3.5636185 h -1.25315 q -1.17481,-1.8405502 -1.76222,-3.6184434 -0.57958,-1.7778932 -0.57958,-3.53229 0,-1.7465646 0.57958,-3.5166257 0.57957,-1.7700606 1.76222,-3.6184436 z"
            id="path657" />
      </g>
      <g id="g422">
         <g id="g424">
            <g id="g430">
               <g id="g432">
                  <path
                     d="m 346.888,201.929 -6.838,-17.3 66.652,-8.378 -4.674,-14.751 -1.883,-5.913 33.688,-3.206 6.649,19.472 15.892,-0.816 7.372,21.303 -11.241,1.3 -6.074,0.71 19.336,60.567 -46.05,3.897 z m 55.245,-2.159 -17.891,2.12 41.058,33.244 -7.551,-22.716 -4.638,-13.945 z"
                     style="fill:url(#linearGradient442);stroke:none" id="path444" />
               </g>
            </g>
         </g>
      </g>
      <g id="g446">
         <g id="g448">
            <g id="g454">
               <g id="g456">
                  <path
                     d="m 446.431,194.35 6.074,-0.71 14.613,45.771 -1.351,15.506 z m -62.189,7.54 17.891,-2.12 15.616,12.648 7.551,22.716 z m 72.132,-30.853 -15.892,0.816 -6.649,-19.472 -33.688,3.206 1.351,-15.505 33.688,-3.207 6.649,19.473 15.893,-0.817 7.372,21.303 -1.352,15.506 z m -114.973,-1.914 60.627,-7.623 4.674,14.751 -66.652,8.378 z"
                     style="fill:url(#linearGradient466);stroke:none" id="path468" />
               </g>
            </g>
         </g>
      </g>
      <g id="g470">
         <g id="g472">
            <g id="g478">
               <g id="g480">
                  <path
                     d="m 30.81,203.368 -5.629,-17.73 67.071,-3.762 -3.645,-15.039 -1.473,-6.028 33.83,-0.876 5.29,19.884 15.911,0.282 5.886,21.759 -11.304,0.524 -6.108,0.289 15.113,61.756 -46.209,0.712 z m 55.262,1.656 -17.994,0.881 38.669,35.995 -5.969,-23.182 -3.664,-14.232 z"
                     style="fill:url(#linearGradient490);stroke:none" id="path492" />
               </g>
            </g>
         </g>
      </g>
      <g id="g494">
         <g id="g496">
            <g id="g502">
               <g id="g504">
                  <path
                     d="m 130.639,202.671 6.108,-0.289 11.422,46.67 -2.417,15.375 z m -62.561,3.234 17.994,-0.881 14.706,13.694 5.969,23.182 z m 74.087,-25.806 -15.911,-0.282 -5.29,-19.884 -33.83,0.876 2.418,-15.375 33.83,-0.878 5.29,19.886 15.91,0.281 5.885,21.761 -2.416,15.374 z m -114.567,-9.837 61.009,-3.425 3.645,15.039 -67.071,3.762 z"
                     style="fill:url(#linearGradient514);stroke:none" id="path516" />
               </g>
            </g>
         </g>
      </g>
   </g>
</svg>