<svg id="SvgjsSvg1110" width="550" height="550" xmlns="http://www.w3.org/2000/svg" version="1.1"
    xmlns:xlink="http://www.w3.org/1999/xlink" xmlns:svgjs="http://svgjs.com/svgjs">
    <defs id="SvgjsDefs1111"></defs>
    <g id="SvgjsG1112"><svg xmlns="http://www.w3.org/2000/svg" enable-background="new 0 0 300 300"
            viewBox="9.192 30.813 281.771 238.512" width="550" height="550">
            <path fill="#f3f1fc"
                d="M277.8 165.4c0 .3 0 .6-.1 1-.3 7.1-1.1 14.2-2.2 21.2-.1.7-.2 1.3-.3 2 0 .3-.1.6-.2 1-.1.7-.3 1.5-.4 2.2-1.3 7.1-2.9 14.1-4.8 21-.1.3-.2.6-.3 1-.2.8-.5 1.7-.7 2.5-1.9 6.6-4.3 13.4-7.8 19.4-.3.6-.7 1.2-1.1 1.8H32.4c-.7-.6-1.5-1.2-2.1-1.8-3.9-3.6-6.9-8.1-7.9-13-.4-1.8-.5-3.6-.3-5.4l.3-2.1c1.9-9 10-15.7 16.1-23.4 1.3-1.7 2.6-3.4 3.6-5.1.5-.8.9-1.6 1.3-2.5 2.8-5.9 3.2-12.3 2.4-18.7-.2-1.6-.5-3.2-.8-4.7-.6-3-1.5-5.9-2.4-8.8-.8-2.5-1.8-5.1-2.7-7.6-2.9-7.9-5.9-15.9-6.4-24.2-1.5-21.9 16-43.5 38.8-48 13.5-2.7 27.4.1 40.9 2.5s27.8 4.2 40.8 0c6.6-2.2 12.6-6.3 16.7-11.7 1.9-2.6 3.5-5.4 4.3-8.5.7-2.4-.4-7.1.6-9 2.8-5 15.2-5.1 20.1-4.7 7.1.6 14.1 2.9 20.3 6 19.1 9.5 34.2 24.8 44.6 42.7.5.8 1 1.7 1.4 2.5.2.3.3.6.5.8l.1.1c4 7.4 7.2 15.2 9.5 23.2.1.3.2.6.3 1 .2.6.4 1.3.5 1.9.3 1 .5 1.9.7 2.9 1.5 6.1 2.5 12.2 3.2 18.4 0 .3.1.6.1 1 1.1 7.6 1.3 15.3.9 23.1z"
                class="colorf3f1fc svgShape"></path>
            <path fill="#d0cef2"
                d="M45.1 161.6c.3 1.6.6 3.2.8 4.7.8 6.4.3 12.8-2.4 18.7-.4.9-.9 1.7-1.3 2.5h233.4c1.1-7 1.9-14.1 2.3-21.2 0-.3 0-.6.1-1 .3-7.8.2-15.5-.6-23.2 0-.3-.1-.6-.1-1-.6-6.2-1.7-12.3-3.2-18.4-.2-1-.5-1.9-.7-2.9h-12.5c-.8 0-1.5.7-1.5 1.5V148c0 1.6-1.3 2.9-2.9 2.9h-12.9c-1.6 0-2.9-1.3-2.9-2.9v-32c0-.8-.7-1.5-1.5-1.5h-5.3c-.8 0-1.5.7-1.5 1.5v22.9c0 1.6-1.3 2.9-2.9 2.9h-23.2c-1.6 0-2.9-1.3-2.9-2.9v-28c0-.8-.7-1.5-1.5-1.5h-32.4c-.8 0-1.5.7-1.5 1.5v16.3c0 1.6-1.3 2.9-2.9 2.9h-18.3c-1.6 0-2.9-1.3-2.9-2.9v-15.8c0-.8-.7-1.5-1.5-1.5h-2.7c-.8 0-1.5.7-1.5 1.5v30.9c0 1.6-1.3 2.9-2.9 2.9h-5.1c-1.6 0-2.9-1.3-2.9-2.9v-12.7c0-1.2-1-2.2-2.2-2.2h-14.5c-1.2 0-2.2 1-2.2 2.2v17.6c0 1.6-1.3 2.9-2.9 2.9h-8.3c-1.6 0-2.9-1.3-2.9-2.9V110c0-.8-.7-1.5-1.5-1.5h-20c-.8 0-1.5.7-1.5 1.5v32.2c0 1.6-1.3 2.9-2.9 2.9H40c.9 2.5 1.8 5 2.7 7.6.9 3 1.7 5.9 2.4 8.9z"
                class="colord0cef2 svgShape"></path>
            <path fill="#ffffff"
                d="M67.6 74.3v164.1h-5.1V76.2c1.6-.7 3.3-1.4 5.1-1.9zM114.9 190.1V75.8c-.5-.1-1-.2-1.6-.3l-3.6-.6v115.2h5.2z"
                class="colorfff svgShape"></path>
            <path fill="#ffffff"
                d="M275.5 187.5c-.1.7-.2 1.3-.3 2 0 .3-.1.6-.2 1-.1.7-.3 1.5-.4 2.2H38.5c1.3-1.7 2.6-3.4 3.6-5.1h233.4z"
                class="colorfff svgShape"></path>
            <path fill="#ffffff" d="M209.5 190.2V44.8c-1.7-.6-3.4-1.2-5.1-1.6v147h5.1z" class="colorfff svgShape">
            </path>
            <path fill="#e2dff4"
                d="M259.7 238.3c-.3.6-.7 1.2-1.1 1.8-3.1 5-7.1 9.3-12.3 12.3-8.6 5-19.2 5.5-29.3 5.8-50.1 1.2-100.3-1.4-149.9-7.8-9.8-1.3-19.8-2.8-28.3-7.5-1.4-.8-2.8-1.7-4.1-2.7l-2.1-1.8h227.1z"
                class="colore2dff4 svgShape"></path>
            <path fill="#f3f1fc"
                d="M141.6 57.2c-2.8-3.1-7.2-4.8-11.4-4.3-3.5.5-6.7 2.3-10.2 2.2-2.9-.1-5.6-1.4-8-3.1-2.4-1.7-4.5-3.6-7-5.1-2.5-1.5-5.4-2.5-8.3-2.1-2.3.4-4.4 1.7-6 3.4-1.5 1.6-4.8 5.7-4.3 8.9h55.2z"
                class="colorf3f1fc svgShape"></path>
            <path fill="#ffffff"
                d="M114.2 87.9c-2-2.2-5.1-3.4-8-3-2.4.3-4.7 1.6-7.2 1.6-2 0-4-1-5.6-2.2-1.7-1.2-3.2-2.6-5-3.6-1.7-1.1-3.8-1.8-5.8-1.5-1.6.3-3.1 1.2-4.2 2.4-1.1 1.1-3.4 4-3 6.3h38.8zM193.8 53.6c-.3-2.4 1.3-6.1 3-6.5 1.7-.4 3.4.5 4.9 1.6 1.5 1.1 3 2.3 4.7 2.6 3.9.7 7.4-3.6 11.3-3.8 4.4-.3 8.6 4.8 12.9 3.3 1.9-.7 3.7-2.6 5.7-2.3 2 .3 3.4 2.8 4.6 5.1h-47.1zM252 80.4v144.5c0 4.7-3.8 8.5-8.5 8.5h-76.9c-4.7 0-8.5-3.8-8.5-8.5V80.4c0-4.7 3.8-8.5 8.5-8.5h76.9c4.7 0 8.5 3.8 8.5 8.5z"
                class="colorfff svgShape"></path>
            <linearGradient id="a" x1="158.112" x2="251.98" y1="224.036" y2="224.036" gradientUnits="userSpaceOnUse">
                <stop offset="0" stop-color="#57b3fe" class="stopColor57b3fe svgShape"></stop>
                <stop offset="1" stop-color="#497bfe" class="stopColor497bfe svgShape"></stop>
            </linearGradient>
            <path fill="url(#a)" d="M158.1 214.7v10.1c0 4.7 3.8 8.5 8.5 8.5h76.9c4.7 0 8.5-3.8 8.5-8.5v-10.1h-93.9z">
            </path>
            <linearGradient id="b" x1="187.885" x2="222.208" y1="76.451" y2="76.451" gradientUnits="userSpaceOnUse">
                <stop offset="0" stop-color="#57b3fe" class="stopColor57b3fe svgShape"></stop>
                <stop offset="1" stop-color="#497bfe" class="stopColor497bfe svgShape"></stop>
            </linearGradient>
            <path fill="url(#b)" d="M222.2 71.9v6.4c0 1.5-1.2 2.8-2.8 2.8h-28.8c-1.5 0-2.8-1.2-2.8-2.8v-6.4h34.4z">
            </path>
            <path fill="#ffffff"
                d="M215.2 76.5c0 .6-.5 1.1-1.1 1.1h-11.6c-.6 0-1.1-.5-1.1-1.1 0-.6.5-1.1 1.1-1.1h11.6c.6-.1 1.1.4 1.1 1.1zM197.9 76.5c0 .6-.5 1.1-1.1 1.1h-.8c-.6 0-1.1-.5-1.1-1.1 0-.6.5-1.1 1.1-1.1h.7c.7-.1 1.2.4 1.2 1.1z"
                class="colorfff svgShape"></path>
            <path fill="#ebf4fe"
                d="M247.6 78.9c0 1.8-1.4 3.2-3.2 3.2-1.8 0-3.2-1.4-3.2-3.2 0-1.8 1.4-3.2 3.2-3.2 1.8 0 3.2 1.5 3.2 3.2z"
                class="colorebf4fe svgShape"></path>
            <linearGradient id="c" x1="243.078" x2="245.714" y1="78.948" y2="78.948" gradientUnits="userSpaceOnUse">
                <stop offset="0" stop-color="#57b3fe" class="stopColor57b3fe svgShape"></stop>
                <stop offset="1" stop-color="#497bfe" class="stopColor497bfe svgShape"></stop>
            </linearGradient>
            <path fill="url(#c)"
                d="M245.4 80.3c-.1 0-.2 0-.2-.1l-2-2c-.1-.1-.1-.3 0-.5.1-.1.3-.1.5 0l2 2c.1.1.1.3 0 .5-.2 0-.2.1-.3.1z">
            </path>
            <linearGradient id="d" x1="243.078" x2="245.714" y1="78.948" y2="78.948" gradientUnits="userSpaceOnUse">
                <stop offset="0" stop-color="#57b3fe" class="stopColor57b3fe svgShape"></stop>
                <stop offset="1" stop-color="#497bfe" class="stopColor497bfe svgShape"></stop>
            </linearGradient>
            <path fill="url(#d)"
                d="M243.4 80.3c-.1 0-.2 0-.2-.1-.1-.1-.1-.3 0-.5l2-2c.1-.1.3-.1.5 0 .1.1.1.3 0 .5l-2 2c-.1 0-.2.1-.3.1z">
            </path>
            <path fill="#ebf4fe"
                d="M171.6 77.5h-8.3c-.2 0-.3-.1-.3-.3s.1-.3.3-.3h8.3c.2 0 .3.1.3.3s-.1.3-.3.3zM171.6 80h-8.3c-.2 0-.3-.1-.3-.3 0-.2.1-.3.3-.3h8.3c.2 0 .3.1.3.3.1.2-.1.3-.3.3zM171.6 82.5h-8.3c-.2 0-.3-.1-.3-.3 0-.2.1-.3.3-.3h8.3c.2 0 .3.1.3.3.1.1-.1.3-.3.3z"
                class="colorebf4fe svgShape"></path>
            <path fill="#ffffff"
                d="M213.1 223.4c0 1.3-1 2.3-2.3 2.3h-8.9c-1.3 0-2.3-1-2.3-2.3 0-1.3 1-2.3 2.3-2.3h8.9c1.2 0 2.3 1.1 2.3 2.3z"
                class="colorfff svgShape"></path>
            <path fill="#fee1bc"
                d="M105.4 153.9c-.1.2-.2.4-.1.5.1.1.3.2.4.2.5.1 1 .1 1.4-.2.3-.2.4-.5.4-.9v-1c0-.3-.1-.6-.4-.7-.3-.1-.7.3-.9.5-.3.6-.6 1.1-.8 1.6z"
                class="colorfee1bc svgShape"></path>
            <path fill="#ffd475"
                d="M169.6 90.1c0 .1-.1.2-.2.2-.9 0-1.6.7-1.6 1.6 0 .1-.1.2-.2.2s-.2-.1-.2-.2c0-.4-.2-.8-.5-1.1-.3-.3-.7-.5-1.1-.5-.1 0-.2-.1-.2-.2s.1-.2.2-.2c.4 0 .8-.2 1.1-.5.3-.3.5-.7.5-1.1 0-.1.1-.2.2-.2s.2.1.2.2c0 .4.2.8.5 1.1.3.3.7.5 1.1.5.1 0 .2.1.2.2zM264.7 112.4c0 .1-.1.3-.3.3-1.1 0-2 .9-2 2 0 .1-.1.3-.3.3s-.3-.1-.3-.3c0-.5-.2-1-.6-1.4-.4-.4-.9-.6-1.4-.6-.1 0-.3-.1-.3-.3 0-.1.1-.3.3-.3.5 0 1-.2 1.4-.6.4-.4.6-.9.6-1.4 0-.1.1-.3.3-.3s.3.1.3.3c0 .5.2 1 .6 1.4.4.4.9.6 1.4.6.2 0 .3.1.3.3z"
                class="colorffd475 svgShape"></path>
            <linearGradient id="e" x1="167.185" x2="172.305" y1="201.149" y2="201.149" gradientUnits="userSpaceOnUse">
                <stop offset="0" stop-color="#88cfff" class="stopColor88cfff svgShape"></stop>
                <stop offset="1" stop-color="#a9e0ff" class="stopColora9e0ff svgShape"></stop>
            </linearGradient>
            <path fill="url(#e)"
                d="m169.6 198.6 2.6 3.3c.2.2.1.5-.1.7l-1.5 1.2c-.2.2-.5.1-.7-.1l-2.6-3.3c-.2-.2-.1-.5.1-.7l1.5-1.2c.2-.2.5-.1.7.1z">
            </path>
            <path fill="#f45170" d="m245.3 96.3-3.3 2.3c-.2.1-.5 0-.5-.3l.7-5.2c0-.2.3-.3.5-.2l2.6 2.9c.2.2.2.4 0 .5z"
                class="colorf45170 svgShape"></path>
            <path fill="#f3f1fc"
                d="M184.4 164.2v14.3c0 .9-.7 1.5-1.5 1.5h-10.5c-.9 0-1.5-.7-1.5-1.5v-14.3c0-.9.7-1.5 1.5-1.5h10.5c.9 0 1.5.7 1.5 1.5z"
                class="colorf3f1fc svgShape"></path>
            <path fill="#d0cef2" d="M174.7 166.5h5.9v9.7h-5.9z" class="colord0cef2 svgShape"></path>
            <path fill="#f3f1fc"
                d="M202.7 164.2v14.3c0 .9-.7 1.5-1.5 1.5h-10.5c-.9 0-1.5-.7-1.5-1.5v-14.3c0-.9.7-1.5 1.5-1.5h10.5c.8 0 1.5.7 1.5 1.5z"
                class="colorf3f1fc svgShape"></path>
            <path fill="#d0cef2" d="M193 166.5h5.9v9.7H193z" class="colord0cef2 svgShape"></path>
            <path fill="#f3f1fc"
                d="M221 164.2v14.3c0 .9-.7 1.5-1.5 1.5H209c-.9 0-1.5-.7-1.5-1.5v-14.3c0-.9.7-1.5 1.5-1.5h10.5c.8 0 1.5.7 1.5 1.5z"
                class="colorf3f1fc svgShape"></path>
            <path fill="#d0cef2" d="M211.2 166.5h5.9v9.7h-5.9z" class="colord0cef2 svgShape"></path>
            <path fill="#f3f1fc"
                d="M239.2 164.2v14.3c0 .9-.7 1.5-1.5 1.5h-10.5c-.9 0-1.5-.7-1.5-1.5v-14.3c0-.9.7-1.5 1.5-1.5h10.5c.9 0 1.5.7 1.5 1.5z"
                class="colorf3f1fc svgShape"></path>
            <path fill="#d0cef2" d="M229.5 166.5h5.9v9.7h-5.9z" class="colord0cef2 svgShape"></path>
            <path fill="#f45170"
                d="M225.1 193v11.5c0 1-.8 1.9-1.9 1.9h-37.4c-1 0-1.9-.8-1.9-1.9V193c0-1 .8-1.9 1.9-1.9h37.4c1.1.1 1.9.9 1.9 1.9z"
                class="colorf45170 svgShape"></path>
            <path fill="#db2157"
                d="M197.2 196c.2 0 .3-.1.5-.2.1-.1.2-.3.2-.5s-.1-.3-.2-.5c-.1-.1-.3-.2-.5-.2h-4.4c-.2 0-.4.1-.5.2-.1.1-.2.3-.2.5v6.7c0 .2.1.4.2.5.1.1.3.2.5.2h4.4c.2 0 .3-.1.5-.2.1-.1.2-.3.2-.5s-.1-.3-.2-.5c-.1-.1-.3-.2-.5-.2h-3.7v-2.1h3.3c.2 0 .3-.1.5-.2.1-.1.2-.3.2-.5s-.1-.3-.2-.5c-.1-.1-.3-.2-.5-.2h-3.3v-2h3.7zM201.9 196.6c-.6 0-1.1.2-1.6.7 0-.2-.1-.3-.2-.4-.3-.3-.7-.3-1 0-.1.1-.2.3-.2.5v4.7c0 .2.1.4.2.5.1.1.3.2.5.2s.4-.1.5-.2c.1-.1.2-.3.2-.5v-3.3c.2-.3.4-.5.6-.6.3-.2.6-.2.9-.2h.1c.2 0 .4-.1.5-.2.1-.1.2-.3.2-.5s-.1-.4-.2-.5c-.2-.1-.4-.2-.5-.2zM206.1 196.6c-.6 0-1.1.2-1.6.7 0-.2-.1-.3-.2-.4-.3-.3-.7-.3-1 0-.1.1-.2.3-.2.5v4.7c0 .2.1.4.2.5.1.1.3.2.5.2s.4-.1.5-.2c.1-.1.2-.3.2-.5v-3.3c.2-.3.4-.5.6-.6.3-.2.6-.2.9-.2h.1c.2 0 .4-.1.5-.2.1-.1.2-.3.2-.5s-.1-.4-.2-.5c-.2-.1-.3-.2-.5-.2zM211.4 197c-.5-.3-1-.4-1.6-.4-.6 0-1.1.1-1.6.4-.5.3-.8.6-1.1 1.1-.2.5-.4 1-.4 1.6s.1 1.1.4 1.6c.2.5.6.9 1.1 1.1.5.3 1 .4 1.6.4.6 0 1.1-.1 1.6-.4.5-.3.8-.6 1.1-1.1.3-.5.4-1 .4-1.6 0-.6-.1-1.1-.4-1.6-.3-.5-.6-.8-1.1-1.1zm.1 2.7c0 .4-.1.8-.2 1-.2.3-.4.5-.6.6-.5.3-1.1.2-1.6 0-.2-.1-.4-.3-.6-.6-.2-.3-.2-.6-.2-1s.1-.8.2-1c.2-.3.4-.5.6-.6.2-.1.5-.2.8-.2.3 0 .5.1.8.2.2.1.4.3.6.6.1.3.2.6.2 1zM217.4 196.8c-.1-.1-.3-.2-.5-.2h-.1c-.6 0-1.1.2-1.5.7 0-.2-.1-.3-.2-.4-.3-.3-.7-.3-1 0-.1.1-.2.3-.2.5v4.7c0 .2.1.4.2.5.1.1.3.2.5.2s.4-.1.5-.2c.1-.1.2-.3.2-.5v-3.3c.2-.3.4-.5.6-.6.3-.2.6-.2.9-.2h.1c.2 0 .4-.1.5-.2.1-.1.2-.3.2-.5s-.1-.3-.2-.5z"
                class="colordb2157 svgShape"></path>
            <path fill="#f7a386"
                d="m107.2 76.4-1.3 2.1-6.6 8.3c-3.1-.4-7.1-2.1-9.9-3.5-.4-.2-.7-.4-1-.6 0 0-2.7-.5-5.4.4-4.4 1.3-.8-2.4-.2-2.9 1.5-1.1 4.1-2 7.4-1.2-.3-.5-.7-1.1-1-1.7-1.4-2.3-5.3-7.8-4.8-9.2.5-1.3 1.9-.4 7.6 6.7-1.3-1.6-6.2-8-5.4-8.7.8-.7 4.8 1.8 8.3 5.1-2.7-2.6-5.2-9.1-5-9.5 1-2.5 12.5 11.4 13.3 12 .5.4 3.4 2.3 4 2.7z"
                class="colorf7a386 svgShape"></path>
            <path fill="#f7a386"
                d="M161 119.7c-1.2 12.4-22.5 19.5-44.7 21.3-.6.1-1.2.1-1.8.1v-24.6h7.5l10.8.1s-26.7-25.8-32.6-28.9c-4.4-2.3 1.1-8 4.2-10.7 1-.9 1.7-1.5 1.7-1.5s56.3 29.9 54.9 44.2z"
                class="colorf7a386 svgShape"></path>
            <path fill="#f7a386"
                d="M161 119.7c-1.2 12.4-22.5 19.5-44.7 21.3-.6.1-1.2.1-1.8.1v-24.6h7.5l10.8.1s-26.7-25.8-32.6-28.9c-4.4-2.3 1.1-8 4.2-10.7 1-.9 1.7-1.5 1.7-1.5s56.3 29.9 54.9 44.2z"
                class="colorf7a386 svgShape"></path>
            <path fill="#fee1bc"
                d="m100.8 88.2 1.3.9c8.3 6 30.7 27.6 30.7 27.6l-10.8-.1h-.4v.2h3.3l10.8.1c-.1.1-26.3-23.7-34.9-28.7z"
                class="colorfee1bc svgShape"></path>
            <linearGradient id="f" x1="104.351" x2="161.063" y1="108.353" y2="108.353" gradientUnits="userSpaceOnUse">
                <stop offset="0" stop-color="#f7a386" class="stopColorf7a386 svgShape"></stop>
                <stop offset="1" stop-color="#fd6b58" class="stopColorfd6b58 svgShape"></stop>
            </linearGradient>
            <path fill="url(#f)"
                d="M161 119.7c-1.2 12.4-22.5 19.5-44.7 21.3-.7-2.6-.5-5.3-.3-8 .4-5.2.8-10.3 1.2-15.5 0-.3.1-.6.1-.9h4.7c.1.3.1.6.2.9.6 4.4 1.2 8.8 1.8 13.1.3 2.2.8 4.6 2.6 5.8 1.8 1.2 4.2.7 6.3 0 7-2.2 13.6-5.4 19.6-9.6 2.9-2 5.9-4.8 5.6-8.3-.2-2-1.6-3.8-3.3-5-1.7-1.2-3.6-2-5.4-3-12.9-6.8-20.3-21.8-33.7-27.4-2.8-1.2-5.7-1.9-8.4-3.4-1-.6-2.1-1.6-3-2.7 1-.9 1.7-1.5 1.7-1.5s56.4 29.9 55 44.2z">
            </path>
            <path fill="#ffd475"
                d="M121.5 116.7c-1.7-4.6-36.1-3.1-36.1-3.1l21.3 27.9c5-.1 13 2.5 13.8-.6 1.8-6.8 2.7-19.6 1-24.2z"
                class="colorffd475 svgShape"></path>
            <path fill="#111d33" d="M72.5 99.6c-.5.5-1 .9-1.5 1.4.4-.5.9-1 1.5-1.4z" class="color111d33 svgShape">
            </path>
            <path fill="#8a4852"
                d="M114.6 238.3H82.4c-1.6-6.1-3.3-12.4-3.4-12.4l-3.9 12.4H42.2c.1-3.6.4-7.7.8-11.8 1-9.2 2.8-18.5 6.4-21.7.2-.2.4-.4.6-.5 5.7-4.6 16.6-7 27.7-7.1 4.3 0 8.7.3 12.7.9 7 1.1 13.2 3.3 16.8 6.6l.1.1c2 1.8 3.4 5.4 4.5 9.9 1.8 7.2 2.5 16.4 2.8 23.6z"
                class="color8a4852 svgShape"></path>
            <path fill="#51383c"
                d="M111.9 214.7c-.2.2-.4.5-.7.7-.8.5-1.7.8-2.6.8-1.9.1-3.7-.5-5.5-1-11.6-3.4-24.1-3.6-35.8-.5-2 .5-4.1 1.2-5.6 2.6-2.7 2.5-3 7-1.4 10.4 1.6 3.4 4.9 5.7 8.3 7.3 1.4.6 2.8 1.2 4 2.1.5.3.9.8 1.2 1.2H42.2c.1-3.6.4-7.7.8-11.8 1-9.2 2.8-18.5 6.4-21.7.2-.2.4-.4.6-.5 2.7.1 5.4.4 8-.1 3.2-.7 6-2.5 9-3.9 3.4-1.6 7-2.6 10.7-3 4.3-.5 8.6-.2 12.7.9 1.6.4 3.2 1 4.7 1.6 4 1.7 7.8 4.3 12.1 5l.1.1c2 1.7 3.5 5.3 4.6 9.8z"
                class="color51383c svgShape"></path>
            <path fill="#ffd475"
                d="M111.1 211.9c-23-14-56 12.1-66.8-.8-4.1-5 4.3-20.4 4.3-20.4s-7 3.9-9.5 3.5c-1-.2-2-.6-2.8-1.2-12.9-9-4.8-65.1-.9-69.2 4.1-4.3 21.3-8.6 28.7-10.8 8.4-2.4 24.2.4 31.7 3.1 4.4 1.5 14.1 8.2 15.7 14.2 0 0-3.9 31.7-4.2 42.4-.3 8.1 5.6 17.1 7.2 25.5.9 4.8.4 9.5-3.4 13.7z"
                class="colorffd475 svgShape"></path>
            <path fill="#ef9645"
                d="M122.4 125.4c-.1-2.7-.3-5.1-.9-6.6-1.5-4-29.8-3.8-36.6-3.6l.5-1.6s34.4-1.5 36.1 3.1c.7 1.8 1 5 .9 8.7zM111.1 211.9c-23-14-56 12.1-66.8-.8-4.1-5 4.3-20.4 4.3-20.4s-7 3.9-9.5 3.5c-1-.2-2-.6-2.8-1.2 0 0 0-.1.1-.1 2.7-3.6 7.1-5.3 11.1-7.3 10-4.9 18.6-12.4 24.8-21.6 1.7-2.5 3.2-5.1 5.5-7.1 2.2-2 5.4-3.2 8.3-2.3 3.8 1.3 5.3 6.6 1.4 8.5-4.7 2.2-8.4 5.3-11.9 9.3-3.9 4.5-7.4 9.4-12.2 12.9-3.7 2.8-8.1 4.7-11 8.3-2.1 2.5-3.2 5.7-3.3 8.9-.1 2.2.5 4.7 2.3 6 1.9 1.4 4.5 1.1 6.8.8 7.8-1.1 15.5-2.1 23.3-3.2 5.8-.8 16.9.7 17.5-2.4.5-2.5-8.7-3.8-6.2-4.5 2.3-.7 7.2.3 9.6 2.9 1.4 1.5 2.3 3.3 3.9 4.5 1.6 1.2 4.4 1.1 5.1-.8.6-1.4-.4-3-.3-4.6.2-1.6 1.7-2.9 3.4-3.1.9 4.9.4 9.6-3.4 13.8z"
                class="coloref9645 svgShape"></path>
            <path fill="#4c5c75"
                d="m102.3 128.8-14.1 31.7c-.6 1.3.1 2.9 1.3 2.9h13.2c.5 0 1-.4 1.3-1l14.1-31.7c.6-1.3-.1-2.9-1.3-2.9h-13.2c-.6 0-1.1.4-1.3 1z"
                class="color4c5c75 svgShape"></path>
            <path fill="#111d33"
                d="M87.5 163.3h2c-1.1 0-1.9-1.6-1.3-2.9l14.1-31.7c.3-.6.8-1 1.3-1h-2c-.5 0-1 .4-1.3 1l-14.1 31.7c-.6 1.3.1 2.9 1.3 2.9zM113.5 130.6l-2.8 6.5c-.1.3 0 .6.3.6h2.5c.1 0 .2-.1.3-.2l2.8-6.5c.1-.3 0-.6-.3-.6h-2.5c-.1 0-.2.1-.3.2z"
                class="color111d33 svgShape"></path>
            <path fill="#f7a386" d="M85.4 90.8v22.9L81.7 126l-.2.5-14-14.2V90.8z" class="colorf7a386 svgShape"></path>
            <linearGradient id="g" x1="67.472" x2="81.661" y1="110.254" y2="110.254" gradientUnits="userSpaceOnUse">
                <stop offset="0" stop-color="#f7a386" class="stopColorf7a386 svgShape"></stop>
                <stop offset="1" stop-color="#fd6b58" class="stopColorfd6b58 svgShape"></stop>
            </linearGradient>
            <path fill="url(#g)"
                d="m81.7 126-.1.5-14-14.2V95.9c0-.1.1-.1.1-.2.9-1.2 2.6-1.5 4.1-1.8 1.1 1.9 2.7 3.8 3.1 6.1.5 2.7.9 5.5 1.4 8.2.3 1.6.6 3.2 1.3 4.6 1 1.8 2.8 3.3 2.9 5.3 0 1.5-1 3-.8 4.5.1 1.3 1.2 2.4 2 3.4z">
            </path>
            <linearGradient id="h" x1="909.587" x2="852.708" y1="90.805" y2="90.446"
                gradientTransform="translate(-805.908)" gradientUnits="userSpaceOnUse">
                <stop offset="0" stop-color="#fee1bc" class="stopColorfee1bc svgShape"></stop>
                <stop offset="1" stop-color="#fd6b58" class="stopColorfd6b58 svgShape"></stop>
            </linearGradient>
            <path fill="url(#h)"
                d="M90.2 108c-7.1 2.1-22.8-8.2-22.8-8.2V95s-2.2-2.5-3.1-5.2c-.7-2.2-.5-4.5 2.6-5.7l1.2-10.2c12.1-.5 23.7-2.4 27.9 3.2.2 0 .2 29.1-5.8 30.9z">
            </path>
            <path fill="#111d33"
                d="M82.8 86.9c-1.3.2-2.6.9-3.8 1.5-.2.1-.5.2-.7 0-.1-.1-.1-.3-.1-.5.2-1 .9-1.8 1.8-2.4 1.7-1.2 3.8-1.6 5.8-1.2.3.1.7.2 1 .3.4.2.7.4.9.7.2.3.3.7.2 1.1-.3 1.1-1.4.7-2.2.5-.9 0-1.9-.1-2.9 0zM90.4 85.3c.3-.3.6-.5 1-.6.3-.1.7-.1 1-.2 1.4-.1 2.8.2 4.1.9.5.3.8.9.6 1.5-.2.7-1 1-1.6.7-.1-.1-.3-.1-.4-.1-1-.3-2-.4-3-.3-.8 0-2 .3-2.1-.8 0-.4.1-.8.4-1.1z"
                class="color111d33 svgShape"></path>
            <path fill="#e27659"
                d="M69.5 89.7c-.2-.8-.6-1.5-1.1-2.1-.6-.6-1.4-.9-2.1-.9-.4 0-.8.2-1.2.4-.1 0-.1.1-.1.2s.1.1.2.1c.3-.2.7-.3 1-.3.7-.1 1.4.2 1.9.8.4.5.8 1.1 1 1.8-.2-.1-.4-.3-.6-.3-.2 0-.5 0-.8.1-.1 0-.3.1-.5.2-.2.2-.2.4-.2.6 0 .1.1.1.2.1s.1-.1.1-.2 0-.2.1-.2c.1-.1.2-.1.3-.2.3-.1.5-.1.7-.1.3 0 .6.2.8.5.1.6.1 1.1.2 1.7 0 .1.1.2.2.2s.1-.1.1-.2"
                class="colore27659 svgShape"></path>
            <path fill="#111d33"
                d="M86.1 90.6s-.1 0 0 0c-.6-.2-1.3-.4-1.9-.7-.5.2-.9.5-1.4.7-.5.2-1 .3-1.6.3.4-.4.9-.7 1.4-.9.5-.2 1-.3 1.6-.5h.2c.5.3 1.1.7 1.7 1.1 0-.1 0 0 0 0zM95.2 91.3s-.1 0 0 0l-1.8-.9c-.5.2-1 .4-1.5.5-.5.1-1.1.2-1.7.1v-.1c.5-.4 1-.6 1.5-.8.5-.1 1.1-.2 1.6-.3h.2c.6.5 1.1 1 1.7 1.5 0-.1 0-.1 0 0z"
                class="color111d33 svgShape"></path>
            <path fill="#f7a386"
                d="M105.9 150.9c-.7-1.5-8.5-2.7-11.5-3.4-.8-.2-1.6-.4-2.3-.5 3.2-2.1 4.6-5 4.9-7.1.1-.8-.1-6.9-2.5-2.1-1.5 2.9-4.1 4.8-4.1 4.8-.4.1-.9.2-1.3.4-4.3 1.4-7.9 4.5-11.5 7.3-9.2 7.3-19 13.7-29.3 19.2l3.1-17.3-22.4.4c-1.5 18.8.4 40.1 10 41.5 2.2.3 14.1-3.1 23.2-12.6 4.9-5.1 10-10 15-15 1.2-1.2 2.5-2.5 4-3.3 1.5-.8 3.2-1.1 4.9-1.4 1.1-.2 19.3-.8 19-4.4-.1-.9-11.9-.3-14.2-.4 6.8.2 14.7-1.3 14.8-2.9.1-1.2-9.2-2.3-11.5-2.5 10.5 1.2 12.4.7 11.7-.7z"
                class="colorf7a386 svgShape"></path>
            <path fill="#fee1bc"
                d="M89.1 142.9c.2-.1.5-.1.7-.2l-.1.1c-.4.1-.9.2-1.3.4.3-.2.5-.2.7-.3zM105.2 157.5c.1 1-1.1 1.7-3 2.3 1.4-.5 2.3-1.2 2.2-2 0-.6-6.6-.6-10.9-.5 1.2-.1 2-.2 4.1-.2 3.7-.1 7.5-.1 7.6.4zM105.7 154.3c0 .5-.9 1-2.2 1.4.9-.4 1.5-.8 1.5-1.2.1-1.1-7.7-2.5-10.8-2.8 2.4.2 4.2.5 5.7.7 3 .6 5.9 1.2 5.8 1.9zM105.9 150.9c-.7-1.5-8.5-2.7-11.5-3.4-.8-.2-1.6-.4-2.3-.5l.1-.1h-.4c-.2.1-.3.2-.5.4.7.2 1.5.3 2.3.5 3 .7 10.7 1.9 11.5 3.4.2.4.2.8-.2 1 1.1-.3 1.3-.7 1-1.3zM90.5 142.5c-.2.1-.4.1-.6.2.6-.4 2.6-2.1 3.9-4.7.8-1.5 1.4-1.9 1.7-1.8-.3.3-.6.7-1 1.5-1.5 3-4 4.8-4 4.8z"
                class="colorfee1bc svgShape"></path>
            <path fill="#fee1bc"
                d="M90.6 143.4c-.4.1-.9.2-1.3.4-4.3 1.5-7.9 4.5-11.5 7.3-9.2 7.3-20 13.6-30.3 19.1l1.2-.9c10.2-5.5 19.9-11.9 29-19.1 3.6-2.8 7.2-5.9 11.5-7.3.4-.1.9-.3 1.3-.4 0 0 2.5-1.8 4.1-4.8 1.7-3.2 2.3-1.5 2.5.3-.3-1.3-1-2-2.3.6-1.6 2.9-4.2 4.8-4.2 4.8z"
                class="colorfee1bc svgShape"></path>
            <linearGradient id="i" x1="2229.588" x2="2310.669" y1="173.166" y2="173.166"
                gradientTransform="matrix(-1 0 0 1 2339.316 0)" gradientUnits="userSpaceOnUse">
                <stop offset="0" stop-color="#f7a386" class="stopColorf7a386 svgShape"></stop>
                <stop offset="1" stop-color="#fd6b58" class="stopColorfd6b58 svgShape"></stop>
            </linearGradient>
            <path fill="url(#i)"
                d="M86.5 160.3c-5.1.9-10 3.3-13.8 6.8-3.6 3.3-6.3 7.7-10.6 10-5.1 2.9-9.4 7-14.1 10.6-1.6 1.2-3.3 2.5-5.2 3.2-1.9.7-4.2.7-5.9-.5-2.1-1.4-2.7-4.2-3.2-6.6-1.3-6.7-3.2-13.5-4.5-20.2-.3-1.5-.5-3.4.7-4.4.7-.6 1.6-.7 2.5-.8 3.1-.3 6.9-.6 10-.9 1.4-.1 6-.7 7.2-1.5 1.2-.8 2-2.3 1.5-3.6 0-.1-.1-.2-.1-.2l-22 .4c-1.5 18.8.4 40.1 10 41.5 2.2.3 14.1-3.1 23.2-12.6 4.9-5.1 10-10 15-15 1.2-1.2 2.5-2.5 4-3.3 1.5-.8 3.2-1.1 4.9-1.4h.3v-1.5z">
            </path>
            <path fill="#ffd475"
                d="M52.5 152.2c-2.7 3.4-17.4 5.2-22.4 2.8-1.1-.5-1.7-1.2-1.7-2.1 0-2.1.2-4.1.3-6 .7-9.2 2.6-15.3 4.2-19 .9-2.1 1.8-3.4 2.4-4 2.2-2.3 10.9-5 17-7.4 0 0 .2 1.1.5 2.8 1.4 7.3 4.2 27.1-.3 32.9z"
                class="colorffd475 svgShape"></path>
            <path fill="#ef9645"
                d="M67.5 112.3c-1.3.2-1.7.2-3.4.7-7.6 2.2-24.9 6.5-29.2 10.8-.5.5-1.2 2-1.9 4-1.4 4.2-3 11.2-4.2 19-.1 1.9-.3 3.9-.3 6 0 .9.6 1.6 1.7 2.1 1.8-14.2 5-26.9 6.9-28.8 2.5-2.5 9.2-4.9 15.9-7 5-1.5 10.1-2.9 13.3-3.8 1.1-.3 2.4-.5 3.7-.7l-2.5-2.3z"
                class="coloref9645 svgShape"></path>
            <path fill="#fee1bc" d="M48.1 169.5s-6.3 2.6-9.3 10.1c2.7-4.6 6.4-8.2 10.9-10.9l-1.6.8z"
                class="colorfee1bc svgShape"></path>
            <path fill="#e27659" d="M90.9 101.8c-2.3-1.1-.9-.9-3.4 0-1.3.5 1.1-2.3 2-2.3 1-.1 2.5 2.8 1.4 2.3z"
                class="colore27659 svgShape"></path>
            <path fill="#f7a386" d="M93.9 78.3c.1 0 .2.1.3.1-.1 0-.2-.1-.3-.1z" class="colorf7a386 svgShape"></path>
            <path fill="#fee1bc" d="M132.8 116.9c5.3.1 10.4.7 15.1 2.1-6.2-2.8-12.5-2.4-15.1-2.1z"
                class="colorfee1bc svgShape"></path>
            <path fill="#6eb954"
                d="M154.3 49v20.1c0 .8-.6 1.4-1.4 1.4h-17.7l-6.5 4.5c-.5.3-1.1 0-1.1-.6v-3.9h-3c-.8 0-1.4-.6-1.4-1.4V49c0-.8.6-1.4 1.4-1.4h28.3c.8 0 1.4.6 1.4 1.4z"
                class="color6eb954 svgShape"></path>
            <path fill="#51383c" d="m77.4 220.1 10.4 18.3-5.4-.1z" class="color51383c svgShape"></path>
            <path fill="#f3f1fc"
                d="M191.5 110.7h5.9c1.9 0 3.4-1.5 3.4-3.4v-5.9c0-1.9-1.5-3.4-3.4-3.4h-5.9c-1.9 0-3.4 1.5-3.4 3.4v5.9c0 1.9 1.5 3.4 3.4 3.4zm-1.1-9.3c0-.6.5-1.1 1.1-1.1h5.9c.6 0 1.1.5 1.1 1.1v5.9c0 .6-.5 1.1-1.1 1.1h-5.9c-.6 0-1.1-.5-1.1-1.1v-5.9zM197.4 125h-5.9c-1.9 0-3.4 1.5-3.4 3.4v5.9c0 1.9 1.5 3.4 3.4 3.4h5.9c1.9 0 3.4-1.5 3.4-3.4v-5.9c0-1.9-1.6-3.4-3.4-3.4zm1.1 9.3c0 .6-.5 1.1-1.1 1.1h-5.9c-.6 0-1.1-.5-1.1-1.1v-5.9c0-.6.5-1.1 1.1-1.1h5.9c.6 0 1.1.5 1.1 1.1v5.9zM224.2 98.1h-5.9c-1.9 0-3.4 1.5-3.4 3.4v5.9c0 1.9 1.5 3.4 3.4 3.4h5.9c1.9 0 3.4-1.5 3.4-3.4v-5.9c0-1.9-1.6-3.4-3.4-3.4zm1.1 9.2c0 .6-.5 1.1-1.1 1.1h-5.9c-.6 0-1.1-.5-1.1-1.1v-5.9c0-.6.5-1.1 1.1-1.1h5.9c.6 0 1.1.5 1.1 1.1v5.9z"
                class="colorf3f1fc svgShape"></path>
            <path fill="#f3f1fc"
                d="M223.7 103.2v2.3c0 .7-.6 1.3-1.3 1.3h-2.3c-.7 0-1.3-.6-1.3-1.3v-2.3c0-.7.6-1.3 1.3-1.3h2.3c.7 0 1.3.6 1.3 1.3zM212 99.3h-8.9c-.6 0-1.1.5-1.1 1.1 0 .6.5 1.1 1.1 1.1h7.8v5.5c0 .6.5 1.1 1.1 1.1.6 0 1.1-.5 1.1-1.1v-6.6c0-.6-.5-1.1-1.1-1.1z"
                class="colorf3f1fc svgShape"></path>
            <path fill="#f3f1fc"
                d="M206.7 106.9c.6 0 1.1-.5 1.1-1.1 0-.6-.5-1.1-1.1-1.1H203c-.6 0-1.1.5-1.1 1.1 0 .6.5 1.1 1.1 1.1h3.7zM212 109.6h-7.8c-.6 0-1.1.5-1.1 1.1 0 .6.5 1.1 1.1 1.1h4v3.3h-2.7c-.6 0-1.1.5-1.1 1.1 0 .6.5 1.1 1.1 1.1h6.4c.6 0 1.1-.5 1.1-1.1 0-.6-.5-1.1-1.1-1.1h-1.4v-3.3h1.5c.6 0 1.1-.5 1.1-1.1 0-.6-.5-1.1-1.1-1.1zM217.3 120.9c.6 0 1.1-.5 1.1-1.1V113c0-.6-.5-1.1-1.1-1.1-.6 0-1.1.5-1.1 1.1v6.7c-.1.6.4 1.2 1.1 1.2zM225.4 120.9c.6 0 1.1-.5 1.1-1.1V113c0-.6-.5-1.1-1.1-1.1-.6 0-1.1.5-1.1 1.1v2.4h-1.7c-.6 0-1.1.5-1.1 1.1 0 .6.5 1.1 1.1 1.1h1.7v2c0 .7.5 1.3 1.1 1.3zM190.3 118.1c.6 0 1.1-.5 1.1-1.1v-4.3c0-.6-.5-1.1-1.1-1.1-.6 0-1.1.5-1.1 1.1v4.3c0 .6.5 1.1 1.1 1.1zM199.9 113.5c0-.6-.5-1.1-1.1-1.1h-3.3c-.6 0-1.1.5-1.1 1.1 0 .6.5 1.1 1.1 1.1h2.2v1.5c0 .6.5 1.1 1.1 1.1h2.8c.6 0 1.1-.5 1.1-1.1 0-.6-.5-1.1-1.1-1.1h-1.7v-1.5zM190.1 123h5.9c.6 0 1.1-.5 1.1-1.1 0-.6-.5-1.1-1.1-1.1h-5.9c-.6 0-1.1.5-1.1 1.1-.1.6.5 1.1 1.1 1.1zM199.5 121.8c0 .6.5 1.1 1.1 1.1h3.5c.6 0 1.1-.5 1.1-1.1 0-.6-.5-1.1-1.1-1.1h-3.5c-.6 0-1.1.5-1.1 1.1zM212 120.7h-3.3c-.6 0-1.1.5-1.1 1.1 0 .6.5 1.1 1.1 1.1h2.2v3.3h-6.6c-.6 0-1.1.5-1.1 1.1 0 .6.5 1.1 1.1 1.1h7.8c.6 0 1.1-.5 1.1-1.1v-5.6c-.1-.5-.6-1-1.2-1zM225.9 123.2h-3.3c-.6 0-1.1.5-1.1 1.1v2.3h-3V124c0-.6-.5-1.1-1.1-1.1-.6 0-1.1.5-1.1 1.1v3.7c0 .6.5 1.1 1.1 1.1h5.3c.6 0 1.1-.5 1.1-1.1v-2.3h2.2c.6 0 1.1-.5 1.1-1.1-.1-.6-.6-1.1-1.2-1.1zM225.4 131c-.6 0-1.1.5-1.1 1.1v1.9h-3.1v-1.9c0-.6-.5-1.1-1.1-1.1-.6 0-1.1.5-1.1 1.1v1.9h-3.1v-1.9c0-.6-.5-1.1-1.1-1.1-.6 0-1.1.5-1.1 1.1v3.1c0 .6.5 1.1 1.1 1.1h10.8c.6 0 1.1-.5 1.1-1.1v-3.1c-.1-.6-.6-1.1-1.3-1.1zM209.3 131.3h-5.5c-.6 0-1.1.5-1.1 1.1v3.3c0 .6.5 1.1 1.1 1.1.6 0 1.1-.5 1.1-1.1v-2.1h4.3c.6 0 1.1-.5 1.1-1.1.2-.7-.4-1.2-1-1.2zM196.9 103.2v2.3c0 .7-.6 1.3-1.3 1.3h-2.3c-.7 0-1.3-.6-1.3-1.3v-2.3c0-.7.6-1.3 1.3-1.3h2.3c.7 0 1.3.6 1.3 1.3zM196.9 130.3v2.3c0 .7-.6 1.3-1.3 1.3h-2.3c-.7 0-1.3-.6-1.3-1.3v-2.3c0-.7.6-1.3 1.3-1.3h2.3c.7 0 1.3.5 1.3 1.3z"
                class="colorf3f1fc svgShape"></path>
            <path fill="#f45170"
                d="M219.7 129H196c-2.3 0-3.7-2.5-2.5-4.4l11.9-19.5c1.1-1.9 3.8-1.9 5 0l11.9 19.5c1 1.9-.3 4.4-2.6 4.4z"
                class="colorf45170 svgShape"></path>
            <path fill="#db2157"
                d="M219.7 129H196c-.4 0-.8-.1-1.2-.2 1.1.1 2.2.2 3.4.2 9.8 0 18-4.6 20-10.8l3.9 6.5c1.2 1.9-.1 4.3-2.4 4.3z"
                class="colordb2157 svgShape"></path>
            <path fill="#f3f1fc"
                d="M181.7 100.6c-.7 0-1.2-.5-1.2-1.2v-7.6c0-.7.5-1.2 1.2-1.2h7.6c.7 0 1.2.5 1.2 1.2s-.5 1.2-1.2 1.2h-6.5v6.5c.1.5-.4 1.1-1.1 1.1zM189.4 145.1h-7.6c-.7 0-1.2-.5-1.2-1.2v-7.6c0-.7.5-1.2 1.2-1.2s1.2.5 1.2 1.2v6.5h6.5c.7 0 1.2.5 1.2 1.2-.2.6-.7 1.1-1.3 1.1zM233.9 100.6c-.7 0-1.2-.5-1.2-1.2v-6.5h-6.5c-.7 0-1.2-.5-1.2-1.2s.5-1.2 1.2-1.2h7.6c.7 0 1.2.5 1.2 1.2v7.6c.1.7-.4 1.3-1.1 1.3zM233.9 145.1h-7.7c-.7 0-1.2-.5-1.2-1.2s.5-1.2 1.2-1.2h6.5v-6.5c0-.7.5-1.2 1.2-1.2s1.2.5 1.2 1.2v7.6c0 .8-.5 1.3-1.2 1.3z"
                class="colorf3f1fc svgShape"></path>
            <path fill="#ffffff"
                d="m209.7 113.1-1 6.2c0 .3-.3.5-.5.5h-.4c-.3 0-.5-.2-.5-.5l-1-6.2c-.1-.3.2-.6.5-.6h2.5c.2 0 .5.3.4.6zM208.6 121.4c0 .3-.3.6-.6.6h-.3c-.3 0-.6-.3-.6-.6s.3-.6.6-.6h.3c.4 0 .6.2.6.6zM197.2 195.4c.2 0 .3-.1.5-.2.1-.1.2-.3.2-.5s-.1-.3-.2-.5c-.1-.1-.3-.2-.5-.2h-4.4c-.2 0-.4.1-.5.2-.1.1-.2.3-.2.5v6.7c0 .2.1.4.2.5.1.1.3.2.5.2h4.4c.2 0 .3-.1.5-.2.1-.1.2-.3.2-.5s-.1-.3-.2-.5c-.1-.1-.3-.2-.5-.2h-3.7v-2.1h3.3c.2 0 .3-.1.5-.2.1-.1.2-.3.2-.5s-.1-.3-.2-.5c-.1-.1-.3-.2-.5-.2h-3.3v-2h3.7zM201.9 196c-.6 0-1.1.2-1.6.7 0-.2-.1-.3-.2-.4-.3-.3-.7-.3-1 0-.1.1-.2.3-.2.5v4.7c0 .2.1.4.2.5.1.1.3.2.5.2s.4-.1.5-.2c.1-.1.2-.3.2-.5v-3.3c.2-.3.4-.5.6-.6.3-.2.6-.2.9-.2h.1c.2 0 .4-.1.5-.2.1-.1.2-.3.2-.5s-.1-.4-.2-.5c-.2-.1-.4-.2-.5-.2zM206.1 196c-.6 0-1.1.2-1.6.7 0-.2-.1-.3-.2-.4-.3-.3-.7-.3-1 0-.1.1-.2.3-.2.5v4.7c0 .2.1.4.2.5.1.1.3.2.5.2s.4-.1.5-.2c.1-.1.2-.3.2-.5v-3.3c.2-.3.4-.5.6-.6.3-.2.6-.2.9-.2h.1c.2 0 .4-.1.5-.2.1-.1.2-.3.2-.5s-.1-.4-.2-.5c-.2-.1-.3-.2-.5-.2zM211.4 196.4c-.5-.3-1-.4-1.6-.4-.6 0-1.1.1-1.6.4-.5.3-.8.6-1.1 1.1-.2.5-.4 1-.4 1.6s.1 1.1.4 1.6c.2.5.6.9 1.1 1.1.5.3 1 .4 1.6.4.6 0 1.1-.1 1.6-.4.5-.3.8-.6 1.1-1.1.3-.5.4-1 .4-1.6 0-.6-.1-1.1-.4-1.6-.3-.4-.6-.8-1.1-1.1zm.1 2.8c0 .4-.1.8-.2 1-.2.3-.4.5-.6.6-.5.3-1.1.2-1.6 0-.2-.1-.4-.3-.6-.6-.2-.3-.2-.6-.2-1s.1-.8.2-1c.2-.3.4-.5.6-.6.2-.1.5-.2.8-.2.3 0 .5.1.8.2.2.1.4.3.6.6.1.2.2.5.2 1zM217.4 196.2c-.1-.1-.3-.2-.5-.2h-.1c-.6 0-1.1.2-1.5.7 0-.2-.1-.3-.2-.4-.3-.3-.7-.3-1 0-.1.1-.2.3-.2.5v4.7c0 .2.1.4.2.5.1.1.3.2.5.2s.4-.1.5-.2c.1-.1.2-.3.2-.5v-3.3c.2-.3.4-.5.6-.6.3-.2.6-.2.9-.2h.1c.2 0 .4-.1.5-.2.1-.1.2-.3.2-.5s-.1-.3-.2-.5z"
                class="colorfff svgShape"></path>
            <path fill="#f3f1fc" d="M224.4 152c0 .3-7.4.6-16.5.6s-16.5-.3-16.5-.6 7.4-.6 16.5-.6 16.5.3 16.5.6z"
                class="colorf3f1fc svgShape"></path>
            <path fill="#ffffff"
                d="M141.7 53c-.8-.6-1.8-.9-3-.9-.6 0-1.2.1-1.7.2s-1 .4-1.5.7c-.5.3-.5.6-.5.9 0 .2.1.5.3.7.3.3.8.4 1.2.1.3-.2.6-.3 1-.4.4-.1.7-.1 1.1-.1 2 0 2.3.9 2.3 1.7 0 .3-.1.5-.3.7l-.9.9c-.4.4-.8.6-1 .9-.3.3-.5.6-.7 1-.2.4-.3.9-.3 1.5 0 .2.1.5.3.6.2.2.4.3.7.3.3 0 .5-.1.7-.3.2-.2.3-.4.3-.7 0-.4.1-.8.3-1 .2-.3.6-.6 1.1-1 .4-.3.7-.6.9-.8.2-.3.5-.6.6-.9.2-.4.3-.8.3-1.3-.1-1.3-.4-2.2-1.2-2.8zM137.7 63.3c-.2.2-.4.5-.4.9s.1.7.4.9c.2.2.5.4.9.4s.7-.1.9-.4c.2-.2.4-.6.4-.9 0-.3-.1-.6-.4-.9-.5-.5-1.3-.5-1.8 0z"
                class="colorfff svgShape"></path>
            <path fill="#e27659"
                d="M90.4 94.9c0 .8-.6 1.4-1.4 1.4-.8 0-1.4-.6-1.4-1.4 0-.8.6.5 1.4.5.8.1 1.4-1.2 1.4-.5z"
                class="colore27659 svgShape"></path>
            <path fill="#8a4852"
                d="M96.1 80.4c-.3-2.2-.9-4.1-2.4-4.8-10.3 4.3-20.2 0-20.6-.1 1.6 4.2 1.9 9.6-.2 11.2-.2.2-.9.2-1.2 0-1.1-.7-1.6-2.5-3.8-2.6-4-.1-3.7 5.4-3.7 5.4s-1.3-2.2-2.7-5.2c-2-4.4-4-10.4-2.1-13.9 3.2-5.9 7.6-1.6 7.6-1.6s-1.4-11.2 4-11.6c5.6-.3 4 4.1 9.5 5.1s4.9-5.9 15-3.2c2.4.6 3.7 2.2 4.3 4.2 1.8 6.4-3.7 17.1-3.7 17.1z"
                class="color8a4852 svgShape"></path>
            <path fill="#51383c"
                d="M96.1 80.4c-.3-2.2-.9-4.1-2.4-4.8-10.3 4.3-20.2 0-20.6-.1 1.6 4.2 1.9 9.6-.2 11.2-.2.2-.9.2-1.2 0-1.1-.7-1.6-2.5-3.8-2.6-4-.1-3.7 5.4-3.7 5.4s-1.3-2.2-2.7-5.2c1-1.3 2.5-2.3 4.1-2.3 1.2 0 2.2.5 3.3.9 1.1.4 2.4.5 3.4-.1.6-1.3-.1-2.7-.8-3.9-.7-1.2-1.4-2.6-.9-3.9.4-1.1 1.7-1.7 2.8-2.1 4.4-1.5 9.3-1.6 13.8-.1 2 .6 4 1.6 6.1 1.5 2-.1 3.9-1.3 5-3 .7-1.1.9-2.4.9-3.7 0-1.5.1-2.7.6-4.1 1.8 6.2-3.7 16.9-3.7 16.9zM67.2 68.8s1.7 1.6 1.6 4.1c0 0 1.5-3.5-1.8-7l.2 2.9z"
                class="color51383c svgShape"></path>
        </svg></g>
</svg>