<svg id="SvgjsSvg1936" width="650" height="350" xmlns="http://www.w3.org/2000/svg" version="1.1"
    xmlns:xlink="http://www.w3.org/1999/xlink" xmlns:svgjs="http://svgjs.com/svgjs">
    <defs id="SvgjsDefs1937"></defs>
    <g id="SvgjsG1938"><svg xmlns="http://www.w3.org/2000/svg" xmlns:xlink="http://www.w3.org/1999/xlink"
            enable-background="new 0 0 1700 1100" viewBox="0 0 1700 1100" width="650" height="350">
            <path fill="#ecf4ff" fill-rule="evenodd"
                d="M807.54 152.07c-71.12 24.17-138.74 75.91-191.99 124.15C504.65 376.68 488.1 397.8 351.29 482.14c-79.74 49.16-142.6 90.73-173.58 146.33C90.7 784.65 194.34 953.34 411.5 953.34h882.79s103.84 2.14 179.62-81.34c256.84-282.93-169.14-888.88-666.37-719.93"
                clip-rule="evenodd" class="colorecf4ff svgShape"></path>
            <path fill="#031542" fill-rule="evenodd"
                d="M192.13 947.5h1313.74c1.86 0 3.38 1.51 3.38 3.36 0 1.85-1.53 3.36-3.38 3.36H192.13c-1.86 0-3.38-1.51-3.38-3.36 0-1.85 1.52-3.36 3.38-3.36"
                clip-rule="evenodd" class="color031542 svgShape"></path>
            <path fill="#405da9" fill-rule="evenodd"
                d="M782.93 847.69c-3.01 54.76-10.97 68.6-66.14 99.8h244.55c-55.17-31.2-63.13-45.05-66.14-99.8l-56.14-4.45-56.13 4.45z"
                clip-rule="evenodd" class="color405da9 svgShape"></path>
            <path fill="#243e83" fill-rule="evenodd" d="M781 854.6h116.3v15.47H781z" clip-rule="evenodd"
                class="color243e83 svgShape"></path>
            <path fill="#56c4cf"
                d="M479.83 946.75s37.3-16.97 31.76-43.24c-5.53-26.28-35.86-23.51-31.76-44.26 4.1-20.75 24.01-53.05 4.65-76.56-19.36-23.51-51.56-9.42-55.6-45.88-3.26-29.38-16.83-50.19-43.14-44.09-24.35 5.65-42.51 24.5-42.96 69.34-.49 47.74-34.11 34.33-34.53 69.5-.42 35.42 27.79 35.42 38.82 59.19 5.21 11.22-8.37 50.67 31.75 55.99h101.01z"
                class="color56c4cf svgShape"></path>
            <path fill="#e3f4fa"
                d="M389.82 711.83c0 .01-.09.8-.23 2.37-.42 4.7-1.28 16.15-1.28 32.12-.01 46.7 7.36 131.99 53.84 200.08.64.92.4 2.2-.53 2.83-.93.64-2.2.4-2.83-.53-47.23-69.27-54.53-155.27-54.54-202.38 0-21.48 1.53-34.88 1.54-34.94a2.027 2.027 0 0 1 2.25-1.79c1.11.11 1.91 1.12 1.78 2.24"
                class="colore3f4fa svgShape"></path>
            <path fill="#86d2df"
                d="M435.01 946.75s5.87-32.43-16.14-45.63c-22-13.2-44.48-23.48-42.04-44.75 2.44-21.27-3.56-46.38-38.83-46.85-21.8-.29-13.61-23.27-35.76-27.85-13.46-2.78-22.34 11.26-24.06 25.06-1.96 15.72 6.94 31.16-3.27 43.96-13.24 16.58-18.62 47.51 9.84 56.31 28.46 8.81 3.1 35.75 41.86 39.73h108.4z"
                class="color86d2df svgShape"></path>
            <path fill="#ffffff"
                d="M303.72 797.08c.74 20.66 9.91 50.06 25.58 78.11 15.66 28.07 37.83 54.83 64.3 70.6.97.57 1.29 1.82.71 2.79-.58.96-1.82 1.28-2.79.7-27.34-16.3-49.85-43.58-65.77-72.1-15.92-28.55-25.28-58.3-26.1-79.95-.04-1.12.83-2.07 1.96-2.11 1.12-.04 2.07.84 2.11 1.96"
                class="colorfff svgShape"></path>
            <defs>
                <path id="a"
                    d="M513.23 359.04h655.46c23.5 0 42.72 19.22 42.72 42.72v410.13c0 23.49-19.22 42.72-42.72 42.72H513.23c-23.5 0-42.72-19.22-42.72-42.72V401.76c.01-23.49 19.23-42.72 42.72-42.72">
                </path>
            </defs>
            <clipPath id="b">
                <use overflow="visible" xlink:href="#a"></use>
            </clipPath>
            <linearGradient id="c" x1="945.057" x2="764.826" y1="345.838" y2="797.709" gradientUnits="userSpaceOnUse">
                <stop offset="0" stop-color="#5da8dc" class="stopColor5da8dc svgShape"></stop>
                <stop offset="1" stop-color="#405da9" class="stopColor405da9 svgShape"></stop>
            </linearGradient>
            <path fill="url(#c)" d="M470.52 359.04h740.89V854.6H470.52z" clip-path="url(#b)"></path>
            <defs>
                <path id="d"
                    d="M501.52 783.79v-.01h-.05a.76.76 0 0 1-.52-.48v-.04h-.01c-.02-.06-.02-.11-.02-.17V391.26c0-.23.12-.44.31-.58h.01v-.01c.13-.09.3-.15.48-.15h678.5c.18 0 .35.06.48.15.13.1.24.23.28.38v.05h.01c.01.05.02.1.02.14v391.83c0 .06-.01.12-.02.17h-.01v.02c-.07.24-.27.42-.52.5h-.05v.01c-.06.02-.13.02-.2.02h-678.5c-.06.02-.13.01-.19 0">
                </path>
            </defs>
            <clipPath id="e">
                <use overflow="visible" xlink:href="#d"></use>
            </clipPath>
            <linearGradient id="f" x1="840.962" x2="840.962" y1="906.428" y2="439.558" gradientUnits="userSpaceOnUse">
                <stop offset="0" stop-color="#3d9cff" class="stopColor3d9cff svgShape"></stop>
                <stop offset="1" stop-color="#e2f1fa" class="stopColore2f1fa svgShape"></stop>
            </linearGradient>
            <path fill="url(#f)" d="M500.91 390.53h680.1v393.28h-680.1z" clip-path="url(#e)"></path>
            <path fill="#b1d2fc" fill-rule="evenodd"
                d="M818.58 815.16c2.82 0 5.12 2.29 5.12 5.11a5.115 5.115 0 1 1-5.12-5.11M837.52 815.16a5.115 5.115 0 1 1-5.11 5.11c-.01-2.82 2.28-5.11 5.11-5.11M856.46 815.16a5.115 5.115 0 1 1-5.11 5.11c-.01-2.82 2.28-5.11 5.11-5.11"
                clip-rule="evenodd" class="colorb1d2fc svgShape"></path>
            <path fill="#ffffff" fill-rule="evenodd"
                d="M551.17 411.85h309.02c6.91 0 12.56 6.37 12.56 14.16v204.6c0 7.79-5.65 14.16-12.56 14.16H551.17c-6.91 0-12.57-6.37-12.57-14.16v-204.6c0-7.79 5.66-14.16 12.57-14.16"
                clip-rule="evenodd" class="colorfff svgShape"></path>
            <path fill="#d7e6ff" fill-rule="evenodd"
                d="M645.91 481.84h113.64c5.42 0 9.85 4.43 9.85 9.85v78.79c0 5.42-4.43 9.85-9.85 9.85H645.91c-5.42 0-9.85-4.43-9.85-9.85v-78.79c0-5.42 4.43-9.85 9.85-9.85"
                clip-rule="evenodd" class="colord7e6ff svgShape"></path>
            <path fill="#009fe7" fill-rule="evenodd"
                d="M769.39 557.75v12.73c0 5.42-4.43 9.85-9.85 9.85h-13.26l-38.71-42.78s20.14-21.05 20.14-22.18c.01-.89 29.25 29.44 41.68 42.38"
                clip-rule="evenodd" class="color009fe7 svgShape"></path>
            <path fill="#76c4fa" fill-rule="evenodd"
                d="M746.28 580.33H645.91c-5.42 0-9.85-4.43-9.85-9.85v-26.32l34.66-47.35 75.56 83.52z"
                clip-rule="evenodd" class="color76c4fa svgShape"></path>
            <path fill="#009fe7" fill-rule="evenodd"
                d="M742.97 468.39c8.94 0 16.19 7.25 16.19 16.19 0 8.94-7.25 16.19-16.19 16.19-8.94 0-16.19-7.25-16.19-16.19 0-8.94 7.25-16.19 16.19-16.19"
                clip-rule="evenodd" class="color009fe7 svgShape"></path>
            <path fill="#ee8100" fill-rule="evenodd"
                d="M867.64 655.52H731.23c-2.81 0-5.11 2.3-5.11 5.11v32.66c0 2.81 2.3 5.11 5.11 5.11h136.41c2.81 0 5.11-2.3 5.11-5.11v-32.66c0-2.81-2.3-5.11-5.11-5.11"
                clip-rule="evenodd" class="coloree8100 svgShape"></path>

            <path fill="#009fe7" fill-rule="evenodd"
                d="m582.01 675.66-1.16-9.19 9.87-.01-1.59 9.11c7.95.96 13.1 4.8 15.47 11.51l-11.61 3.51c-1.15-3.14-3.55-4.72-7.18-4.76-3.05-.03-4.58.94-4.61 2.91 0 .72.25 1.33.77 1.84.51.51 1.93 1.03 4.27 1.56 5.33 1.2 9.15 2.27 11.47 3.21 2.31.95 4.23 2.54 5.74 4.76 1.52 2.22 2.26 4.83 2.23 7.84-.04 4.21-1.57 7.73-4.59 10.54-3.03 2.82-7.17 4.5-12.43 5.04l1.47 9.26-10.4.09 1.82-9.42c-8.89-1.14-14.44-5.9-16.65-14.24l12.95-2.28c1.07 3.79 3.84 5.71 8.32 5.75 3.49.04 5.25-.91 5.27-2.82.01-1.01-.39-1.81-1.2-2.37-.8-.57-2.24-1.08-4.31-1.53-8.11-1.72-13.25-3.87-15.4-6.45-2.16-2.58-3.21-5.54-3.18-8.86.03-3.67 1.26-6.91 3.67-9.74 2.42-2.81 6.08-4.56 10.99-5.26"
                clip-rule="evenodd" class="color009fe7 svgShape"></path>
            <path fill="#ffffff" fill-rule="evenodd"
                d="M899.71 438.57h252.48c2.45 0 4.45 2 4.45 4.44 0 2.44-2 4.44-4.45 4.44H899.71c-2.44 0-4.44-2-4.44-4.44a4.45 4.45 0 0 1 4.44-4.44M899.71 471.54h252.48c2.45 0 4.45 2 4.45 4.44 0 2.44-2 4.44-4.45 4.44H899.71c-2.44 0-4.44-2-4.44-4.44 0-2.45 1.99-4.44 4.44-4.44M899.71 504.51h252.48c2.45 0 4.45 2 4.45 4.44 0 2.44-2 4.44-4.45 4.44H899.71c-2.44 0-4.44-2-4.44-4.44 0-2.45 1.99-4.44 4.44-4.44M899.71 537.47h252.48c2.45 0 4.45 2 4.45 4.44 0 2.44-2 4.44-4.45 4.44H899.71c-2.44 0-4.44-2-4.44-4.44a4.45 4.45 0 0 1 4.44-4.44M899.71 570.44h252.48c2.45 0 4.45 2 4.45 4.44 0 2.44-2 4.44-4.45 4.44H899.71c-2.44 0-4.44-2-4.44-4.44a4.45 4.45 0 0 1 4.44-4.44M899.71 603.41h252.48c2.45 0 4.45 2 4.45 4.44 0 2.44-2 4.44-4.45 4.44H899.71c-2.44 0-4.44-2-4.44-4.44a4.45 4.45 0 0 1 4.44-4.44M899.71 636.38h252.48c2.45 0 4.45 2 4.45 4.44 0 2.44-2 4.44-4.45 4.44H899.71c-2.44 0-4.44-2-4.44-4.44a4.45 4.45 0 0 1 4.44-4.44M899.71 671.53h252.48c2.45 0 4.45 2 4.45 4.44 0 2.44-2 4.44-4.45 4.44H899.71c-2.44 0-4.44-2-4.44-4.44a4.45 4.45 0 0 1 4.44-4.44M899.71 704.5h252.48c2.45 0 4.45 2 4.45 4.44 0 2.44-2 4.44-4.45 4.44H899.71c-2.44 0-4.44-2-4.44-4.44a4.45 4.45 0 0 1 4.44-4.44"
                clip-rule="evenodd" class="colorfff svgShape"></path>
            <path fill="#fba600" fill-rule="evenodd"
                d="m1263.62 438.72-12.89-1.08c-5.39-.46-9.89-4.43-10.86-9.74a124.736 124.736 0 0 0-9.4-29.42c-2.26-4.92-.92-10.76 3.22-14.24l9.87-8.37c5.14-4.33 5.79-11.99 1.47-17.12l-16.01-18.93c-4.33-5.13-12.01-5.76-17.13-1.43l-9.89 8.35c-4.14 3.5-10.11 3.84-14.58.79a124.393 124.393 0 0 0-27.44-14.17c-5.08-1.86-8.24-6.94-7.77-12.34l1.07-12.89c.57-6.69-4.41-12.56-11.1-13.13l-24.7-2.07c-6.68-.57-12.56 4.4-13.13 11.09l-1.08 12.89c-.46 5.39-4.42 9.88-9.74 10.87-10.27 1.91-20.13 5.1-29.41 9.38-4.93 2.29-10.75.93-14.26-3.21l-8.35-9.88c-4.33-5.13-12-5.78-17.12-1.43l-18.94 15.99c-5.13 4.33-5.76 12-1.43 17.13l8.35 9.89c3.5 4.14 3.85 10.12.77 14.58a125.914 125.914 0 0 0-14.17 27.44c-1.85 5.09-6.93 8.24-12.33 7.79l-12.89-1.09c-6.69-.57-12.56 4.4-13.13 11.09l-2.08 24.7c-.56 6.69 4.41 12.56 11.09 13.13l12.89 1.08c5.39.46 9.87 4.41 10.87 9.75a123.77 123.77 0 0 0 9.38 29.4c2.29 4.93.94 10.76-3.2 14.26l-9.9 8.35c-5.13 4.33-5.77 12-1.43 17.13l15.98 18.93c4.34 5.13 12.02 5.77 17.15 1.44l9.87-8.36c4.16-3.5 10.12-3.85 14.6-.77 8.44 5.77 17.63 10.56 27.43 14.16 5.08 1.86 8.26 6.95 7.8 12.34l-1.08 12.89c-.57 6.69 4.4 12.58 11.09 13.13l24.7 2.09c6.67.55 12.56-4.42 13.14-11.11l1.06-12.89c.46-5.39 4.43-9.86 9.76-10.87 10.25-1.91 20.11-5.1 29.39-9.38 4.92-2.27 10.75-.94 14.25 3.21l8.34 9.89c4.34 5.13 12.02 5.78 17.15 1.45l18.93-16c5.13-4.33 5.77-12 1.43-17.13l-8.35-9.89c-3.5-4.14-3.85-10.1-.8-14.58a122.87 122.87 0 0 0 14.18-27.43c1.88-5.08 6.93-8.24 12.32-7.78l12.91 1.08c6.69.57 12.58-4.4 13.13-11.09l2.08-24.7a12.13 12.13 0 0 0-11.08-13.17m-81.84 29.18c-6.89 27.41-31.18 47.93-59.36 50.15-46.5 3.67-82.3-38.72-70.93-83.97 6.9-27.39 31.18-47.92 59.35-50.13 46.51-3.68 82.32 38.7 70.94 83.95z"
                clip-rule="evenodd" class="colorfba600 svgShape"></path>
            <path fill="#ffffff" fill-rule="evenodd"
                d="M1070.37 379.07c-18.9 12.18-32.08 31.18-36.84 53.15a84.41 84.41 0 0 0 11.54 63.64c12.17 18.9 31.18 32.08 53.15 36.84a84.41 84.41 0 0 0 63.64-11.54c18.9-12.17 32.07-31.18 36.83-53.15 4.76-21.94.62-44.76-11.53-63.64-12.17-18.9-31.18-32.08-53.15-36.83-21.94-4.76-44.76-.62-63.64 11.53m64.8-16.9c23.4 5.07 43.65 19.1 56.61 39.23a89.843 89.843 0 0 1 12.28 67.76c-5.07 23.4-19.1 43.65-39.24 56.61-20.09 12.94-44.39 17.34-67.76 12.28-23.4-5.07-43.64-19.1-56.61-39.23-12.94-20.1-17.34-44.4-12.29-67.76 5.07-23.4 19.1-43.64 39.23-56.61 20.12-12.94 44.42-17.34 67.78-12.28z"
                clip-rule="evenodd" class="colorfff svgShape"></path>
            <path fill="#ffffff"
                d="M1108.79 550.95c-17.67-1.2-35.24-7.06-50.82-17.94-.61-.42-1.21-.86-1.8-1.29l-1.41 2.99 1.35.96c15.89 11.09 33.79 17.14 51.81 18.47l.87-3.19zm75.24-174.82c15.13 13.9 25.21 31.68 29.76 50.71l3.08-1.05c-4.73-19.55-15.12-37.81-30.68-52.09l-2.16 2.43zm-114.44-15.51c9-4.62 18.61-7.84 28.48-9.59 2.15-.38 4.32-.69 6.49-.94l-.38-3.22c-2.24.25-4.47.57-6.69.96-10.08 1.79-19.9 5.06-29.1 9.75l1.2 3.04z"
                class="colorfff svgShape"></path>
            <path fill="#fba600" fill-rule="evenodd"
                d="m1445.5 406.23-7.9-4.06c-3.3-1.7-5.11-5.39-4.34-9.02a85.727 85.727 0 0 0 1.72-21.12 8.302 8.302 0 0 1 5.76-8.2l8.45-2.73c4.38-1.4 6.81-6.1 5.4-10.48l-5.2-16.19c-1.41-4.39-6.12-6.79-10.5-5.38l-8.45 2.72c-3.55 1.14-7.42-.2-9.46-3.31a85.175 85.175 0 0 0-13.71-16.16c-2.74-2.51-3.42-6.55-1.72-9.86l4.05-7.9c2.11-4.09.49-9.12-3.6-11.23l-15.14-7.77c-4.09-2.11-9.12-.49-11.22 3.6l-4.06 7.9c-1.7 3.3-5.38 5.11-9.01 4.36a85.698 85.698 0 0 0-21.12-1.73c-3.72.16-7.07-2.22-8.21-5.76l-2.71-8.45a8.32 8.32 0 0 0-10.49-5.38l-16.2 5.2c-4.39 1.41-6.79 6.11-5.38 10.5l2.72 8.45c1.14 3.54-.21 7.43-3.32 9.45a86.228 86.228 0 0 0-16.16 13.71c-2.5 2.74-6.55 3.41-9.86 1.72l-7.9-4.06c-4.09-2.11-9.13-.49-11.23 3.61l-7.77 15.13c-2.09 4.1-.48 9.12 3.61 11.23l7.9 4.05c3.3 1.7 5.11 5.38 4.35 9.02-1.48 7.01-2.02 14.09-1.73 21.1.17 3.72-2.21 7.07-5.74 8.21l-8.46 2.71a8.33 8.33 0 0 0-5.38 10.5l5.19 16.18c1.41 4.39 6.11 6.8 10.5 5.39l8.44-2.72c3.55-1.13 7.43.2 9.46 3.32a85.798 85.798 0 0 0 13.7 16.15c2.74 2.51 3.42 6.57 1.73 9.87l-4.06 7.89c-2.11 4.09-.49 9.13 3.61 11.23l15.13 7.78c4.08 2.09 9.12.48 11.23-3.61l4.05-7.9c1.7-3.3 5.38-5.1 9.03-4.35a85.498 85.498 0 0 0 21.1 1.73c3.72-.16 7.07 2.21 8.21 5.76l2.71 8.45c1.41 4.39 6.11 6.81 10.5 5.4l16.19-5.21c4.39-1.41 6.81-6.1 5.39-10.49l-2.72-8.46c-1.14-3.54.2-7.42 3.31-9.46a84.148 84.148 0 0 0 16.16-13.7c2.52-2.73 6.55-3.42 9.86-1.71l7.91 4.05c4.09 2.11 9.13.49 11.23-3.61l7.76-15.13a8.33 8.33 0 0 0-3.61-11.23m-59.55-2.87c-11.53 15.59-32.3 22.26-50.76 16.31-30.46-9.82-42.1-46.07-23.07-71.81 11.54-15.58 32.3-22.26 50.75-16.3 30.47 9.82 42.13 46.07 23.08 71.8z"
                clip-rule="evenodd" class="colorfba600 svgShape"></path>
            <path fill="#ffffff" fill-rule="evenodd"
                d="M1316.33 325.53c-13.17 8.48-22.35 21.72-25.67 37.03a58.749 58.749 0 0 0 8.05 44.34c8.47 13.17 21.71 22.35 37.03 25.66 15.29 3.31 31.18.43 44.34-8.04 13.17-8.48 22.35-21.72 25.67-37.03a58.78 58.78 0 0 0-8.04-44.34c-8.48-13.17-21.72-22.35-37.04-25.66a58.834 58.834 0 0 0-44.34 8.04m45.15-11.77a62.53 62.53 0 0 1 39.44 27.34c9.01 14 12.08 30.94 8.56 47.21-3.54 16.3-13.31 30.41-27.33 39.44a62.611 62.611 0 0 1-47.21 8.56c-16.31-3.53-30.41-13.31-39.45-27.33a62.648 62.648 0 0 1-8.56-47.21c3.54-16.3 13.31-30.41 27.33-39.44a62.543 62.543 0 0 1 47.22-8.57z"
                clip-rule="evenodd" class="colorfff svgShape"></path>
            <path fill="#ffffff"
                d="M1343.09 445.29a69.964 69.964 0 0 1-35.4-12.5c-.43-.29-.84-.6-1.26-.9l-.99 2.09.95.67c11.06 7.73 23.54 11.94 36.09 12.87l.61-2.23zm52.42-121.8c10.54 9.68 17.56 22.07 20.74 35.33l2.14-.73c-3.3-13.62-10.53-26.34-21.37-36.29l-1.51 1.69zm-79.73-10.81a70.347 70.347 0 0 1 24.37-7.33l-.27-2.25c-1.55.17-3.11.4-4.65.67a73.005 73.005 0 0 0-20.28 6.79l.83 2.12z"
                class="colorfff svgShape"></path>
            <path fill="#ffffff" fill-rule="evenodd"
                d="M869.21 715.53h-61.89c-1.61 0-2.92 1.41-2.92 3.13s1.31 3.13 2.92 3.13h61.89c1.61 0 2.92-1.41 2.92-3.13-.01-1.73-1.32-3.13-2.92-3.13M869.21 736.23h-61.89c-1.61 0-2.92 1.41-2.92 3.13s1.31 3.13 2.92 3.13h61.89c1.61 0 2.92-1.41 2.92-3.13-.01-1.72-1.32-3.13-2.92-3.13"
                clip-rule="evenodd" class="colorfff svgShape"></path>
            <path fill="#1a47b5"
                d="M917.77 949.34h40.5a3.75 3.75 0 0 0 3.72-3.25c.03-.26.04-.52.02-.79l-1.28-16.54-14.04.46v-12.9c-.64.39-1.13 1.03-1.38 1.94-.14.52-.27 1.02-.37 1.5-.02.12-.05.24-.07.36-.17.86-.3 1.65-.39 2.34l-.01.04c-.22 1.76-.2 2.89-.2 2.89-.54.68-1.05 1.35-1.56 2.01-.26.33-.5.66-.75.98-.53.69-1.05 1.37-1.56 2.01-.24.31-.47.6-.7.89-.56.71-1.12 1.37-1.67 1.99-.25.28-.5.56-.76.82-2.09 2.19-4.19 3.7-6.68 4.04-4.39.6-11.57 1.09-15.03 7.53-.07.13-.13.27-.18.41-.5 1.58.67 3.27 2.39 3.27"
                class="color1a47b5 svgShape"></path>
            <path fill="#000446" d="M917.77 949.34h40.5a3.75 3.75 0 0 0 3.72-3.25h-46.6c-.51 1.56.66 3.25 2.38 3.25"
                class="color000446 svgShape"></path>
            <path fill="#0096d5" fill-rule="evenodd"
                d="M948.15 695.7c-5.7 12.66-12.78 24.47-29.1 26.93-13.24 2-45.54-23.13-45.54-28.46 0-5.34 7.77-13.67 7.77-13.67s28.43 17.16 31.96 15.98c2.66-.89 15.63-13.14 23.59-20.42 1.69-1.54 13.77 14.2 11.32 19.64"
                clip-rule="evenodd" class="color0096d5 svgShape"></path>
            <path fill="#0096d5" fill-rule="evenodd"
                d="M952.48 670.03h30.95c7.49 0 18.28 3.76 22.81 9.06 6.49 7.61 3.96 92.7 1.98 104.56l-2.27 1.61c0 47.4 6.84 97.58 4.45 142.91l-18.72.23-23.86-117.73-11.39-24.95-19.47-1.56-5.27-.7 5.13-107.38c4.3-3.62 9.64-6.05 15.66-6.05"
                clip-rule="evenodd" class="color0096d5 svgShape"></path>
            <path fill="#ffffff" fill-rule="evenodd"
                d="M955.53 670.03c-2.05 15.37 5.32 79.31 7.09 96.11.54-1.32 14.94-84.26 16.34-96.11h-13.98c-3.15 0-6.75-.39-9.45 0"
                clip-rule="evenodd" class="colorfff svgShape"></path>
            <path fill="#f6cbce" fill-rule="evenodd"
                d="M947.33 654.73c-1.09 7.22 7.2 12.72 12.82 12.24v3.3l-.29.41c-1.97 5.11 3.57 8.39 5.4 10.14 1.68-1.28 10.64-3.73 10.85-10.8h-.36v-12.41c.4-.12.84-.3 1.24-.54 1.24-.76 1.72-2.6 1.39-4.5-.33-1.9-2.98-.62-2.98-.62 2.29-5.64 5.23-10.51-.68-13.65-5.91-3.14-17.83-2.9-17.83-2.9l-7.15-.74c1.94 3.08-1.69 15.29-2.41 20.07"
                clip-rule="evenodd" class="colorf6cbce svgShape"></path>
            <path fill="#ec8081" fill-rule="evenodd"
                d="M970.72 661.46c-2.51 6.73-4.9 9.23-10.57 10v-4.58c2.17-.21 7.47-2.05 10.57-5.42" clip-rule="evenodd"
                class="colorec8081 svgShape"></path>
            <path fill="#000446" fill-rule="evenodd" d="m934.33 783.8 37.12 1.14-6.73 143.7-23.52.77z"
                clip-rule="evenodd" class="color000446 svgShape"></path>
            <path fill="#1a47b5"
                d="M984.88 943.89c.34 5.91 21.28 3.87 24.63 2.1 1.29-.69 1.83-2.01 1.94-3.6.16-2.55-.79-5.81-1.61-8.37-1.34-4.16-1.16-4.08-2.09-6.93 0 0 .24-4.63-6.62-6.39-6.86-1.77-9.38 9.76-10.55 11.97-1.07 2.03-5.25 4.81-5.68 9.8-.04.45-.05.93-.02 1.42"
                class="color1a47b5 svgShape"></path>
            <path fill="#000446"
                d="M985.15 945.94c.41 3.83 21.01 3.45 24.36 1.68 1.29-.69 1.83-3.24 1.94-4.83-2.2 1.11-6.08 2.49-11.87 2.58-7.11.11-12.23-1.16-14.68-2.5-.04.45.22 2.58.25 3.07"
                class="color000446 svgShape"></path>
            <path fill="#ffffff" fill-rule="evenodd"
                d="M881.67 683.02c.53 3.25-3.4 8.37-5.98 10.33-.38-.68-4.53-5.64-4.53-5.64.52-3.44 3.56-7.1 5.6-8.04l4.91 3.35z"
                clip-rule="evenodd" class="colorfff svgShape"></path>
            <path fill="#f6cbce" fill-rule="evenodd"
                d="M875.07 678.03c-.26-1.59-1.36-7.88-2.43-8.98-.54-.56-.68-.33-.95 0-.23.29-.45 1.08-.41 1.64.08 1.16.12 2.22.26 2.85-3.26-1.99-6.29-6.45-8.61-9.51-.94-1.24-3.05-.29-2.19 1.89.23.58 4.19 5.91 4.2 6.55.07 3.05-9.62 7.62 8.02 15.95.95-.7 3.63-3.58 4.11-7.05l-2-3.34z"
                clip-rule="evenodd" class="colorf6cbce svgShape"></path>
            <path fill="#000446" fill-rule="evenodd"
                d="M941.77 622.67c-1.51 7.69 1.58 14.56 9.14 15.83 5.63.94 15.45-.2 19.85 3.92 2.18 2.04 2.16 4.67.58 9.95-.47 1.55-1.19 2.74 1.18 1.3 1.09-.66 2.9-1.62 3.61-1.17 1.57 1 1.12 3.53.06 4.45-.47.41-1.38 1.04-1.38 1.04s3.02.78 5.8-1.45c2.78-2.24 10.86-9.01 9.27-18.73-3.55-21.67-17.45-15.7-31.63-22.19-5.93-2.72-15.29.97-16.48 7.05"
                clip-rule="evenodd" class="color000446 svgShape"></path>
            <path fill="#0096d5" fill-rule="evenodd"
                d="M994.58 698.08c-3.52-7.24-5.17-16.5.56-22.23s18.06 5.44 21.58 12.68c6.9 14.21 11.51 46.99 4.21 56.01-5.97 7.37-44.02 5.47-49.04 4.12-1.17-.31-9.53-8.31-7.2-15.13.25-.73 1.75-1.03 2.92-1.03 6.84-.04 28.77-2.79 31.81-4.42 4.78-2.58-2.37-24.93-4.84-30"
                clip-rule="evenodd" class="color0096d5 svgShape"></path>
            <path fill="#ffffff" fill-rule="evenodd"
                d="M967.27 734.12c2.72 1.63 5.03 5.22 6.25 8.85 1.38 4.09 1.93 6.13-2.67 4.67-3.22-1.02-7.37-2.4-7.37-2.4-3.43-3.89-4.57-8.91-3.68-12.12l7.47 1z"
                clip-rule="evenodd" class="colorfff svgShape"></path>
            <path fill="#fba600" fill-rule="evenodd" d="m905.15 708.34 36.95 2.2 11.16 47.57-36.95-2.21z"
                clip-rule="evenodd" class="colorfba600 svgShape"></path>
            <path fill="#f3b0b0" fill-rule="evenodd"
                d="m960.19 733.82-5.18-.85-5.92-3.93s-2.35-2.6-3.22-2.23c-.16.07 1.39 4.91 1.2 5.06-1.54 1.19-11.46-.34-11.41-.16 4.75 15.87 15.15 8.19 26.47 11.79 1.67.53 1.99.34 1.89-1.1-.14-2.27-1.46-5.96-3.83-8.58"
                clip-rule="evenodd" class="colorf3b0b0 svgShape"></path>
            <path fill="#ffffff" fill-rule="evenodd"
                d="m914.75 707.59 4.13.25c0-.03-.01-.06 0-.09.04-.6 1.31-1.02 2.84-.93 1.54.09 2.75.65 2.71 1.26 0 .03-.01.06-.02.09l4.87.29.82 3.49-14.26-.85-1.09-3.51z"
                clip-rule="evenodd" class="colorfff svgShape"></path>
            <path fill="#000446" fill-rule="evenodd"
                d="m1006.4 784.94-.45.32c0 47.4 6.84 97.58 4.46 142.91l-18.72.23-23.86-117.73-11.39-24.95-9.73-.78h59.69z"
                clip-rule="evenodd" class="color000446 svgShape"></path>
            <path fill="#1a47b5"
                d="M1010.38 935.79c-.18-.62-.37-1.21-.55-1.77-1.34-4.16-1.16-4.08-2.09-6.93 0 0 .24-4.63-6.62-6.39-6.86-1.77-9.38 9.76-10.55 11.97-.46.87-1.49 1.87-2.54 3.13h22.35z"
                class="color1a47b5 svgShape"></path>
            <path fill="#86d2df"
                d="M1249.02 933.01c20.81 15.86 105.7 18.08 145.23 7.37 16.7-4.52 39.66-27.49 36.31-43.68-9.93 3.68-19.27 8.58-29.4 11.76-10.13 3.18-21.54 4.54-31.51.97-2.73-.98-5.75-3.41-4.43-5.75.44-.79 1.3-1.32 2.16-1.76 5.01-2.58 10.99-3.07 16.75-3.6 17.4-1.6 35.78-4.58 48.67-15.11 2.45-2 4.69-4.3 5.98-7.03 4.19-8.91-2.68-18.57-4.95-28.01-8.65 16.27-27.38 27.93-47.52 29.58-2.64.22-5.9-.04-7.01-2.18-1.53-2.94 2.46-5.63 5.75-7.02 11.97-5.1 23.15-11.66 33.13-19.45 2.22-1.74 4.44-3.59 5.88-5.9 4.73-7.62-.31-16.95-5.28-24.45-8.04 8.83-16.3 17.84-27.17 23.81-5.1 2.8-11.23 4.92-17.02 3.54-.75-.18-1.53-.45-1.93-1.04-.39-.58-.3-1.32-.12-1.97 1.54-5.5 8.31-8.12 13.79-11 11.91-6.25 23.63-9.48 26.35-21.54.75-3.34-2.68-12.73-5.7-16.91-3.83 6.41-9.08 12.15-15.36 16.78-3.48 2.57-8.44 4.85-12.27 2.71.41-5.8 6.26-9.89 11.17-13.73 4.9-3.84 9.69-9.59 7.24-14.99-1.45-3.2-5.06-5.14-7.7-7.66-3.46-3.28-5.4-7.79-5.29-12.28-2.06 4.2-8.26 5.15-13.4 4.89-5.13-.27-10.81-1.03-15 1.61-5.42 3.41-5.42 10.54-3.96 16.31 1.46 5.76 2.98 7.35-.98 12.09-1.75 2.11-10.99-1.35-4.01-23.85-39 4.93.72 26.5-14.04 38.78-7.78 6.47-19.47-16.05-10.99-30.45 0 0-33.95 4.39-26.65 24.53 7.31 20.14 17.7 19.71 13.28 30.13-4.42 10.42-23.37 2.12-26.45-29.76 0 0-30.92 22.23-22.34 34.27 8.58 12.04 23.47 23.59 47.25 29.11 9.84 2.29 5.63 16.51-10.18 9.95-15.8-6.56-35.12-11.8-46.9-37.21 0 0-26.46 34.13 10.18 42.44 5.76 1.3 29.53 4.38 27.51 12.98-2.01 8.6-30.06 1.57-43.09-9.13.01.01-24.51 27.97 4.02 41.85"
                class="color86d2df svgShape"></path>
            <path fill="#ffd015" fill-rule="evenodd" d="M1113.84 639.8h126.22l97.37 97.37 1.54 1.66v208h-225.13z"
                clip-rule="evenodd" class="colorffd015 svgShape"></path>
            <path fill="#fba600" fill-rule="evenodd" d="M1240.06 639.8v97.37h98.91z" clip-rule="evenodd"
                class="colorfba600 svgShape"></path>
            <path fill="#ffffff"
                d="M1137.5 751.51h174.27v5.85H1137.5zM1137.5 772.18h174.27v5.85H1137.5zM1137.5 792.85h174.27v5.85H1137.5zM1137.5 813.52h174.27v5.85H1137.5zM1137.5 834.19h174.27v5.85H1137.5zM1137.5 854.87h174.27v5.85H1137.5zM1137.5 875.54h174.27v5.85H1137.5zM1137.5 896.21h174.27v5.85H1137.5zM1137.5 727.73h59.33v5.85h-59.33z"
                class="colorfff svgShape"></path>
            <path fill="#ffe3b0" fill-rule="evenodd"
                d="M1144.11 679.2h45.11c3.05 0 5.54 2.5 5.54 5.55v13.81c0 3.05-2.49 5.55-5.54 5.55h-45.11c-3.05 0-5.54-2.5-5.54-5.55v-13.81c0-3.05 2.49-5.55 5.54-5.55"
                clip-rule="evenodd" class="colorffe3b0 svgShape"></path>
            <path fill="#102b6e" fill-rule="evenodd"
                d="M461.07 917.96c5.08 0 9.2 5.16 9.2 11.52 0 6.36-4.12 11.52-9.2 11.52-5.08 0-9.21-5.16-9.21-11.52 0-6.36 4.13-11.52 9.21-11.52"
                clip-rule="evenodd" class="color102b6e svgShape"></path>
            <path fill-rule="evenodd"
                d="M464.4 789.21c3.72 27.16-14.53 35.54 3.34 60.65 0 0 10.95-12.05 15.63-12.9 4.69-.85 5.31-15.59 5.31-16.34 0-.76-4.17-30.14-4.17-30.14l-20.11-1.27z"
                clip-rule="evenodd" fill="#000000" class="color000 svgShape"></path>
            <path fill="#f6cbce" fill-rule="evenodd"
                d="m460.14 960.76-25.33 7.6s-2.85 3.39-3.55 6.38c-.71 3-1.97 4.32-3.85 4.44-3.43.22-4.89-21.99-5.42-25.5l28.86-8.11 9.29 15.19z"
                clip-rule="evenodd" class="colorf6cbce svgShape"></path>
            <path fill="#092978" fill-rule="evenodd"
                d="M473.36 827.24h42.59c5.31 0 18.4 10.06 20.7 23.19 4.33 21.11 2.4 67.57-12.55 84.14l-16.95-.22-51.93-12.87v-87.66c4.92-4.1 11.25-6.58 18.14-6.58"
                clip-rule="evenodd" class="color092978 svgShape"></path>
            <path fill="#092978" fill-rule="evenodd"
                d="M515.95 827.38c21.03 2.07 22.99 28.49 22.71 44.98h-22.7l-.01-44.98z" clip-rule="evenodd"
                class="color092978 svgShape"></path>
            <path fill="#ffffff" fill-rule="evenodd"
                d="M481.45 826.7c-4.83 8.24.44 14.1 5.19 16.75 6.69-4.34 12.71-8.58 12.71-16.75 0 0 6.58-2.37 8.08 1.29-13.9 36.06-9.88 81.77-9.88 81.77-9.66-.3-35.4-4.6-35.61-3.84-1.04-8.79-.91-65.8 15.77-79.07l3.74-.15z"
                clip-rule="evenodd" class="colorfff svgShape"></path>
            <path fill="#f6cbce" fill-rule="evenodd"
                d="m518.02 872.52 20.65-.16c.02 12.47-20.3 41.27-44.4 41.27H464.2s6.39-8.19 14.82-8.88c8.42-.68 8.76.48 8.76.48 4.65.16 26.06-12.29 30.24-32.71"
                clip-rule="evenodd" class="colorf6cbce svgShape"></path>
            <path fill="#092978" fill-rule="evenodd"
                d="M421.28 913.64h89.98c1.02 0 2.02.1 2.99.28h.01c24.26 0 24.71 15.04 26.52 32.04h-119.5c-8.89 0-16.16-7.27-16.16-16.16s7.27-16.16 16.16-16.16"
                clip-rule="evenodd" class="color092978 svgShape"></path>
            <path fill="#092978" fill-rule="evenodd"
                d="M417.26 915.22c3.62-.82 7.6-2.1 11.88-1.55 13.33 1.73 92.66 25.72 92.66 25.72l-13.99 16.23c-16.35-1.03-81.91 4.77-94.39-3.8-13-8.93-15.99-32.08 3.84-36.6"
                clip-rule="evenodd" class="color092978 svgShape"></path>
            <path fill="#f6cbce" fill-rule="evenodd"
                d="M469.84 807.58c-1.72 6.28 6.11 16.91 11.62 16.6l-.01 2.52-.02.03c-4.79 8.23.46 14.07 5.2 16.72 6.67-4.33 12.67-8.55 12.71-16.67v-9.49c.47-.14.48.69 1.43.12.94-.58 3.04-4.84 2.66-7.03-.38-2.19-3.19-3.45-3.19-3.45 2.64-6.5 4.73-7.53-2.08-11.15-6.81-3.61-20.55-3.34-20.55-3.34l-6.23 2.09c-.27 6.04.13 6.96-1.54 13.05"
                clip-rule="evenodd" class="colorf6cbce svgShape"></path>
            <path fill="#ec8c8e" fill-rule="evenodd"
                d="M480.09 824.22c.45.01.91 0 1.38-.04 4.09-.07 7.6-.89 11.4-2.34 0 0-1.37 4.42-6.23 6.67-3.06 1.42-5.45 1.91-6.79 2.09.29-1.22.81-2.51 1.6-3.86l.02-.03.01-2.52-1.39.03z"
                clip-rule="evenodd" class="colorec8c8e svgShape"></path>
            <path fill="#092978" fill-rule="evenodd"
                d="M455.67 833.45c-11.57 10.32-18.29 24.57-22.4 39.51 7.58-.5 15.51-.46 23.02-.71l-.62-38.8z"
                clip-rule="evenodd" class="color092978 svgShape"></path>
            <path fill="#e7f4fb" fill-rule="evenodd"
                d="M476.51 861.86h-65.12c-2.51 0-5.12 2.12-4.57 4.56l9.73 43.04c.55 2.45 2.05 4.57 4.57 4.57h65.12c2.51 0 5.12-2.12 4.56-4.57l-9.73-43.04c-.55-2.45-2.05-4.56-4.56-4.56"
                clip-rule="evenodd" class="colore7f4fb svgShape"></path>
            <path fill="#93bae2" fill-rule="evenodd"
                d="M473.59 861.86h-65.12c-2.51 0-5.12 2.12-4.57 4.56l9.73 43.04c.55 2.45 2.06 4.57 4.57 4.57h65.12c2.51 0 5.12-2.12 4.57-4.57l-9.73-43.04c-.56-2.45-2.06-4.56-4.57-4.56"
                clip-rule="evenodd" class="color93bae2 svgShape"></path>
            <path fill="#ffffff" fill-rule="evenodd"
                d="M444.52 883.67c-1.97.63-2.95 3.06-2.19 5.42.76 2.36 2.97 3.76 4.94 3.13 1.97-.63 2.95-3.06 2.19-5.42-.76-2.36-2.97-3.76-4.94-3.13"
                clip-rule="evenodd" class="colorfff svgShape"></path>
            <path fill="#e7f4fb" fill-rule="evenodd" d="M521.7 909.76h-33.07v4.26h35.2v-2.13c0-1.16-.96-2.13-2.13-2.13"
                clip-rule="evenodd" class="colore7f4fb svgShape"></path>
            <path fill="#092978" fill-rule="evenodd"
                d="M522.16 914.57c-13.43.64-82.63 26.89-82.63 26.89l7.31 24.95c10.21-1.24 82.58-10.83 88.07-13.98 23.27-13.33 6.73-39.61-12.75-37.86"
                clip-rule="evenodd" class="color092978 svgShape"></path>
            <path fill-rule="evenodd"
                d="M489.49 796.83s-11.94 2.74-21.05.55c-11.49-2.77-6.92-15.54.38-20.71 10.97-7.75 30.37-4.64 36.63 8.53 8.06 16.96 8.61 24.08 25.86 33.68 7.01 3.89 13.39 8.13 14.24 19.92.1 1.4-2.56-.03-6.94-1.15 5.1 6.54.51 18.21-.58 19.57-1.72-29.94-32.43-29.22-38.84-29.97-.29-3.63-1.7-6.01-1.71-8.27 0 0 3.48-2.37 3.26-6.09-.22-3.72-.72-2.66-1.14-2.57-.43.09-2.86 1.5-2.86 1.5-.86-4.83-.67-14.45-7.25-14.99"
                clip-rule="evenodd" fill="#000000" class="color000 svgShape"></path>
        </svg></g>
</svg>