<svg id="SvgjsSvg2024" width="550" height="350" xmlns="http://www.w3.org/2000/svg" version="1.1"
    xmlns:xlink="http://www.w3.org/1999/xlink" xmlns:svgjs="http://svgjs.com/svgjs">
    <defs id="SvgjsDefs2025"></defs>
    <g id="SvgjsG2026"><svg xmlns="http://www.w3.org/2000/svg" viewBox="0 0 4680 3120" width="550" height="350">
            <g data-name="10">
                <rect width="4680" height="3120" fill="#ffffff" data-name="10" opacity="0" class="colorfff svgShape">
                </rect>
                <path fill="#f5f5f7"
                    d="M3937.3,803.51c-55-171.39-181.73-314.77-338.63-382.95-180.28-78.35-385.63-57.47-573.17-2S2660,562.29,2472.61,618.38s-392.44,78.29-573.36,1.66c-117.81-49.9-219.39-139.16-340.28-179.78-181.14-60.87-393.55,4.65-516.61,159.34s-149.58,389.53-64.49,571.13c21.17,45.19,49.1,89.19,52.42,139.61s-32.15,108.34-79,102.06c-55.37-7.42-78.19-78.43-130.09-93.67-28.7-8.43-60.18,3.85-82.31,25.15s-36.25,50.46-47.26,80a537.63,537.63,0,0,0-32.84,159.59c-2.63,51.66-10.43,102.85-11.48,155.06a1224,1224,0,0,0,37.51,327.73c55.58,217,176.09,412.81,335,560.28H3764.08c168-180.66,213.71-481.05,147.9-726-25.48-94.83-69.09-183.74-88.41-280.22s19.94-206.72,66.09-292.14C3974.41,1171.37,3992.24,974.91,3937.3,803.51Z"
                    class="colorf5f5f7 svgShape"></path>
                <path fill="#f2f2f2"
                    d="M847.81,958.51c-30.69-50.37-83.28-32.12-106.29,10.6-31,57.51-40.47,127.46-22.3,191.38,8.79,30.93,24.84,61.31,51.17,77.19s64.19,12.3,81.63-14.11c11.79-17.84,12.22-41.27,12.2-63.11l-.06-112.15C864.15,1017.36,863.61,984.44,847.81,958.51Z"
                    class="colorf2f2f2 svgShape"></path>
                <path fill="#40947e"
                    d="M1721.54,1394.71c-54.81-49-122.27-19.56-175.07,16.73-118.13,81.21-244.64,210.57-289.73,385.81-49.6,192.73-54.13,412-58.91,620.67-.66,28.81-7.94,88.82.55,128.68,20.34-5.32,40.88-10.15,61.75-12.62,8.43-26.46,14.8-56.42,19.64-72.3,56.53-185.61,136.85-356.52,244.75-490.64,95.68-118.93,217.37-186.33,249.35-378.07,9.91-59.46-1-132.47-34.64-178.54A125.37,125.37,0,0,0,1721.54,1394.71Z"
                    class="color40947e svgShape"></path>
                <path fill="#6fc183"
                    d="M1165.19,2517.87c-5.74-19.45-11.52-38.56-18.61-57.56-15.44-41.44-33.1-81.53-50-122-27.07-64.77-56.09-128.8-92.34-185.95-36.93-58.22-82.33-109.2-134.26-135.65-124.7-63.53-312.47,21.86-333.5,202.51-6.94,59.58,10.06,130.31,49,168.82,18.68,18.48,40.88,28.48,62.81,33.16a140.72,140.72,0,0,0,86.82-8.64c66.21-29.25,140.74-73,217.05-60.23a122.82,122.82,0,0,1,23,6.27c41,15.43,77.36,51.58,109.72,90.23,26.41,31.55,52.42,63.45,67.77,105.08l23-4.31c-.12-.44-.19-.92-.32-1.36C1172.37,2538.19,1168.4,2528.76,1165.19,2517.87Z"
                    class="color6fc183 svgShape"></path>
                <path fill="#2e6857"
                    d="M1107.53,1669.79c-47.32-127.15-122.08-244.1-217.45-303.24s-211.77-49.94-277.18,42.53c-12.43,17.57-23.07,38.24-27.38,62.62-10.67,60.28,19.14,126.74,53.58,176,29.46,42.1,63.44,78.48,100.21,107.27,38.41,30.08,79.71,51.86,117.22,84.25,44.35,38.29,81.12,89.12,112.74,145.62s58.1,118.75,81.83,179.8c23.89,61.48,44.27,125,63.65,188.82,9.61,31.63,53.12,142.51,62,198.79l2.43-.45,19.17-5.16c10.86-54.85-4.88-111.85-7.52-171.08C1180.6,2145.57,1189.36,1889.72,1107.53,1669.79Z"
                    class="color2e6857 svgShape"></path>
                <path fill="#1c1c1c"
                    d="M1231.5 2529.8l-6.49-1.06q4.37-26.65 8.7-53.62c22.16-137 45.07-278.65 80.8-410.23 40.46-149 92.19-263.78 158.14-350.88 43.35-57.26 91.52-107.74 138.1-156.56l4.76 4.54c-46.46 48.68-94.49 99-137.62 156-65.43 86.42-116.8 200.46-157 348.63-35.64 131.25-58.52 272.74-80.65 409.56Q1235.84 2503.13 1231.5 2529.8zM1161 2548.49c-36-67.87-74.73-138.9-118.44-196-46.33-60.48-92.91-99-146.59-121.24-76.16-30.15-149.68-6-208.75 13.36l-2-6.25c33.89-11.12 67.17-21.46 101.7-25.8 40.75-5.11 77.25-1 111.57 12.59 54.84 22.72 102.28 61.9 149.34 123.34 44 57.47 82.94 128.78 119 196.89zM1184.3 2537.75c-11.21-56.28-21-113.51-31.32-174.09-24.09-141.24-49-287.28-93-417.6-23.74-70.3-50.74-129.54-82.53-181.11-35.8-58.07-76.58-104.78-124.66-142.77l4.07-5.17c48.71 38.49 90 85.75 126.19 144.49 32.06 52 59.26 111.68 83.16 182.45 44.18 130.82 69.15 277.12 93.29 418.6 10.33 60.54 20.09 117.73 31.28 173.91z"
                    class="color1c1c1c svgShape"></path>
                <path fill="#40947e"
                    d="M3609.43,1165.41a59.62,59.62,0,0,0-13.86,1.55c-28.32,6.56-51,33-59.58,61.61-27.67,92.38,20.59,166.69,43.25,252.72,25.55,97,28.09,199,14.73,298.1-1.14,8.48-4.74,23.44-6.46,37.7,10.39,9,20,18.75,29.5,28.68,13.69-13.47,23.79-41.35,30.12-53.66,45.87-89.15,94.33-182.66,113-282.12,17-90.44-19.46-192.51-62.65-271.25C3678.16,1203.54,3649.57,1165.65,3609.43,1165.41Z"
                    class="color40947e svgShape"></path>
                <path fill="#2e6857"
                    d="M3857.39,1659.62c-34.38,2.78-66.73,18.33-94.42,38.87-27.19,20.17-50.46,44.94-72.58,70.42-13.84,15.93-28.09,31.53-41.09,48.17-6,7.64-11.12,15.57-16.28,23.66-2.89,4.54-6.12,8.24-8.75,12.42-.11.18-.2.39-.31.58l13.93,6.33c13-16.75,31.7-26.94,50.68-36.87,23.24-12.18,48.79-22.42,75.46-22a95.81,95.81,0,0,1,14.74,1.33c48.36,8.22,91,42.76,129.58,68.91a125,125,0,0,0,53.11,20.28c14,1.89,28.56,1.32,41.67-3.91,27.29-10.88,43.67-41,44.28-70.42C4049.28,1728.26,3939.93,1653,3857.39,1659.62Z"
                    class="color2e6857 svgShape"></path>
                <path fill="#6fc183"
                    d="M4066.86,1421.22c-32.92-55.79-104.33-81.86-168.32-71.79s-120,51.24-159.81,102.34c-68.87,88.38-84.54,210.61-109.88,317.08-6.52,27.43-21,51.36-18.77,79.24l11.46,6,1.47.67c10.16-24.87,46.28-69,54.85-82.12,17.27-26.45,35.15-52.6,55-77.12,19.74-24.34,41.28-48.73,65.56-69.47s51.25-37.82,81.9-47.59c25.92-8.27,53.32-10.82,79.61-17.83a242.68,242.68,0,0,0,71-31.85c25.41-16.77,49.37-42.54,47.73-72.94C4078,1443.55,4073.11,1431.83,4066.86,1421.22Z"
                    class="color6fc183 svgShape"></path>
                <path fill="#1c1c1c"
                    d="M3607.09 1827.73l-3.49-1.06q3.89-12.83 7.86-25.75c20.1-65.64 40.89-133.52 52.6-201.93 13.23-77.24 12.7-144.42-1.61-205.38-9.44-40.2-23-79.48-36.09-117.47l3.45-1.19c13.13 38.08 26.71 77.44 36.19 117.82 14.43 61.45 15 129.1 1.66 206.83-11.76 68.65-32.58 136.64-52.71 202.39Q3611 1814.92 3607.09 1827.73zM3632.63 1856l-2.45-2.7c62.42-56.57 116.24-99.91 192.8-100.92 51 0 95.16 25.46 130.66 45.9l-1.82 3.17c-35.13-20.23-78.85-45.41-128.81-45.42C3747.75 1757.06 3694.47 1800 3632.63 1856zM3619.24 1846.42l-3.3-1.56c11.57-24.38 22.33-49.51 33.73-76.11 26.65-62.22 54.21-126.55 92.43-180 43.35-60.63 94.69-98.32 157-115.2l1 3.52c-61.43 16.66-112.11 53.88-154.95 113.8-38 53.15-65.47 117.3-92.05 179.34C3641.61 1796.82 3630.84 1822 3619.24 1846.42z"
                    class="color1c1c1c svgShape"></path>
                <ellipse cx="2394.61" cy="2628.07" fill="#7a8db0" rx="1750.45" ry="131.93" class="color7a8db0 svgShape">
                </ellipse>
                <path fill="#2f4171"
                    d="M3571,501,2043.93,525a110.92,110.92,0,0,0-115.11,114.61l65.47,1846a110.93,110.93,0,0,0,108.91,107.15l1422.61,25A110.94,110.94,0,0,0,3638.67,2509l39-1894.88A110.94,110.94,0,0,0,3571,501Z"
                    class="color2f4171 svgShape"></path>
                <path fill="#3d5891"
                    d="M3515.82,503.87,1988.76,527.79A110.93,110.93,0,0,0,1873.65,642.4l65.47,1846A110.93,110.93,0,0,0,2048,2595.5l1422.61,25a110.93,110.93,0,0,0,112.85-108.63l39-1894.88A110.94,110.94,0,0,0,3515.82,503.87Z"
                    class="color3d5891 svgShape"></path>
                <path fill="#d1dbed"
                    d="M3450.52,627.73,2062.46,657a81.53,81.53,0,0,0-84.61,84.24l1.47,41L2035.92,2369a97.37,97.37,0,0,0,95.62,94.07l1249.06,22a97.4,97.4,0,0,0,99.09-95.38L3492,671.09A43.08,43.08,0,0,0,3450.52,627.73Z"
                    class="colord1dbed svgShape"></path>
                <path fill="#b5cae8"
                    d="M3450.52,627.73,2062.46,657a81.53,81.53,0,0,0-84.61,84.24s1123.6-54.52,1269.46,13.55C3412.9,832,3343,2131,3100.12,2252.44c-203.87,101.93-827.78,172.75-1022.9,192.87a96.88,96.88,0,0,0,54.32,17.71l1249.06,22a97.4,97.4,0,0,0,99.09-95.38L3492,671.09A43.08,43.08,0,0,0,3450.52,627.73Z"
                    opacity=".32" class="colorb5cae8 svgShape"></path>
                <path fill="#2f4171"
                    d="M3085.69,540.2a111.67,111.67,0,0,0-113.8-92.13l-133.37,4.61c-1-36.38-11.14-83.35-67.56-90-123-14.41-172.46,31.81-180.63,60.41a219.34,219.34,0,0,0-7.44,38.37l-137.67,4.75a105.83,105.83,0,0,0-102.07,101.09l-2.22,50.29a53.76,53.76,0,0,0,55.22,56.12l660.22-18.53a42.67,42.67,0,0,0,40.83-50.1Z"
                    class="color2f4171 svgShape"></path>
                <path fill="#ffffff"
                    d="M2489.64 582.59c-20.3-28.66 8.36-101.51-50.16-76.43 0 0-62.1 101.5-8.36 120.61s599.49 1.2 610.24-13.14S2509.94 611.25 2489.64 582.59zM2693.87 389.61c91.77 10.59 82.82 53.4 82.82 68.7s40.32 6.12 40.32 6.12C2812.3 362.07 2693.87 389.61 2693.87 389.61z"
                    opacity=".4" class="colorfff svgShape"></path>
                <polygon fill="#3d5891" points="2292.93 930.63 2289.4 933.96 2292.93 937.61 2292.93 930.63"
                    class="color3d5891 svgShape"></polygon>
                <polygon fill="#3d5891" points="2292.93 909.7 2265.93 909.7 2289.4 933.96 2292.93 930.63 2292.93 909.7"
                    class="color3d5891 svgShape"></polygon>
                <polygon fill="#3d5891" points="2265.93 847.5 2292.93 847.5 2292.93 819.9 2265.93 847.5"
                    class="color3d5891 svgShape"></polygon>
                <path fill="#3d5891"
                    d="M2380,946.86q-21.24,9.25-50.36,9.25h-4.23l38.51,56.43h64.32l-45.83-66.77C2381.62,946.14,2380.81,946.51,2380,946.86Z"
                    class="color3d5891 svgShape"></path>
                <polygon fill="#3d5891"
                    points="2289.4 933.96 2265.93 956.11 2292.93 956.11 2292.93 937.61 2289.4 933.96"
                    class="color3d5891 svgShape"></polygon>
                <path fill="#3d5891"
                    d="M2380,946.86c.81-.35,1.62-.72,2.41-1.09l-7.27-10.59h-64l14.28,20.93h4.23Q2358.76,956.11,2380,946.86Z"
                    class="color3d5891 svgShape"></path>
                <path fill="#3d5891"
                    d="M2375.14 935.18l7.27 10.59q19.47-9.16 30.2-25.45Q2424 903 2424 878.45q0-24-11.38-41.72T2380 809.58q-21.24-9.41-50.36-9.4h-96.78v212.36h60.07V956.11h-27L2289.4 934l-23.47-24.26h27V847.5h-27l27-27.6v27.6H2326q18.8 0 28.21 8.35t9.41 22.6q0 14.87-9.41 23.06T2326 909.7h-33.07v46.41h32.48l-14.28-20.93zM2595.4 916.37q0 27-10.47 38.83T2555.65 967q-18.81 0-29.43-11.84t-10.61-38.83V800.18h-60.07v118q0 47 26.24 72.81t73.27 25.79q46.71 0 73.26-25.79t26.55-72.81v-118H2595.4z"
                    class="color3d5891 svgShape"></path>
                <polygon fill="#3d5891"
                    points="2755.88 800.18 2695.81 800.18 2695.81 1012.54 2856.91 1012.54 2856.91 964.91 2755.88 964.91 2755.88 800.18"
                    class="color3d5891 svgShape"></polygon>
                <rect width="4.25" height="44.6" x="2935.78" y="882.39" fill="#3d5891" class="color3d5891 svgShape">
                </rect>
                <rect width="94.35" height="44.6" x="2940.03" y="882.39" fill="#3d5891" class="color3d5891 svgShape">
                </rect>
                <polygon fill="#3d5891"
                    points="2940.03 926.99 2935.78 926.99 2935.78 882.39 2940.03 882.39 2940.03 846.9 3047.12 846.9 3047.12 800.18 2880.87 800.18 2880.87 1012.54 3051.07 1012.54 3051.07 965.82 2940.03 965.82 2940.03 926.99"
                    class="color3d5891 svgShape"></polygon>
                <path fill="#3d5891"
                    d="M3229.3,902.57a102.1,102.1,0,0,0-23.51-10.92,256,256,0,0,0-25.64-6.83q-12.89-2.73-23.51-5.31a60.53,60.53,0,0,1-17.29-6.67q-6.67-4.1-6.67-11.38a14.43,14.43,0,0,1,3.33-9.1q3.34-4.25,10.92-7t20-2.73a112.62,112.62,0,0,1,28.82,3.94,129.73,129.73,0,0,1,30,12.44L3244,814.74a121.25,121.25,0,0,0-35.65-14.11,180.76,180.76,0,0,0-41.11-4.7q-31.25,0-52.18,9.4t-31.25,24.88a60.45,60.45,0,0,0-10.31,34.28q0,17,6.52,28.22a53.78,53.78,0,0,0,17.14,18.2,97.78,97.78,0,0,0,23.66,11.23,233.54,233.54,0,0,0,25.64,6.82q12.58,2.58,23.36,5.46a66.74,66.74,0,0,1,17.44,7q6.67,4.1,6.68,11.07a13.76,13.76,0,0,1-3.49,9.41q-3.49,3.95-10.92,6.07t-20.18,2.12a122.19,122.19,0,0,1-37.16-5.92,139.16,139.16,0,0,1-32.92-15l-19.72,44.59q14.86,10,39,16.54a193,193,0,0,0,50.51,6.52q31.54,0,52.48-9.4t31.4-25a60.06,60.06,0,0,0,10.47-34.13q0-16.68-6.67-27.76A53.83,53.83,0,0,0,3229.3,902.57Z"
                    class="color3d5891 svgShape"></path>
                <path fill="#ffffff"
                    d="M2494.79 1152.45l-159.45 6.43a50.36 50.36 0 00-48.54 50.95l1 118.86a54 54 0 0050.56 53.27l144.94 8.77h0c1.32.08 2.63.12 3.94.11a55.84 55.84 0 0055.24-54.52l3.13-133.91a48.86 48.86 0 00-50.81-50zm9.1 183a17.22 17.22 0 01-18.27 16.8l-144.94-8.77a15.27 15.27 0 01-14.3-15.07l-1-118.86a11.93 11.93 0 0111.51-12.07l159.44-6.43a10.28 10.28 0 0110.68 10.5zM2497.64 1496.77l-159.44 6.42a50.36 50.36 0 00-48.54 51l1 118.87a54 54 0 0050.56 53.27l144.94 8.77h0c1.32.08 2.63.11 3.94.1a55.84 55.84 0 0055.24-54.52l3.12-133.9a48.86 48.86 0 00-50.81-50zm9.11 183a17.25 17.25 0 01-18.27 16.8l-144.95-8.78a15.26 15.26 0 01-14.3-15.06l-1-118.87a11.94 11.94 0 0111.5-12.07l159.45-6.42a10.26 10.26 0 0110.67 10.5zM2500.42 1831.22L2341 1837.65a50.35 50.35 0 00-48.54 50.95l1 118.86a54 54 0 0050.55 53.27l145 8.77c1.32.08 2.63.12 3.94.11a55.84 55.84 0 0055.24-54.52l3.13-133.91a48.86 48.86 0 00-50.81-50zm9.1 183a17.23 17.23 0 01-18.27 16.8l-144.95-8.77a15.26 15.26 0 01-14.29-15.07l-1-118.86a11.93 11.93 0 0111.5-12.07l159.45-6.43h.35a10.26 10.26 0 0110.33 10.5z"
                    class="colorfff svgShape"></path>
                <path fill="#5681bf"
                    d="M2536.4 1146.73l-90.64 97.19c-42.29 41.49-46.34 19.7-70.83-5.84-6.65-6.94-18.57-20.23-18.57-20.23-5.68-4.9-13.88 1.86-10.15 8.37l55 92.24c10.18 20.33 31.07 12.21 43.24-7l99.74-157.4C2548 1148.94 2541.28 1142.57 2536.4 1146.73zM2542 1822.07l-90.64 97.19c-42.29 41.48-46.34 19.69-70.83-5.85-6.65-6.93-18.57-20.22-18.57-20.22-5.68-4.91-13.88 1.85-10.15 8.36l55 92.24c10.18 20.34 31.08 12.22 43.25-7l99.74-157.4C2553.63 1824.28 2546.88 1817.91 2542 1822.07z"
                    class="color5681bf svgShape"></path>
                <path fill="#ffffff"
                    d="M3100.37 1220.81a17.76 17.76 0 00-17.76-15.41l-412.27 3.42a17.77 17.77 0 00-17.63 17.92h0a17.77 17.77 0 0017.49 17.62l413.61 6.59a17.77 17.77 0 0017.9-20.14zM3101 1297.9a17.78 17.78 0 00-17.76-15.42L2671 1285.9a17.78 17.78 0 00-.14 35.55l413.61 6.58a17.76 17.76 0 0017.9-20.13zM3103.23 1565.13a17.79 17.79 0 00-17.77-15.42l-412.27 3.42a17.78 17.78 0 00-.13 35.55l413.61 6.58a17.77 17.77 0 0017.9-20.13zM3103.87 1642.21a17.78 17.78 0 00-17.77-15.41l-412.27 3.42a17.78 17.78 0 00-.13 35.55l413.61 6.58a17.77 17.77 0 0017.9-20.13zM3105.94 1892.89a17.77 17.77 0 00-17.76-15.41l-412.27 3.42a17.76 17.76 0 00-17.62 17.92h0a17.77 17.77 0 0017.49 17.63l413.61 6.58a17.78 17.78 0 0017.9-20.13zM3106.58 1970a17.76 17.76 0 00-17.76-15.41L2676.55 1958a17.77 17.77 0 00-.13 35.54l413.61 6.59a17.78 17.78 0 0017.9-20.14z"
                    class="colorfff svgShape"></path>
                <path fill="#5681bf"
                    d="M2568.89,1471.68c-27.86-2.69-65.8,22-92.71,43.26-30.31,23.9-56.95,51.6-64.25,63.56a8.68,8.68,0,1,0,14.82,9c12.28-20.11,99.66-102.56,140.46-98.58,7.83.76,12.7,4.82,15.79,13.16,18.53,50-81.55,171.63-184.63,224.39-32,16.4-89.62,38.19-115.3-.07-9.54-14.2-12.29-29.92-8.43-48.06,17.82-83.64,168.52-178.92,170-179.87a8.68,8.68,0,0,0-9.22-14.72,745.85,745.85,0,0,0-80.95,60.38c-56.06,48.14-88.64,92.08-96.85,130.58-4.83,22.66-1.13,43.31,11,61.37,13.13,19.56,33.2,29.27,58.83,29,22.34-.18,48.92-7.9,78.8-23.2,49.6-25.38,102.91-69,142.61-116.63,59.2-71,57-111.48,50.4-129.26C2593.89,1481.53,2583.38,1473.09,2568.89,1471.68Z"
                    class="color5681bf svgShape"></path>
                <path fill="#f5b0a6"
                    d="M1609.41,1171.48l-6.35,7.41-84.3,98.35s120.74,108.19,171.91,116.35c40.21,6.41,64-22.86,67.27-52.24A58.2,58.2,0,0,0,1756,1318C1745.61,1283.88,1609.41,1171.48,1609.41,1171.48Z"
                    class="colorf5b0a6 svgShape"></path>
                <path fill="#f18a8b"
                    d="M1609.41,1171.48l-6.35,7.41c-1.81,42.85,5.25,104.72,53.77,138.37,32.63,22.62,69.29,29.35,101.11,24.09A58.2,58.2,0,0,0,1756,1318C1745.61,1283.88,1609.41,1171.48,1609.41,1171.48Z"
                    class="colorf18a8b svgShape"></path>
                <path fill="#f5b0a6"
                    d="M1530.85 2597.69l-57.15-47.77 9.29-140.25-116.15 3 4.25 143.18 4.77 58.17h152a8.43 8.43 0 003-16.29zM984.35 2333.43L921.15 2462l-23 53.64 134.32 71.08a8.42 8.42 0 0010.29-13l-28.17-68.95 73.81-119.62z"
                    class="colorf5b0a6 svgShape"></path>
                <path fill="#2c4da2"
                    d="M1328.61,1516.66l-33.78-2.79c-38.59,79.82,1.2,253.54,1.2,253.54l30.75,308.35-2.51,173.77-3.69,255.19h189.9s28.88-218.84,37.3-449.24c2.42-65.91-16.12-522.08-16.12-522.08Z"
                    class="color2c4da2 svgShape"></path>
                <path fill="#223a70"
                    d="M1294.83,1513.87c-38.59,79.82,1.2,253.54,1.2,253.54l30.75,308.35-2.51,173.77,78.23-361.45-73.89-371.42Z"
                    opacity=".46" class="color223a70 svgShape"></path>
                <rect width="193.25" height="6.33" x="1319.02" y="2454.6" fill="#ffffff" class="colorfff svgShape">
                </rect>
                <path fill="#ffffff"
                    d="M1347.54,1926c-2.81-14.35-4.84-24.73-4.84-33.62h-6.33c0,9.51,2.08,20.13,5,34.84,5,25.45,12.5,63.91,13.66,125.93,3.61,191.84-9.57,448.84-9.71,451.41l6.32.33c.13-2.58,13.33-259.79,9.72-451.86C1360.14,1990.46,1352.55,1951.67,1347.54,1926Z"
                    class="colorfff svgShape"></path>
                <path fill="#2c4da2"
                    d="M1153.74,1533.39c-68.18,97.92-53,213.08-53,213.08l-35.29,329.28L945.81,2413l164.08,91.69s128-196.55,181-393.58c44.87-166.86,75.23-334.06,82.15-382.53,15.1-105.69,0-221.45,0-221.45Z"
                    class="color2c4da2 svgShape"></path>
                <rect width="6.33" height="197.99" x="1044.48" y="2317.98" fill="#ffffff"
                    transform="rotate(-59.8 1047.795 2417.094)" class="colorfff svgShape"></rect>
                <path fill="#ffffff"
                    d="M1174.28,1575.1c-34.61,56.49-34.67,107.66-31.62,133.14a221,221,0,0,1-.48,53.39c-22.52,180.68-37.63,293.91-40.4,302.89-15.34,49.69-129,360.39-130.14,363.52l5.94,2.17c1.15-3.13,114.86-314,130.25-363.82,4.14-13.43,29.79-217.06,40.62-304a227.07,227.07,0,0,0,.49-54.93c-3-24.66-2.87-74.22,30.74-129.08Z"
                    class="colorfff svgShape"></path>
                <path fill="#ffffff"
                    d="M1206.91 1654c-20.79 4.89-59.18 0-59.57-.06l-.82 6.28a313.6 313.6 0 0035.66 2.29c9.23 0 18.67-.59 26.18-2.35 9-2.12 35.5-29.92 40.72-35.47l-4.61-4.34C1232 1633.62 1212.14 1652.81 1206.91 1654zM1394.17 1695.83c-5.46 15.15-26.35 23.53-26.56 23.61l1.15 2.94-1.15-2.94 1.15 2.94 1.15 2.95c1-.38 23.78-9.49 30.21-27.36 5.11-14.2 8.73-36.86 10.75-67.34 1.5-22.59 1.52-41.32 1.52-41.51h-6.32C1406.07 1589.86 1405.93 1663.16 1394.17 1695.83z"
                    class="colorfff svgShape"></path>
                <path fill="#ffffff"
                    d="M1348.22 1826.67c-15.92 90.28-32 170.77-32.21 171.57l6.2 1.25c.16-.8 16.3-81.36 32.23-171.71 21.41-121.42 32.27-201.72 32.27-238.66h-6.33C1380.38 1625.18 1369.26 1707.32 1348.22 1826.67zM1461.62 1589l-6.32.2a145 145 0 002.73 22.21c3.31 16 8.85 26 16.45 29.52 12.69 5.94 55.89 18.66 57.72 19.2l1.79-6.07c-.45-.13-44.57-13.13-56.84-18.86C1465.47 1629.76 1462 1600 1461.62 1589z"
                    class="colorfff svgShape"></path>
                <path fill="#6fc183"
                    d="M1551,1069.88c-48.06-47.59-105.81-51.18-137.57-59.82a174.1,174.1,0,0,0-17.24-3.92l-2.56,20.72c-56.58,20.38-99-22.31-99-22.31l1.85-6.88c-6.22.62-13.32,1.45-21,2.6-40.71,5.87-98.61,19.54-133.24,51.11-73.29,66.87-111.79,194.67-111.79,194.67l110.91,46.7c-.58,3.68-1.15,7.35-1.72,11-22.5,146.38-30.38,295.06-30.38,295.06s89.26,22.07,201,27.21c75.8,3.49,162-.82,237.53-25.13,0,0-2.64-156.39-11.77-304.3l73.31-91,18.73-23.26s-.52-2.3-1.58-6.54C1620.93,1154.15,1577.5,1096.08,1551,1069.88Z"
                    class="color6fc183 svgShape"></path>
                <path fill="#40947e"
                    d="M1177,1415.55l-10-112s-10.47-.41-27.36.26c-22.5,146.38-30.38,295.06-30.38,295.06s89.26,22.07,201,27.21C1187.54,1574.32,1177,1415.55,1177,1415.55Z"
                    opacity=".36" class="color40947e svgShape"></path>
                <polygon fill="#5681bf"
                    points="993.79 1643.23 954.85 1845.57 1287.78 1909.65 1292.95 1882.77 1326.72 1707.31 1083.48 1660.49 993.79 1643.23"
                    class="color5681bf svgShape"></polygon>
                <path fill="#3d5891"
                    d="M1112.8,1783.81c-20.06-33-27.41-80.41-29.32-123.32l-89.68-17.26-38.95,202.34,332.93,64.08,5.17-26.88C1259.37,1875.41,1151.38,1847.32,1112.8,1783.81Z"
                    opacity=".4" class="color3d5891 svgShape"></path>
                <path fill="#2f4171"
                    d="M1322.5,1755.5l-11.88-2.28-21.87,113.67,11.87,2.28a8,8,0,0,0,9.33-6.31l18.87-98A8,8,0,0,0,1322.5,1755.5Z"
                    class="color2f4171 svgShape"></path>
                <path fill="#2f4171"
                    d="M1332.16,1798.53c-8.78-1.69-17.37,4.62-19.19,14.08s3.82,18.51,12.59,20.2,17.37-4.62,19.19-14.08S1340.93,1800.22,1332.16,1798.53Zm4.23,18.59c-.87,4.48-4.94,7.47-9.09,6.67s-6.83-5.09-6-9.57,4.94-7.47,9.09-6.67S1337.25,1812.63,1336.39,1817.12Z"
                    class="color2f4171 svgShape"></path>
                <path fill="#40947e"
                    d="M1144.91,1254.7c-45.9,2-114.47-8.65-114.47-8.65L1184.69,1311l84.09-151.32S1190.81,1252.74,1144.91,1254.7Z"
                    opacity=".36" class="color40947e svgShape"></path>
                <polygon fill="#f5b0a6"
                    points="1056.63 1265.82 1052.41 1284.89 1034.4 1366.41 1143.11 1415.55 1157.02 1350.27 1162.73 1323.52 1167.01 1303.53 1058.4 1257.82 1056.63 1265.82"
                    class="colorf5b0a6 svgShape"></polygon>
                <path fill="#f5b0a6"
                    d="M1168.67,1630.82c-3.85-54.29-12.8-172.47-20.86-200.79-7.54-26.52-22.71-62.59-60.08-77.89a91.06,91.06,0,0,0-12.12-4c-20.63-5.29-44.44,10.35-42.85,27.81,2.53,27.83,9.72,75.5,29.67,145.64,16.81,59.13,30.31,93.91,39.8,114-.75,1.41-1.38,3-2,4.52-4.78,12.34.85,38.89.85,38.89s-5.07,2.42-7.75,6.5,1.87,13.31,3.36,21,3.29,4.79,8.72,10.4,6.39,4.36,10.88,8.8,13.89-.57,23.13,4.93,20.22-1,20.22-1l6.94,8.5c6.89,8.57,23.91-1.54,25.84-8.26s17-21.1,18.37-25.31-6.6-14.31-9.68-23C1198.39,1674.32,1175.64,1641,1168.67,1630.82Z"
                    class="colorf5b0a6 svgShape"></path>
                <path fill="#f18a8b"
                    d="M1167.93 1725.79c24.46-10.76 19.76-22.78 19.76-22.78zM1142.46 1724c22.93-9.38 21.59-27.6 21.59-27.6zM1146.18 1694.31L1125 1718.93C1145.12 1710.83 1146.18 1694.31 1146.18 1694.31z"
                    class="colorf18a8b svgShape"></path>
                <polygon fill="#f18a8b"
                    points="1056.63 1265.82 1052.41 1284.89 1157.02 1350.27 1162.73 1323.52 1167.01 1303.53 1058.4 1257.82 1056.63 1265.82"
                    class="colorf18a8b svgShape"></polygon>
                <path fill="#40947e"
                    d="M1565,1201.93c-39.54-17.13-70.86-91.54-74.83-99.61,21.48,47.71,45.79,194.31,45.79,194.31l73.31-91a2.88,2.88,0,0,0,0-.74C1589.81,1204.89,1579.61,1208.25,1565,1201.93Z"
                    opacity=".36" class="color40947e svgShape"></path>
                <path fill="#373737"
                    d="M1396.23,1006.14l-2.56,20.73c-56.58,20.37-99-22.32-99-22.32l1.85-6.88c-6.22.62-13.32,1.46-21,2.6-1.72,6.18,6.44,16.68,19.19,28.14,22.58,20.38,101.3,38.23,114,6.44,3.88-9.75,5.07-18,4.81-24.79A174.15,174.15,0,0,0,1396.23,1006.14Z"
                    class="color373737 svgShape"></path>
                <path fill="#2f4171"
                    d="M1566.67,2589.23c-22.4-9.69-48.74-19.23-64.11-33.4s-21-18.28-21-18.28c-13-9.71-85.5,19.17-105.09-.5,0,0-12-2.47-12.17,11.13a58.26,58.26,0,0,1-.66,6.81c-.23,1.64-.52,3.45-.86,5.39-2.78,16.64-8.37,43-7.34,59.59.27,4.48,1,8.25,2.45,10.91l245.55,2.3a15.31,15.31,0,0,0,1.74-10.86C1603.68,2614,1595.59,2601.71,1566.67,2589.23Z"
                    class="color2f4171 svgShape"></path>
                <path fill="#ffffff"
                    d="M1477.54,2570.64c-1.84,1.92,1.4,4.47,3.22,2.57,11-11.57,27.08-13,38.68-1.37,1.88,1.88,4.43-1.37,2.57-3.23C1508.69,2555.29,1490.05,2557.54,1477.54,2570.64Z"
                    class="colorfff svgShape"></path>
                <path fill="#ffffff"
                    d="M1499.27,2580.79c-1.83,1.92,1.41,4.48,3.23,2.57,11-11.56,27.07-13,38.68-1.37,1.88,1.88,4.42-1.36,2.57-3.22C1530.43,2565.44,1511.78,2567.69,1499.27,2580.79Z"
                    class="colorfff svgShape"></path>
                <path fill="#ffffff"
                    d="M1521.75,2591.05c-1.83,1.92,1.41,4.48,3.23,2.57,11-11.56,27.07-13,38.68-1.36,1.87,1.87,4.42-1.37,2.57-3.23C1552.91,2575.7,1534.26,2578,1521.75,2591.05Z"
                    class="colorfff svgShape"></path>
                <path d="M1355.46,2620c.27,4.48,1,8.25,2.45,10.91l245.55,2.3a15.31,15.31,0,0,0,1.74-10.86Z" fill="none">
                </path>
                <path fill="#ffffff"
                    d="M1363.66,2555c-.23,1.64-.52,3.45-.86,5.39,8,6.89,19.44,20.07,20.16,39.43.54,14.56-5,24.67-10.89,31.24l5.81.06a47.49,47.49,0,0,0,9.75-31.48C1386.76,2576.45,1372.27,2561.73,1363.66,2555Z"
                    class="colorfff svgShape"></path>
                <path fill="#2f4171"
                    d="M1090.42,2581.38c-18.86-15.48-41.55-31.91-52.42-49.77s-15.13-23.35-15.13-23.35c-9.81-12.92-87.47-5.14-100.88-29.44,0,0-10.87-5.68-14.77,7.35a58.36,58.36,0,0,1-2.51,6.35c-.67,1.52-1.45,3.18-2.31,5-7.26,15.22-19.91,39-23.48,55.26-1,4.38-1.29,8.2-.66,11.15l235.42,69.88a15.29,15.29,0,0,0,4.66-10C1119.19,2615.34,1114.78,2601.35,1090.42,2581.38Z"
                    class="color2f4171 svgShape"></path>
                <path fill="#ffffff"
                    d="M1009.87,2539c-2.3,1.34.11,4.69,2.39,3.36,13.8-8.07,29.6-5,37.56,9.34,1.28,2.33,4.63-.09,3.36-2.39C1044,2532.78,1025.5,2529.8,1009.87,2539Z"
                    class="colorfff svgShape"></path>
                <path fill="#ffffff"
                    d="M1028,2554.7c-2.29,1.34.12,4.69,2.39,3.36,13.8-8.07,29.61-5,37.56,9.35,1.29,2.32,4.63-.1,3.36-2.4C1062.14,2548.53,1043.59,2545.55,1028,2554.7Z"
                    class="colorfff svgShape"></path>
                <path fill="#ffffff"
                    d="M1046.74,2570.76c-2.29,1.34.12,4.69,2.39,3.36,13.81-8.08,29.61-5,37.56,9.34,1.29,2.33,4.63-.09,3.36-2.39C1080.92,2564.59,1062.37,2561.61,1046.74,2570.76Z"
                    class="colorfff svgShape"></path>
                <path
                    d="M878.26,2563.89l235.42,69.88a15.29,15.29,0,0,0,4.66-10l-239.42-71.07C877.94,2557.12,877.63,2560.94,878.26,2563.89Z"
                    fill="none"></path>
                <path fill="#ffffff"
                    d="M902.4,2497.48c5.78,8.82,13.16,24.65,8.51,43.45-3.49,14.15-11.61,22.34-19.08,27l5.58,1.66a47.5,47.5,0,0,0,18-27.57c5.56-22.53-4.31-40.67-10.73-49.53C904,2494,903.26,2495.7,902.4,2497.48Z"
                    class="colorfff svgShape"></path>
                <path fill="#f18a8b"
                    d="M1452.27,852.49c-3.08-3.51-8.06-5.63-12.55-4.32s-7.68,6.65-5.82,10.94l.65,36.62c7.31,2,15.33-2.19,19.41-8.55s4.76-14.43,3.58-21.9C1456.82,860.66,1455.36,856,1452.27,852.49Z"
                    opacity=".31" class="colorf18a8b svgShape"></path>
                <path fill="#f5b0a6"
                    d="M1287.51,817.54c-13.9,23.18,1.66,73.77,12.75,95,7.56,14.48,29,41.71,39.39,52.14s95.6-2.89,112.4-19.7-39.4-164.34-39.4-164.34C1391.9,759.91,1301.41,794.37,1287.51,817.54Z"
                    class="colorf5b0a6 svgShape"></path>
                <path fill="#f5b0a6"
                    d="M1289.83,1002.59s45.57,57.19,79.17,57.19c17.38,0,47.13-30.27,47.13-30.27l4.63-81L1313,914.75Z"
                    class="colorf5b0a6 svgShape"></path>
                <path fill="#212121"
                    d="M1442,870.65c-.41,6.08.25,27.07-2.86,27.46-12.39,1.54-35.14,7.86-47,11.86-12.84,4.33-30.71,6.72-44,3.25-14.52-3.78-23.1-11-30.38-19.87-3.76-4.6-6-10.2-8.31-15.68-4.93-11.89-10.2-24.13-10-37a6,6,0,0,1,.42-2.46,6.2,6.2,0,0,1,1.51-1.8c16.33-14.7,36.58-12.8,57-13.07,23.13-.31,46-4.71,68.7-9.09,13-2.51,28.81-7.88,30.4-21,.65-5.28-1.41-10.52-4-15.17-13.6-24.47-42-37.86-69.91-40.28-45-3.9-88.79,11-114.58,50.66-4.41,6.77-8.19,14.31-8.47,22.39-.14,4.37.72,9-1,13-1.59,3.75-5.13,6.32-7.16,9.84-2.5,4.35-2.47,9.66-2.2,14.67,1.34,24.71,7,49.5,19.27,71,4.66,8.19,10.23,15.84,15.78,23.47,3,4.07,6.28,8.4,11.14,9.75s11.2-2.32,10.36-7.29c13.25,13.52,24.66,26.41,43.93,34.5,17.8,7.48,67.58,10.45,86,4.66,45.25-14.22,40-58.68,33.47-74.11C1464.35,896.65,1455.37,878.31,1442,870.65Z"
                    class="color212121 svgShape"></path>
                <path fill="#212121"
                    d="M1431 800c-1.47 4.1-4.88 7.21-8.17 9.91a60.55 60.55 0 01-11 7.1 84.36 84.36 0 01-24.57 7.69c-9.27 1.55-18.67 1.89-28 2.06-10.37.18-20.78.17-31.1 1.36a108.4 108.4 0 00-14.87 2.63 38.92 38.92 0 00-12.35 5.3 30 30 0 00-2.61 2c-.27.24.1.73.4.51a35.9 35.9 0 0112.43-5.83 90.3 90.3 0 0114.69-2.64c10.41-1.13 20.89-1.08 31.34-1.23a215.86 215.86 0 0028.76-1.81 89.83 89.83 0 0025.09-7.24 63.59 63.59 0 0011.27-6.8c3.48-2.64 7-5.61 9-9.58a16.37 16.37 0 001.17-3A.76.76 0 001431 800zM1464.46 888.62a49.45 49.45 0 00-15.64-12.9.4.4 0 00-.4.69 56.06 56.06 0 0122.84 26.66 67.67 67.67 0 014.76 19.25 56.23 56.23 0 01-.63 17.61c-1.23 5.57-3.79 10.86-8.5 14.29a.94.94 0 00.95 1.63c4.91-2.69 7.76-7.77 9.24-13a51.16 51.16 0 001.27-17.57C1477.36 912 1472.93 899 1464.46 888.62z"
                    class="color212121 svgShape"></path>
                <path fill="#ffffff"
                    d="M1427.91,914.77l-33.6,6.17a1.34,1.34,0,0,0-1,1.78c1.64,4.49,7.89,17.35,24.91,14.56,15.33-2.51,12.1-17.73,11-21.73A1.1,1.1,0,0,0,1427.91,914.77Z"
                    class="colorfff svgShape"></path>
                <path fill="#f5b0a6"
                    d="M1285.21,892.9c-2.26,2-3.47,4.85-4.2,7.74-3.8,15.09,5.37,32.31,20,37.58,9.51,3.42,21.54,2.14,22.08-10.16a19.17,19.17,0,0,0-1-6.11C1313.28,905.93,1298.14,881.77,1285.21,892.9Z"
                    class="colorf5b0a6 svgShape"></path>
                <path fill="#f18a8b"
                    d="M1302.49,917.74c-4.28-2.24,1-7.64.41-9.16-1.54-4.07-5.3-8.15-10.39-8.15s-2.85,10.18-2.85,10.18l20.16,21.78c6.1,0,4.88-7.32,2-10.17S1306.76,920,1302.49,917.74Z"
                    class="colorf18a8b svgShape"></path>
                <path fill="#40947e"
                    d="M1298.36 970.24L1264 1001.65s42 115.42 59.16 115.42c10 0 30.08-34.53 45.84-57.29C1343.22 1051.18 1298.36 970.24 1298.36 970.24zM1369 1059.78s33 47.27 41.54 47.27c14.32 0 25.82-92.8 25.82-92.8l-17.29-24.7S1404.81 1040.58 1369 1059.78z"
                    class="color40947e svgShape"></path>
                <path fill="#212121"
                    d="M1302.59,949.81a18.55,18.55,0,0,1-4.68,1.33,16.12,16.12,0,0,1-2.17.11,13.63,13.63,0,0,1-2-.21,20.54,20.54,0,0,1-8.43-3.88c-5.64-4.11-10.1-10.19-13.78-16.17a111.7,111.7,0,0,1-9.38-19,127.44,127.44,0,0,1-7.48-31.69,178.59,178.59,0,0,1-.37-32.7c.1-1.33.22-2.67.35-4,.06-.67-1.1-.83-1.19-.16a156.15,156.15,0,0,0-1.2,33.4,133.19,133.19,0,0,0,6.6,32.81,115.11,115.11,0,0,0,9.57,20.87c3.78,6.41,8.24,12.78,14,17.51a24.46,24.46,0,0,0,8.9,4.9,15.72,15.72,0,0,0,9.8-.38,19.77,19.77,0,0,0,2.39-1.2C1304.56,950.77,1303.65,949.35,1302.59,949.81Z"
                    class="color212121 svgShape"></path>
                <path fill="#f18a8b"
                    d="M1402.68,879.41c-7.53-10.83-12-30.94-12.07-31.15a1.88,1.88,0,1,0-3.68.81c.2.91,5,22.51,13.53,33.69a1.87,1.87,0,0,0,2.08.65c8.17-2.67,15.63-3.3,16.35-2,1,1.67-2.34,10.17-7.09,18.19a1.88,1.88,0,0,0,.67,2.58,1.85,1.85,0,0,0,1,.27,1.91,1.91,0,0,0,1.63-.93c2.35-4,9.81-17.31,7.1-22C1421.24,877.9,1417.52,874.8,1402.68,879.41Z"
                    class="colorf18a8b svgShape"></path>
                <path fill="#151515"
                    d="M1366.7 866.62c-2.54 1.37-3.28 4.9-1.66 7.88s5 4.27 7.52 2.89 3.28-4.91 1.66-7.89S1369.24 865.24 1366.7 866.62zM1416 852.89c-2.54 1.38-3.28 4.91-1.66 7.88s5 4.27 7.52 2.89 3.28-4.91 1.66-7.88S1418.56 851.51 1416 852.89z"
                    class="color151515 svgShape"></path>
                <path fill="#0d0d0d"
                    d="M1362.55 835.77c-7.63 2.36-14.82 19.26-10.54 26.61 0 0 7.14-11.1 17.65-17.41S1370.18 833.41 1362.55 835.77zM1404.85 824.1c-8.82.36-17.55 13.77-5.71 10.9s23 2.1 23 2.1S1416.26 823.63 1404.85 824.1z"
                    class="color0d0d0d svgShape"></path>
                <path fill="#f18a8b"
                    d="M1359.92 882.6c-10.63-.08-19.29 5.38-19.34 12.2s8.52 12.4 19.16 12.48 19.29-5.37 19.34-12.19S1370.55 882.68 1359.92 882.6zM1432.59 873c1.19 4.76 4.05 8.62 9.17 9.4.07-3.55.28-11.76.28-11.76s-3.7-12.44-5.92-18.31C1430.64 858.47 1430.66 865.32 1432.59 873z"
                    class="colorf18a8b svgShape"></path>
                <path fill="#525252"
                    d="M1334,814.51a4.23,4.23,0,0,1-3.44,3.93,9.78,9.78,0,0,1-2.28.31,18.35,18.35,0,0,1-2.57-.1,39.46,39.46,0,0,1-11.53-3.51c-4-1.79-7.89-3.87-11.75-6-3.4-1.85-6.77-3.73-10.32-5.26a30,30,0,0,0-9.12-2.76,13.32,13.32,0,0,0-8.43,1.91.29.29,0,0,0,.29.5,12.67,12.67,0,0,1,8.11-.62,41.82,41.82,0,0,1,8.22,2.76c3.61,1.64,7.06,3.58,10.53,5.49,4,2.2,8,4.36,12.15,6.19a43.4,43.4,0,0,0,12.27,3.76,14.13,14.13,0,0,0,5.93-.42,5.54,5.54,0,0,0,3.27-2.69,3.27,3.27,0,0,0-.31-3.93A.6.6,0,0,0,1334,814.51Z"
                    class="color525252 svgShape"></path>
                <path fill="#525252"
                    d="M1338.63 807.39a25.74 25.74 0 01-3.39-.23c-1.1-.14-2.22-.18-3.33-.33a41.54 41.54 0 01-6.68-1.57 93.59 93.59 0 01-12.58-5.26 60.36 60.36 0 00-12.63-4.69 36.35 36.35 0 00-12.69-.54 37.24 37.24 0 00-13.55 4.6c-.62.35-.07 1.26.55.94a38.21 38.21 0 0124.6-3.46c8.92 1.77 16.56 7 25 10.14a33.56 33.56 0 007.38 1.86 14.57 14.57 0 003.73.16 21.74 21.74 0 003.72-.84A.4.4 0 001338.63 807.39zM1425.75 774.33c-.83.71-1.7 1.38-2.47 2.16s-1.44 1.68-2.25 2.4a24 24 0 01-5.63 3.67c-1 .47-2 1-3 1.42-.5.21-.92.53-1.39.78a9.35 9.35 0 01-1.72.56 27.56 27.56 0 01-7.39 1.07c-2.8 0-5.59.2-8.39.12s-5.62-.55-8.41-.88-5.6-.74-8.39-1.16-5.66-.8-8.45-1.41c-5.53-1.21-11.13-2-16.72-2.92s-11.07-1.43-16.65-1.89a108.1 108.1 0 00-15.48-.25 99.68 99.68 0 00-14.16 2.08 69.73 69.73 0 00-13.41 4c-2.18.95-4.28 2-6.36 3.18a35.59 35.59 0 00-5.71 3.75c-.89.76-1.83 1.46-2.71 2.22-.11.09 0 .29.15.2a69.43 69.43 0 016-3.86 54 54 0 016.34-3.24 81.52 81.52 0 0113.55-4.49 67 67 0 017-1.28c2.4-.32 4.79-.42 7.2-.57a143.5 143.5 0 0115.1 0c5.64.24 11.27 1 16.86 1.8s11.23 2 16.88 2.73 11.18 2 16.78 2.83a84 84 0 008.52.89 81.43 81.43 0 008.41.21 24.29 24.29 0 004.23-.72c1.16-.27 2.33-.47 3.49-.74s2.16-.56 3.22-.9a10.89 10.89 0 011.59-.31 8.3 8.3 0 001.74-.59A29.56 29.56 0 001420 782c.93-.64 1.78-1.39 2.7-2.06a9.33 9.33 0 003.82-5.15C1426.64 774.3 1426.06 774.07 1425.75 774.33z"
                    class="color525252 svgShape"></path>
                <path fill="#525252"
                    d="M1367.26 795.14c-1.28-.49-2.55-1-3.83-1.45s-2.53-1-3.8-1.53c-2.57-1-5.22-1.83-7.84-2.68a108.21 108.21 0 00-15.27-3.81 88.19 88.19 0 00-15.65-1.16 117.87 117.87 0 00-15.48 1.1 75 75 0 00-17.08 4.27.2.2 0 00.1.39c5.06-1.22 10.1-2.48 15.25-3.23a91.31 91.31 0 0115.49-1.11 112.93 112.93 0 0130.65 4.9c2.87.89 5.68 1.92 8.56 2.78 1.45.43 3 .72 4.42 1.07a44.64 44.64 0 004.43.78C1367.41 795.48 1367.42 795.2 1367.26 795.14zM1400.33 748.39c-.2-.43-.83-.18-.85.23s-.13.94-.14 1.41 0 .94 0 1.41a11 11 0 01-.62 2.83 13 13 0 01-1.26 2.57c-.53.83-1 1.73-1.56 2.52-1.26 1.68-3.53 2.34-5.39 3.13a35.92 35.92 0 01-6.08 2 83.32 83.32 0 01-13.8 1.82c-4.78.3-9.57.33-14.35.29s-9.66-.13-14.5-.11-9.6.27-14.38.7c-9.62.86-18.77 3.8-27.59 7.61a84.64 84.64 0 00-11 5.4 23.73 23.73 0 00-8.13 7.52 18 18 0 00-1.18 2.42c-.21.53.68.91.93.39 3.47-7.23 11.32-10.57 18.31-13.47a123 123 0 0113.68-4.89 86.42 86.42 0 0114.07-2.67c2.43-.27 4.84-.54 7.28-.63s4.81-.14 7.21-.18c4.87-.08 9.74 0 14.61 0 9.48 0 19.15-.09 28.46-2.07a29.31 29.31 0 006.28-1.95A13.92 13.92 0 001393 763c.83-.65 1.54-1.39 2.3-2.11s1.53-1.28 2.26-2a8.89 8.89 0 001.72-2.28 13.07 13.07 0 001.65-5.6 5 5 0 000-1.34A7.62 7.62 0 001400.33 748.39zM1453.55 913.63a16.3 16.3 0 010 3.76c-.13 1.55-.34 3.11-.6 4.65a31.31 31.31 0 01-1.09 4.57 11.77 11.77 0 01-1.61 3.44c-.8 1.07-1.84 2-2.74 3-1.11 1.22-2.21 2.45-3.27 3.72a39.49 39.49 0 00-5.82 8.72 13.06 13.06 0 00-1.31 4.86 3.54 3.54 0 00.86 2.61 2.14 2.14 0 002.43.72.38.38 0 000-.72c-3.14-1-1.19-5.78-.26-7.71a40.39 40.39 0 015.79-8.42c1-1.2 2.08-2.38 3.15-3.54a24.87 24.87 0 002.44-2.79c1.52-2.28 2.13-5.22 2.55-7.88a22.12 22.12 0 00-.16-9.06C1453.84 913.31 1453.52 913.41 1453.55 913.63zM1459.84 920.38a23.63 23.63 0 01-2.86 15.76c-2.83 4.82-7.33 8.32-10.64 12.76a18.84 18.84 0 00-2.22 3.78 8.74 8.74 0 00-.71 2.11 15.61 15.61 0 00-.16 2.17.25.25 0 00.49.06 29.55 29.55 0 011.59-3.88 26.09 26.09 0 012-3.42 55.07 55.07 0 015.43-6.49 39.73 39.73 0 005.15-6.55 22.3 22.3 0 002.77-7.48 23.3 23.3 0 00-.19-9C1460.4 919.77 1459.77 920 1459.84 920.38zM1424.28 959.61a12.31 12.31 0 00-1.61-1.09 8.19 8.19 0 00-.92-.5c-.36-.15-.75-.21-1.11-.37-1.28-.56-2.56-1-3.87-1.54a21.39 21.39 0 00-2.21-.77 19 19 0 00-2.58-.41c-1.67-.2-3.35-.33-5-.42-3.52-.19-7.07 0-10.59.21-1.81.08-3.62 0-5.43.09s-3.62.15-5.43.18c-3.52 0-7.06 0-10.58-.1a79.36 79.36 0 01-10-1.09 61.61 61.61 0 01-8.7-2 47.86 47.86 0 01-9-4.1 38.31 38.31 0 01-7.91-6 .08.08 0 00-.12.11 31.59 31.59 0 003.1 3.13c1.09.91 2.23 1.77 3.4 2.57a39.4 39.4 0 007.52 4 59.58 59.58 0 0017.31 4.25 162.89 162.89 0 0021.42.26c1.81-.09 3.61-.25 5.42-.28s3.59-.06 5.38-.06a57.2 57.2 0 0110.13.6 32.35 32.35 0 015.33 1.11 13.32 13.32 0 012.27 1c.33.19.59.48.92.69s.65.39 1 .61a19.07 19.07 0 013.54 2.85 20.13 20.13 0 011.37 1.82c.47.63 1 1.2 1.52 1.79.19.22.5 0 .45-.26a6.41 6.41 0 00-1.91-3.46A36.28 36.28 0 001424.28 959.61z"
                    class="color525252 svgShape"></path>
                <path fill="#525252"
                    d="M1394.62 948.16a52.67 52.67 0 00-10.08 1.2 65.09 65.09 0 01-9.65 1 80.51 80.51 0 01-9.45-.31 56.86 56.86 0 01-9.51-1.84 98.33 98.33 0 01-10.06-3.55c-.14-.06-.22.15-.1.22 5.57 3.19 12 4.76 18.23 5.85a58.3 58.3 0 0019.19 0c3.87-.62 7.65-1.53 11.46-2.41C1394.76 948.34 1394.74 948.16 1394.62 948.16zM1409 971.88c-.46-.55-.86-1.12-1.36-1.64a11 11 0 00-3.32-2.17c-5.17-2.33-11-3.25-16.57-4.08-2.87-.42-5.75-.78-8.62-1.19s-5.82-.78-8.66-1.41a69.94 69.94 0 01-8.41-2.36 56.89 56.89 0 01-8.17-3.75 62.56 62.56 0 01-7.81-4.82 13.81 13.81 0 01-5.12-6.59.32.32 0 00-.61.17c1.2 4.79 5.76 7.74 9.7 10.2a61.41 61.41 0 0015.93 7.44c11.13 3.09 22.91 2.78 34 6.1a25.58 25.58 0 018.18 3.89 4.34 4.34 0 011.34 1.87 19.54 19.54 0 01.76 2 10.93 10.93 0 01.14 4.15c0 .29.39.36.52.14 1.19-1.88.52-4.95-.8-6.62C1409.81 972.73 1409.41 972.32 1409 971.88z"
                    class="color525252 svgShape"></path>
                <path fill="#f5b0a6"
                    d="M1681.4,1045.65l-70.68,17.47,26.94,208.06s-.62,122.23,80.58,110.63,26.92-140,26.92-140Z"
                    class="colorf5b0a6 svgShape"></path>
                <path fill="#f5b0a6"
                    d="M1705.79,981.28c8.42-14.61-6.59-20.27-6.59-20.27s-30.58-14.48-54.11,6.31c-19.24,17-33.69,41.67-33.69,41.67s-5,7.71-5.72,24.76,10.21,44.57,10.38,45a3.11,3.11,0,0,0,2.28.58c3.54,0,9.7-1.69,9.7-1.69l24.1-9.35c19.77-7.22,23.37-20.5,23.37-20.5s18,1.46,26.28-5.31a15.26,15.26,0,0,0,5.18-16.12c11.31-10,3.11-21.86,3.11-21.86.4-.4.76-.8,1.1-1.2C1717.22,996.06,1714.09,985.15,1705.79,981.28Z"
                    class="colorf5b0a6 svgShape"></path>
                <path fill="#ef7c59"
                    d="M1671.52,910l-58,1.19,5.53,6.47a9.8,9.8,0,0,1,1.32,10.77l-3.28,6.51a4.56,4.56,0,0,0-.4,2.86l2.56,13.36a4.49,4.49,0,0,0,5.89,3.39l46-16.08a10.89,10.89,0,0,0,6.38-14.61Z"
                    class="coloref7c59 svgShape"></path>
                <path fill="#f19a6d"
                    d="M1693.55,1014.53c-5.52-14.58-10.37-29.65-12.73-35.69l-3.09-7.92a75.29,75.29,0,0,1-4.45-17.15l-2.11-15.29-46,16.08,26.7,77.35c.44,1.28,2.88,9.34,5.35,17.34a13.23,13.23,0,0,0,17.29,8.46l19-7.18a13.22,13.22,0,0,0,7.46-17.63C1698.31,1026.73,1695.57,1019.87,1693.55,1014.53Z"
                    class="colorf19a6d svgShape"></path>
                <polygon fill="#d16850" points="1629.72 967.83 1671.18 938.48 1625.14 954.57 1629.72 967.83"
                    opacity=".33" class="colord16850 svgShape"></polygon>
                <path fill="#ef7c59"
                    d="M1841.74,928a40.09,40.09,0,0,1-5.47-1.53c-27.23-9.66-56.77-50-72.66-103.14-15.84-53-13.33-102.81,4-125.91a37.73,37.73,0,0,1,3.88-4.47,30.36,30.36,0,0,1,12.8-7.81l-27.78,8.3c-31.41,9.39-40.66,71.27-20.65,138.19s61.69,113.55,93.1,104.16l27.77-8.3A30.49,30.49,0,0,1,1841.74,928Z"
                    class="coloref7c59 svgShape"></path>
                <path fill="#f3ce90"
                    d="M1833.68,707.06c-16.46-17.81-34.15-26.48-49.41-21.92-20.85,6.23-31.94,35.58-31.18,74.19.38,19.55,3.79,41.5,10.52,64a245.23,245.23,0,0,0,24.51,56.31c20.86,34.52,47.12,54.27,68.59,47.85,14.61-4.37,24.43-20.07,28.74-42.38,5-25.64,2.63-60-8.08-95.79C1867.09,754.92,1851.07,725.88,1833.68,707.06Z"
                    class="colorf3ce90 svgShape"></path>
                <path fill="#f19a6d"
                    d="M1831.66,812.41a59.27,59.27,0,0,1-3.24-8.46c-4.54-15.19-2.44-29.22,4.68-31.35l-77.36,16.16A265.78,265.78,0,0,0,1776,856.52l73.54-28.94C1843.84,829.28,1836.64,822.84,1831.66,812.41Z"
                    class="colorf19a6d svgShape"></path>
                <path fill="#ffffff"
                    d="M1833.1,772.59c-7.12,2.13-9.22,16.17-4.68,31.36s14,25.76,21.12,23.63,9.23-16.17,4.69-31.35S1840.23,770.46,1833.1,772.59Z"
                    class="colorfff svgShape"></path>
                <path fill="#f19a6d"
                    d="M1564.36,950.57a33.34,33.34,0,0,1-7.21-4.09l-.9-.67-.89-.72a55.58,55.58,0,0,1-5.35-5c-.59-.61-1.16-1.25-1.73-1.9s-1.18-1.36-1.76-2.08c-.43-.52-.86-1.06-1.28-1.6s-.86-1.11-1.28-1.69l-.68-.93-.16-.22c-.4-.56-.79-1.14-1.19-1.72s-.87-1.27-1.29-1.93h0a138.86,138.86,0,0,1-20.87-69.89c0-1.49,0-3,.07-4.4,0-.4,0-.82,0-1.23.06-.77.1-1.54.16-2.3s.12-1.38.19-2.05c.14-1.36.32-2.68.52-4,.06-.41.14-.81.21-1.23s.15-.86.25-1.3.17-.8.26-1.21l.27-1.2c.28-1.19.61-2.33,1-3.43.23-.74.49-1.47.75-2.16a33.2,33.2,0,0,1,1.85-4.17,8.39,8.39,0,0,1,.48-.89,26.1,26.1,0,0,1,2.69-3.93c.19-.24.39-.47.58-.69.38-.42.76-.8,1.17-1.18l-32.89,28.85c-4.78,3.41-7.74,10.65-8.62,20s.34,20.82,3.89,32.69c7.09,23.74,21.13,41,32.87,41.45h0l43.32,6.05a21.53,21.53,0,0,1-3.53-1C1565,950.8,1564.66,950.7,1564.36,950.57Z"
                    class="colorf19a6d svgShape"></path>
                <path fill="#ef7c59"
                    d="M1585.72,944.55a27.3,27.3,0,0,1-3.72-1.72c-13.68-7.51-27.75-28.15-35.64-54.56-7.4-24.76-7.48-48.25-1.44-62.46a30.26,30.26,0,0,1,3.45-6.2,17.9,17.9,0,0,1,9.28-6.92l-20.83,6.22c-17.18,5.14-22.24,39-11.29,75.59s33.74,62.1,50.92,57l20.83-6.23A17.89,17.89,0,0,1,1585.72,944.55Z"
                    class="coloref7c59 svgShape"></path>
                <path fill="#f3ce90"
                    d="M1742.16,850.29q-3.44-9-6.33-18.66c-13.22-44.26-13.66-86.31-3.35-112.43h0l-31.87,22-14.1,9.72q-7.73,5.33-15.66,10.34-7.11,4.49-14.38,8.7-13.85,8-28.22,15.09c-1.24.62-2.5,1.22-3.74,1.82a459.86,459.86,0,0,1-66.86,25.84,17.9,17.9,0,0,0-9.28,6.92,30.26,30.26,0,0,0-3.45,6.2c-5.06,11.91-5.83,30.32-1.59,50.54.82,3.91,1.83,7.9,3,11.92,7.9,26.41,22,47.05,35.64,54.56a27.3,27.3,0,0,0,3.72,1.72,18,18,0,0,0,11.56.69h0a457.08,457.08,0,0,1,74.15-15.6q15.88-2,31.89-2.86,8.36-.48,16.78-.62,9.34-.18,18.73,0l17.15.4,38.72.89v0C1775.1,913.61,1755.66,885.74,1742.16,850.29Z"
                    class="colorf3ce90 svgShape"></path>
                <path fill="#f19a6d"
                    d="M1742.16,850.29c-38.41,21.15-98.2,50.8-130.33,50.1a115,115,0,0,1-68.5-24c.82,3.91,1.83,7.9,3,11.92,7.9,26.41,22,47.05,35.64,54.56a27.3,27.3,0,0,0,3.72,1.72,18,18,0,0,0,11.56.69h0a457.08,457.08,0,0,1,74.15-15.6q15.88-2,31.89-2.86,8.36-.48,16.78-.62,9.34-.18,18.73,0l17.15.4,38.72.89v0C1775.1,913.61,1755.66,885.74,1742.16,850.29Z"
                    opacity=".35" class="colorf19a6d svgShape"></path>
                <path fill="#ffffff"
                    d="M1625,806.82c-37,13.27-55.22,17-48.74,31.72,0,0,6.78,14.39,32.62,9.1,31.92-6.54,99.7-52.57,97.77-77.16S1669.05,791,1625,806.82Z"
                    opacity=".39" class="colorfff svgShape"></path>
                <path fill="#ef7c59"
                    d="M1784.27,685.14c-20.85,6.23-31.94,35.58-31.18,74.19a85.22,85.22,0,0,1,20.37-29.46,86.87,86.87,0,0,1,60.22-22.81C1817.22,689.25,1799.53,680.58,1784.27,685.14Z"
                    opacity=".39" class="coloref7c59 svgShape"></path>
                <path fill="#d2d2d2"
                    d="M1642.83,992.09l13.52,53.37c21.08-12.87,12-35.11,12-35.11a305.89,305.89,0,0,1,27.46-18.29c13.88-8,3.74-22.43,3.74-22.43Z"
                    class="colord2d2d2 svgShape"></path>
                <path fill="#b8b8b8"
                    d="M1672.13 1011.53c-2.18 0-3.58 0-3.84 0a1.14 1.14 0 01.06-2.28c.31 0 32 .78 41.07-5.65a1.14 1.14 0 011.32 1.86C1702.93 1010.94 1681.07 1011.53 1672.13 1011.53zM1687.35 1031a74.33 74.33 0 01-18-2.21 1.14 1.14 0 11.61-2.19c.2 0 20.22 5.42 36.6-1.27a1.14 1.14 0 01.86 2.11A53.47 53.47 0 011687.35 1031zM1675.5 1048.91a1.07 1.07 0 01-.39-.07c-1.22-.45-11.88-4.58-12.31-9.62a1.13 1.13 0 112.26-.19c.24 2.72 6.78 6.16 10.84 7.68a1.14 1.14 0 01-.4 2.2z"
                    class="colorb8b8b8 svgShape"></path>
                <path fill="#f5b0a6"
                    d="M1635.74,998.43l20.61,47c21.08-12.87,12-35.11,12-35.11a305.89,305.89,0,0,1,27.46-18.29c13.88-8,3.74-22.43,3.74-22.43Z"
                    class="colorf5b0a6 svgShape"></path>
                <path fill="#f5b0a6"
                    d="M1703.77,981.27l-1-.35c.09,4.05-1.53,8.49-7.3,11.82A304.44,304.44,0,0,0,1668,1011s6.58,16.06-4.38,28.78c.4,4.46,11.57,8.64,11.57,8.64s18,1.47,26.29-5.3a15.28,15.28,0,0,0,5.18-16.13c11.3-10,3.11-21.86,3.11-21.86.39-.39.76-.79,1.09-1.19C1717.36,996.25,1713.35,984.34,1703.77,981.27Z"
                    class="colorf5b0a6 svgShape"></path>
                <path fill="#f18a8b"
                    d="M1709.15 1004c-9.08 6.43-40.76 5.66-41.08 5.65a1.14 1.14 0 10-.06 2.28c.26 0 1.67 0 3.84 0 8.94 0 30.81-.59 38.61-6.11a1.14 1.14 0 00-1.31-1.86zM1706.27 1025.75c-16.39 6.69-36.41 1.32-36.61 1.27a1.14 1.14 0 00-.6 2.19 73.76 73.76 0 0018 2.21 53.47 53.47 0 0020.05-3.56 1.13 1.13 0 00.62-1.48A1.15 1.15 0 001706.27 1025.75z"
                    class="colorf18a8b svgShape"></path>
                <path fill="#f18a8b"
                    d="M1714.63,990.83a16,16,0,0,0-10.38-10.8l-1-.36a1.14,1.14,0,0,0-1.06.14,1.12,1.12,0,0,0-.48,1c.08,4.54-2.19,8.17-6.76,10.79a310.33,310.33,0,0,0-27.63,18.3,1.14,1.14,0,0,0-.37,1.34c.06.15,6.13,15.6-4.26,27.6a1.2,1.2,0,0,0-.28.85c.44,5,11.07,9.17,12.29,9.63a1,1,0,0,0,.3.06c.23,0,2,.16,4.55.16,6,0,16.56-.76,22.57-5.64a16.47,16.47,0,0,0,5.77-16.62c9.52-8.89,4.93-19.15,3.31-22.06l.55-.63A14.71,14.71,0,0,0,1714.63,990.83Zm-5.74,14.82a17.57,17.57,0,0,1,2.48,6.7c.77,5.18-1.07,9.78-5.46,13.65a1.11,1.11,0,0,0-.32,1.2,14,14,0,0,1-4.86,14.89c-7.46,6.05-23.58,5.11-25.33,5-3.86-1.48-9.79-4.6-10.59-7.22,9.42-11.31,5.75-25.17,4.59-28.69a304,304,0,0,1,26.73-17.64c4.73-2.71,7.41-6.56,7.84-11.19a13.69,13.69,0,0,1,8.47,9.12,12.42,12.42,0,0,1-2.38,11.62c-.32.37-.66.75-1,1.12A1.14,1.14,0,0,0,1708.89,1005.65Z"
                    class="colorf18a8b svgShape"></path>
                <path fill="#f18a8b"
                    d="M1699.1,968.57l-50.11,20-.19.1-13.67,8.81a1.14,1.14,0,0,0,1.23,1.92l13.58-8.76L1699.06,971c1.12,1.88,3.74,7,2.62,12-.71,3.25-2.89,5.94-6.46,8a310.91,310.91,0,0,0-27.59,18.36,1.15,1.15,0,0,0-.37,1.34c.36.87,8.48,21.51-11.5,33.71a1.13,1.13,0,0,0-.38,1.56,1.14,1.14,0,0,0,1,.54,1.17,1.17,0,0,0,.6-.16c19.3-11.79,14.13-31.39,12.72-35.67a304.11,304.11,0,0,1,26.68-17.71c4.15-2.39,6.69-5.58,7.55-9.48,1.61-7.27-3.24-14.3-3.45-14.59A1.14,1.14,0,0,0,1699.1,968.57Z"
                    class="colorf18a8b svgShape"></path>
                <path fill="#5681bf"
                    d="M1407,738.74c-14.58-17.8-36.28-34.77-65.8-34.51a86.6,86.6,0,0,0-26,4.42,159.81,159.81,0,0,0-29.39,12.59c-30,16.9-46.29,42-48.14,75.51a143.8,143.8,0,0,0,2.71,35q1.23,6.39,3,13.09a6.2,6.2,0,0,0,8,4.29l.27-.1,64.48-25.47,12.11-4.78,31.29-12.36,70.66-27.91a133.47,133.47,0,0,0-11.35-22.91A146.72,146.72,0,0,0,1407,738.74Z"
                    class="color5681bf svgShape"></path>
                <path fill="#5681bf"
                    d="M1435.71,759.41c-1.12-.29-2.25-.55-3.39-.79s-2-.42-3-.6A83.45,83.45,0,0,0,1416,756.6a42.72,42.72,0,0,0-16.2,2.42c-17.21,6.82-44.7,31.71-61.18,47.62-6.71,6.48-11.59,11.47-13.21,13.14l-.59.6s18.7-4.86,42.43-11.53a713.23,713.23,0,0,0,69.71-23.64c21.27-8.64,32.43-18.11,30.32-20.78C1463.55,759.75,1449.06,762.72,1435.71,759.41Z"
                    class="color5681bf svgShape"></path>
                <path fill="#b5cae8"
                    d="M1406.69,731.09c-14.58-17.8-36.28-34.78-65.79-34.52a87.13,87.13,0,0,0-26,4.42,159.24,159.24,0,0,0-29.4,12.6c-30,16.89-46.28,42-48.14,75.5a143.77,143.77,0,0,0,2.71,35q1.23,6.39,3,13.1a6.2,6.2,0,0,0,8,4.29l.27-.1,64.49-25.48,12.11-4.78,31.29-12.36,70.65-27.91A133.47,133.47,0,0,0,1418.57,748,145.79,145.79,0,0,0,1406.69,731.09Z"
                    class="colorb5cae8 svgShape"></path>
                <path fill="#d1dbed"
                    d="M1237.4,789.09c46.27-31.52,49.67-61.58,48.14-75.5C1255.54,730.48,1239.26,755.55,1237.4,789.09Z"
                    class="colord1dbed svgShape"></path>
                <path fill="#99b1da"
                    d="M1406.69,731.09c-14.58-17.8-36.28-34.78-65.79-34.52,9.12,13.34,20,33.3,17.92,50.27-3.17,25.77-66,69.08-118.71,77.26q1.23,6.39,3,13.1a6.2,6.2,0,0,0,8,4.29l.27-.1,64.49-25.48,12.11-4.78,31.29-12.36,70.65-27.91A133.47,133.47,0,0,0,1418.57,748,145.79,145.79,0,0,0,1406.69,731.09Z"
                    class="color99b1da svgShape"></path>
                <path fill="#5681bf"
                    d="M1283.87 747.41C1267.49 746 1254 750 1243 759.6c-8.69 7.61-8.45 16.61-5 22.1 11-13.29 30.57-20.12 47.23-18.46 41 4.07 70.64 25.67 79.77 32.11C1343.65 759.12 1302.41 749 1283.87 747.41zM1372 701.5c-11-8.43-36.38-13.55-51.51-10.76-19.29 3.59-34.06 12.8-34.8 22.61 24.85-10.06 61.18-10 81.46 2.67s33.18 32.76 42.18 53.83C1408 745 1393.13 717.71 1372 701.5z"
                    class="color5681bf svgShape"></path>
                <path fill="#5681bf"
                    d="M1392.32,716.36c14.62,14,32.92,34.4,30,57,9.08-10.33,6.12-24.11.33-36.09C1418.39,728.51,1407.49,716.13,1392.32,716.36Z"
                    class="color5681bf svgShape"></path>
                <path fill="#d1dbed"
                    d="M1438.32,750.76c-1.12-.28-2.26-.55-3.39-.79s-2-.42-3-.6a83.45,83.45,0,0,0-13.34-1.42,42.72,42.72,0,0,0-16.2,2.42c-17.21,6.82-44.7,31.71-61.18,47.62-6.71,6.48-11.59,11.47-13.21,13.14l-.59.61s18.7-4.87,42.43-11.53c23.23-6.53,51.28-14.79,71.36-21.91,16.93-6,28.17-11.2,26.06-13.87C1463.55,759.75,1451.67,754.08,1438.32,750.76Z"
                    class="colord1dbed svgShape"></path>
                <g opacity=".35" fill="none">
                    <path fill="#ffffff"
                        d="M1412.91 754.54c-6.55.2-13.5 9.22-13.35 11s21 3.35 35.44 5.84c6 1 21.24-8.45 21.24-8.45C1436.68 753.21 1412.91 754.54 1412.91 754.54zM1395.16 770.69c-3.55.31-13.08 13.52-13.31 18.16s36.46-9.58 40.86-13.38S1396.23 770.59 1395.16 770.69z"
                        class="colorfff svgShape"></path>
                </g>
                <polygon fill="#ffffff" points="1877.19 751 1991.1 661.46 1954.28 635.18 1877.19 751"
                    class="colorfff svgShape"></polygon>
                <polygon fill="#ffffff" points="1923.04 793.33 2037.17 771.6 2022.7 737.78 1923.04 793.33"
                    class="colorfff svgShape"></polygon>
                <polygon fill="#ffffff" points="2015.59 938.94 2040.65 901.29 1907.95 840.53 2015.59 938.94"
                    class="colorfff svgShape"></polygon>
                <rect width="41.84" height="22.55" x="3330.37" y="1734.02" fill="#c9c9c9"
                    transform="rotate(-22.81 3350.692 1745.113)" class="colorc9c9c9 svgShape"></rect>
                <polygon fill="#d16230"
                    points="3327.63 1743.01 3334.6 1756 3373.17 1739.78 3366.2 1726.79 3327.63 1743.01"
                    class="colord16230 svgShape"></polygon>
                <path fill="#f3ce90"
                    d="M3347.91,1640.76l-69,29a100.15,100.15,0,0,0-60.51,105.17l1.72,13.27,253.51-106.6-8.28-10.51A100.15,100.15,0,0,0,3347.91,1640.76Z"
                    class="colorf3ce90 svgShape"></path>
                <g opacity=".35" fill="none">
                    <path fill="#d16230"
                        d="M3338.89,1644.55l-5.59,2.35c23.92-10.06,56.56,8.85,79.76,46.2l6.89,11.09,20.55-8.64-7.42-10.87C3408.09,1648.08,3369.55,1631.66,3338.89,1644.55Z"
                        class="colord16230 svgShape"></path>
                    <path fill="#d16230"
                        d="M3329.27,1648.6l-2.45,1c16.13-6.78,41.93,15,63,53.22l6.27,11.35,9-3.79-6.51-11.25C3376.74,1661.26,3348.35,1640.57,3329.27,1648.6Z"
                        class="colord16230 svgShape"></path>
                </g>
                <g opacity=".39" fill="none">
                    <path fill="#ffffff"
                        d="M3252.35 1705.33c-2.77 7.63 5 14.87 12.52 11.73l8.56-3.6a18.8 18.8 0 0011.49-17.14c.15-18.28 5.16-31.24 14.73-35.27l-12.17 5.12C3271.07 1673.07 3258.94 1687.18 3252.35 1705.33zM3289.17 1730.87a9.38 9.38 0 00-12.78-6.56l-23.83 10a9.34 9.34 0 00-5.75 8.92c0 1.07.09 2.14.16 3.21a9.41 9.41 0 0013 8.08l24.3-10.22a9.41 9.41 0 005.46-10.94C3289.56 1732.54 3289.36 1731.71 3289.17 1730.87z"
                        class="colorfff svgShape"></path>
                </g>
                <path fill="#f3ce90"
                    d="M3295.13,2500.23,3259.2,2619a27.36,27.36,0,0,0,26.19,35.28h50a27.36,27.36,0,0,0,21.63-10.61l43.72-56.5a45,45,0,0,0,6.38-44.58C3379.55,2475.41,3303.29,2474.85,3295.13,2500.23Z"
                    class="colorf3ce90 svgShape"></path>
                <path fill="#f19a6d"
                    d="M3322.21,2485c11.14,9.1,21.06,21.7,27.95,38.45a43.54,43.54,0,0,1,3.25,17.3L3291,2514l-11.08,36.63a221.81,221.81,0,0,0,51.56,33.33l-31.39,40.57a27.37,27.37,0,0,1-21.64,10.61H3259.3a27.33,27.33,0,0,0,26.09,19.11h50a27.36,27.36,0,0,0,21.63-10.61l43.72-56.5a45,45,0,0,0,6.38-44.58C3388.87,2498.08,3349.26,2482.84,3322.21,2485Z"
                    opacity=".61" class="colorf19a6d svgShape"></path>
                <path fill="#f19a6d"
                    d="M3635.65,1716.25H3503.44v2.84c-200.83,24.87-356.92,212.19-356.92,439.63s156.09,414.75,356.92,439.63v2.84h132.21c222.28,0,402.47-198.1,402.47-442.47S3857.93,1716.25,3635.65,1716.25Z"
                    class="colorf19a6d svgShape"></path>
                <ellipse cx="3503.44" cy="2158.72" fill="#f3ce90" rx="402.47" ry="442.47" class="colorf3ce90 svgShape">
                </ellipse>
                <path fill="#f19a6d"
                    d="M3521.25,1767.54q-8.85-.48-17.81-.49c-196.44,0-356.26,175.7-356.26,391.67s159.82,391.66,356.26,391.66q9,0,17.81-.48c-188.21-10.24-338.46-181.78-338.46-391.18S3333,1777.77,3521.25,1767.54Z"
                    class="colorf19a6d svgShape"></path>
                <ellipse cx="3521.25" cy="2158.72" fill="#ffffff" rx="338.46" ry="391.18" class="colorfff svgShape">
                </ellipse>
                <rect width="24.72" height="64.96" x="3508.89" y="1807.99" fill="#d16230" class="colord16230 svgShape">
                </rect>
                <polygon fill="#d16230"
                    points="3362.66 1862.3 3390.05 1918.56 3411.45 1903.91 3384.06 1847.65 3362.66 1862.3"
                    class="colord16230 svgShape"></polygon>
                <polygon fill="#d16230"
                    points="3258.92 1996.04 3306.37 2028.52 3318.72 2003.14 3271.28 1970.66 3258.92 1996.04"
                    class="colord16230 svgShape"></polygon>
                <rect width="54.78" height="29.31" x="3225.47" y="2144.06" fill="#d16230" class="colord16230 svgShape">
                </rect>
                <polygon fill="#d16230"
                    points="3258.92 2321.39 3271.28 2346.78 3318.72 2314.29 3306.37 2288.91 3258.92 2321.39"
                    class="colord16230 svgShape"></polygon>
                <polygon fill="#d16230"
                    points="3362.66 2455.13 3384.06 2469.79 3411.45 2413.53 3390.05 2398.87 3362.66 2455.13"
                    class="colord16230 svgShape"></polygon>
                <rect width="24.72" height="64.96" x="3508.89" y="2444.49" fill="#d16230" class="colord16230 svgShape">
                </rect>
                <polygon fill="#d16230"
                    points="3631.04 2413.53 3658.43 2469.79 3679.84 2455.13 3652.44 2398.87 3631.04 2413.53"
                    class="colord16230 svgShape"></polygon>
                <polygon fill="#d16230"
                    points="3723.77 2314.29 3771.22 2346.78 3783.57 2321.39 3736.13 2288.91 3723.77 2314.29"
                    class="colord16230 svgShape"></polygon>
                <rect width="54.78" height="29.31" x="3762.24" y="2144.06" fill="#d16230" class="colord16230 svgShape">
                </rect>
                <polygon fill="#d16230"
                    points="3723.77 2003.14 3736.13 2028.52 3783.57 1996.04 3771.22 1970.66 3723.77 2003.14"
                    class="colord16230 svgShape"></polygon>
                <polygon fill="#d16230"
                    points="3631.04 1903.91 3652.44 1918.56 3679.84 1862.3 3658.43 1847.65 3631.04 1903.91"
                    class="colord16230 svgShape"></polygon>
                <polygon fill="#f19a6d"
                    points="3498.71 2180.89 3423.42 2320.09 3431.76 2339.46 3455.04 2331.22 3530.32 2192.01 3514.52 2186.45 3498.71 2180.89"
                    class="colorf19a6d svgShape"></polygon>
                <path fill="#7c3e25"
                    d="M3521.25,2113.19c-21.17,0-38.4,20.42-38.4,45.53s17.23,45.53,38.4,45.53,38.39-20.43,38.39-45.53S3542.42,2113.19,3521.25,2113.19Z"
                    class="color7c3e25 svgShape"></path>
                <polygon fill="#d16230"
                    points="3311.51 2041.97 3317.11 2064.17 3513.22 2173.33 3521.25 2158.72 3529.27 2144.11 3333.15 2034.95 3311.51 2041.97"
                    class="colord16230 svgShape"></polygon>
                <path fill="#f19a6d"
                    d="M3519,2136.32h-9.54v3.09c-5.58,3.9-9.35,11.08-9.35,19.31s3.77,15.41,9.35,19.3v3.09H3519c10.41,0,18.88-10,18.88-22.39S3529.44,2136.32,3519,2136.32Z"
                    class="colorf19a6d svgShape"></path>
                <path fill="#f3ce90"
                    d="M3509.49 2136.32c-10.41 0-18.88 10-18.88 22.4s8.47 22.39 18.88 22.39 18.89-10 18.89-22.39S3519.91 2136.32 3509.49 2136.32zM3877.51 2500.23c-8.15-25.38-84.41-24.82-112 42.31a45 45 0 006.38 44.58l43.71 56.5a27.4 27.4 0 0021.64 10.61h50a27.36 27.36 0 0026.19-35.28z"
                    class="colorf3ce90 svgShape"></path>
                <path fill="#f19a6d"
                    d="M3854.46,2634.63a27.37,27.37,0,0,1-21.64-10.61l-43.72-56.5a45.11,45.11,0,0,1-6.38-44.59,104.63,104.63,0,0,1,9.22-17.54,96.24,96.24,0,0,0-26.44,37.15,45,45,0,0,0,6.38,44.58l43.71,56.5a27.38,27.38,0,0,0,21.64,10.61h50a27.33,27.33,0,0,0,26.65-21.27,27.28,27.28,0,0,1-9.42,1.67Z"
                    opacity=".61" class="colorf19a6d svgShape"></path>
                <rect width="29.2" height="54.18" x="3807.05" y="1745" fill="#d16230"
                    transform="rotate(-67 3833.01 1773.246)" class="colord16230 svgShape"></rect>
                <rect width="14.6" height="54.18" x="3817.18" y="1738.27" fill="#f19a6d"
                    transform="rotate(-67.19 3824.76 1765.316)" class="colorf19a6d svgShape"></rect>
                <path fill="#f3ce90"
                    d="M3915.33,1674.27,3826,1636.72A129.68,129.68,0,0,0,3673.89,1676l-10.73,13.61,328.29,138,2.23-17.18A129.7,129.7,0,0,0,3915.33,1674.27Z"
                    class="colorf3ce90 svgShape"></path>
                <g opacity=".42" fill="none">
                    <path fill="#d16230"
                        d="M3715.73,1693.6l-9.61,14.07,26.62,11.19,8.92-14.36c30-48.37,72.31-72.85,103.29-59.82l-7.24-3C3798,1624.94,3748.09,1646.2,3715.73,1693.6Z"
                        class="colord16230 svgShape"></path>
                    <path fill="#d16230"
                        d="M3760.31,1712.34l-8.42,14.57,11.67,4.91,8.13-14.7c27.35-49.49,60.76-77.7,81.64-68.92l-3.17-1.33C3825.45,1636.48,3788.68,1663.27,3760.31,1712.34Z"
                        class="colord16230 svgShape"></path>
                </g>
                <g opacity=".51" fill="none">
                    <path fill="#ffffff"
                        d="M3904.28 1669.62l-15.76-6.62c12.4 5.21 18.88 22 19.08 45.67a24.3 24.3 0 0014.87 22.19l11.09 4.66c9.69 4.08 19.8-5.3 16.21-15.18C3941.24 1696.84 3925.53 1678.56 3904.28 1669.62zM3949.49 1757.89l-30.85-13a12.15 12.15 0 00-16.55 8.51c-.25 1.07-.5 2.16-.77 3.24a12.2 12.2 0 007.07 14.17l31.48 13.23a12.17 12.17 0 0016.86-10.46c.09-1.39.17-2.77.22-4.15A12.1 12.1 0 003949.49 1757.89z"
                        class="colorfff svgShape"></path>
                </g>
                <path fill="#5681bf"
                    d="M4003.68 1642.61c-25.79-19.26-51.21-23.58-52.28-23.75a8.56 8.56 0 00-2.74 16.89c.22 0 22.31 3.78 44.78 20.57 30.16 22.53 45.89 56.62 46.77 101.3a8.55 8.55 0 008.55 8.39h.17a8.56 8.56 0 008.39-8.72C4056.09 1694.71 4027.47 1660.39 4003.68 1642.61zM4067.54 1607.29c-18-15-35.94-17.9-36.7-18a8.55 8.55 0 00-2.64 16.9c2.35.39 57.6 10.37 58.89 91a8.55 8.55 0 008.55 8.42h.14a8.55 8.55 0 008.41-8.69C4103.4 1647.48 4083.82 1620.9 4067.54 1607.29zM3285.38 1618.12c-62.36 5.3-94.75 36.09-110.94 61-17.55 27-20.2 52.63-20.3 53.71a8.54 8.54 0 007.67 9.32 8.24 8.24 0 00.85 0 8.58 8.58 0 008.51-7.71c0-.22 2.5-23.13 18-46.65 20.56-31.19 53.41-48.91 97.65-52.66a8.56 8.56 0 00-1.45-17.05zM3222.05 1575.28c-49.25 4-74.5 25.27-87 42.4-13.81 18.91-15.53 37-15.59 37.8a8.54 8.54 0 007.73 9.24c.27 0 .53 0 .8 0a8.57 8.57 0 008.51-7.74c.23-2.37 6.6-58.15 87-64.68a8.55 8.55 0 00-1.39-17z"
                    class="color5681bf svgShape"></path>
                <path fill="#99b1da"
                    d="M2750.56,2088.54a45.68,45.68,0,0,0-79.1-.06l-307.2,532a45.32,45.32,0,0,0,39.55,68.08h614.4a45.26,45.26,0,0,0,39.55-67.95Z"
                    class="color99b1da svgShape"></path>
                <path fill="#5681bf"
                    d="M2730.2,2134.12a23.55,23.55,0,0,0-20.42-11.77,23.31,23.31,0,0,0-4.51.47,23.69,23.69,0,0,0-15.9,11.42l-280,485.16a24,24,0,0,0,0,23.84c4.21,7.29,12,12.31,20.41,12.31h560.07c8.42,0,16.21-5,20.42-12.31a24.06,24.06,0,0,0,0-23.83Z"
                    class="color5681bf svgShape"></path>
                <path fill="#ffffff"
                    d="M2730.58 2280.57l-42-2.93c-3.52-.24-6.89.53-9.32 2.93a11.12 11.12 0 00-3.52 8.86l8.93 171.92c.36 6.85 6 12.67 12.79 12.83l24.4.58a12.44 12.44 0 0012.57-11.94l8.69-168.8a13 13 0 00-3.42-9.37A12.83 12.83 0 002730.58 2280.57zM2709.87 2508.3q-16.53-.27-25.69 8.46t-9.17 25.32q0 16 9.27 25.17t25.59 9.17q16.65 0 25.68-8.86t9-24.92q0-16.69-8.82-25.36T2709.87 2508.3z"
                    class="colorfff svgShape"></path>
                <path fill="#22375b"
                    d="M2168.91,2204.93l-62.61-298.28c-12.68-58.75-60.22-100.35-138.08-120.46-65.49-16.91-149.17-17.49-236-1.37-87.84,16.31-167.57,47.59-224.06,88.19-68.37,49.15-97.77,107.84-84.47,169.46l69.1,311.41.4,1.11c25.2,71,84.4,136.14,175.29,193.14,71.63,44.93,146.92,74.8,197.2,91.89a91.75,91.75,0,0,0,51.5,2.09,95,95,0,0,0,45.15-25.8c37.46-38.22,91-98.44,134.65-169.24,54.38-88.28,78.48-169.18,72-241Z"
                    class="color22375b svgShape"></path>
                <path fill="#3c6799"
                    d="M2181.66,2202.18,2119,1903.9c-12.68-58.75-59.74-100.45-136.66-120.76-64.71-17.08-147.33-17.89-233-2-86.69,16.06-165.33,47.11-221,87.54-67.37,48.93-96.24,107.51-82.94,169.13l69.08,311.41.39,1.11c25.08,71.06,83.71,136.29,173.61,193.51,70.85,45.09,145.27,75.15,195,92.36a89.44,89.44,0,0,0,50.85,2.23,92.87,92.87,0,0,0,44.51-25.65c36.88-38.11,89.61-98.14,132.49-168.78,53.46-88.08,77-168.86,70.44-240.67Z"
                    class="color3c6799 svgShape"></path>
                <path fill="#6d91c6"
                    d="M2109.12,1905.72c-47.56-220.42-692.72-102.32-643.06,127.85l68.75,309.83c54.57,153.88,268.24,241.89,359.76,273.1,26.22,8.94,55.72,1.71,75.49-18.42,68.06-69.32,215.54-238.66,201.49-394.9Z"
                    class="color6d91c6 svgShape"></path>
                <path fill="#3c6799"
                    d="M2052.11,1916.92c-6.17-28.25-33.23-48.64-80.66-60.65-53.62-13.59-126.73-13.36-200.89.81-74.91,14.31-144.39,41.59-190.26,74.91-41.1,29.85-58.87,59.9-52.63,89.19l67.61,304.7c19.79,52.77,67.36,103.24,141,149.82,68.18,43.12,142,71.48,179.69,84.48a11.26,11.26,0,0,0,6.35.29,11.7,11.7,0,0,0,5.59-3.16c28.48-28.82,82.3-87,124.48-155,44.85-72.23,65.48-136.18,61.6-190.54Z"
                    class="color3c6799 svgShape"></path>
                <path fill="#99b1da"
                    d="M2025.41,1922.4c-4.45-20.4-26.68-35.78-66.21-45.75-50.88-12.82-120.79-12.41-192.11,1.31-72,13.85-138.4,39.91-181.85,71.54-34.14,24.86-49.23,48.2-44.77,69.15l67.21,302.93c18.54,48.22,63.22,95,132.45,138.9,63.36,40.16,131.91,67.3,170.07,80.78,28.76-29.39,78.59-84.13,117.92-147.33,42.35-68.07,62.1-127.75,58.94-177.73Z"
                    class="color99b1da svgShape"></path>
                <path fill="#ffffff"
                    d="M1912.2,1976.83c-19.28,1.42-37.7,18.2-41.53,37.28l-39.51,196.52L1744.33,2140c-11.06-9-27.75-5.51-37.21,7.41-9.26,12.65-8.29,29.88,2.13,38.82l120.17,103.17c7.72,6.63,18.82,8.79,29.31,5.66l1.06-.34c11-3.66,19.4-12.63,21.83-23.42l58.64-260.68C1944.76,1990.6,1932,1975.36,1912.2,1976.83Z"
                    class="colorfff svgShape"></path>
            </g>
        </svg></g>
</svg>