<svg width="512" height="512" viewBox="0 0 512 512" fill="none" xmlns="http://www.w3.org/2000/svg" xmlns:xlink="http://www.w3.org/1999/xlink" class=""><rect id="r9" width="512" height="512" x="0" y="0" rx="128" fill="url(#ra)" stroke="#FFFFFF" stroke-width="0" stroke-opacity="100%" paint-order="stroke"></rect><clipPath id="clip"><use xlink:href="#r9"></use></clipPath><defs><linearGradient id="ra" gradientUnits="userSpaceOnUse" gradientTransform="rotate(45)" style="transform-origin: center center;"><stop stop-color="#F953C6"></stop><stop offset="1" stop-color="#B91D73"></stop></linearGradient><radialGradient id="rb" cx="0" cy="0" r="1" gradientUnits="userSpaceOnUse" gradientTransform="translate(256) rotate(90) scale(512)"><stop stop-color="white"></stop><stop offset="1" stop-color="white" stop-opacity="0"></stop></radialGradient></defs><svg xmlns="http://www.w3.org/2000/svg" fill="none" viewBox="0 0 16 16" width="352" height="352" x="80" y="80" alignment-baseline="middle" style="color: rgb(255, 255, 255);"><path fill="currentColor" fill-rule="evenodd" d="M8 1a7 7 0 1 0 0 14A7 7 0 0 0 8 1Zm2.807 8.252a.75.75 0 0 0-1.114-1.004L8.75 9.296V4.75a.75.75 0 0 0-1.5 0v4.546l-.943-1.048a.75.75 0 1 0-1.114 1.004l2.25 2.5a.75.75 0 0 0 1.114 0l2.25-2.5Z" clip-rule="evenodd"></path></svg></svg>