<svg width="512" height="512" viewBox="0 0 512 512" fill="none" xmlns="http://www.w3.org/2000/svg" xmlns:xlink="http://www.w3.org/1999/xlink" class=""><rect id="r4" width="512" height="512" x="0" y="0" rx="128" fill="url(#r5)" stroke="#FFFFFF" stroke-width="0" stroke-opacity="100%" paint-order="stroke"></rect><clipPath id="clip"><use xlink:href="#r4"></use></clipPath><defs><linearGradient id="r5" gradientUnits="userSpaceOnUse" gradientTransform="translate(256, 256) rotate(90) translate(-256, -256)"><stop stop-color="#A8C0FF"></stop><stop offset="1" stop-color="#3F2B96"></stop></linearGradient><radialGradient id="r6" cx="0" cy="0" r="1" gradientUnits="userSpaceOnUse" gradientTransform="translate(256) rotate(90) scale(512)"><stop stop-color="white"></stop><stop offset="1" stop-color="white" stop-opacity="0"></stop></radialGradient></defs><svg xmlns="http://www.w3.org/2000/svg" fill="none" viewBox="0 0 16 16" width="352" height="352" x="80" y="80" alignment-baseline="middle" style="color: rgb(255, 255, 255);"><path stroke="currentColor" stroke-linecap="round" stroke-linejoin="round" stroke-width="1.5" d="m1.75 12.25 2.306-2.76a1.025 1.025 0 0 1 1.605.028v0a1.735 1.735 0 0 0 2.68.07l2.147-2.48c.36-.415.97-.478 1.404-.144l2.358 1.814M3.75 14.25h8.5a2 2 0 0 0 2-2v-8.5a2 2 0 0 0-2-2h-8.5a2 2 0 0 0-2 2v8.5a2 2 0 0 0 2 2Z"></path><path stroke="currentColor" stroke-linecap="round" stroke-linejoin="round" d="M5.25 4.75a.5.5 0 1 1-1 0 .5.5 0 0 1 1 0Z"></path></svg></svg>